<svg width="61" height="61" viewBox="0 0 61 61" fill="none" xmlns="http://www.w3.org/2000/svg">
<path d="M30.1641 55.7559C28.1186 55.7559 26.1646 54.9174 22.2564 53.2406C12.5282 49.0666 7.66406 46.9796 7.66406 43.4691V20.1246M30.1641 55.7559C32.2096 55.7559 34.1636 54.9174 38.0718 53.2406C47.8001 49.0666 52.6641 46.9796 52.6641 43.4691V20.1246M30.1641 55.7559V31.1826M7.66406 20.1246C7.66406 21.634 9.66799 22.5871 13.6759 24.4934L20.9789 27.9669C25.4861 30.1106 27.7398 31.1826 30.1641 31.1826M7.66406 20.1246C7.66406 18.6153 9.66799 17.6621 13.6759 15.7559M52.6641 20.1246C52.6641 21.634 50.6601 22.5871 46.6523 24.4934L39.3493 27.9669C34.8421 30.1106 32.5883 31.1826 30.1641 31.1826M52.6641 20.1246C52.6641 18.6153 50.6601 17.6621 46.6523 15.7559M15.9941 34.0334L20.9788 36.4044" stroke="#944446" stroke-width="2" stroke-linecap="round" stroke-linejoin="round"/>
<path d="M30.1641 5.75586V10.7559M40.1641 8.25586L36.4141 13.2559M20.1641 8.25586L23.9141 13.2559" stroke="#944446" stroke-width="2" stroke-linecap="round"/>
</svg>
