<svg width="61" height="61" viewBox="0 0 61 61" fill="none" xmlns="http://www.w3.org/2000/svg">
<path d="M12.4427 28.2559H47.8856C51.8926 28.2559 53.3606 29.1826 52.3608 33.2111C50.5973 40.3174 45.6038 42.0824 40.9901 46.7206C39.8688 47.8481 41.6136 49.5139 41.6146 50.7539C41.6163 53.0884 39.3961 53.2559 37.6276 53.2559H22.7006C20.932 53.2559 18.7118 53.0884 18.7136 50.7539C18.7146 49.5401 20.4071 47.7956 19.338 46.7206C14.7242 42.0824 9.73091 40.3174 7.96726 33.2111C6.96746 29.1826 8.43549 28.2559 12.4427 28.2559Z" stroke="#944446" stroke-width="2" stroke-linejoin="round"/>
<path d="M48.9141 28.2559C48.9141 23.7781 44.1643 20.7264 40.1641 22.4863M11.4141 28.2559C11.4141 25.0226 13.8354 22.359 16.9518 22.0031C14.9167 17.4017 19.2298 12.241 24.0113 13.2988M24.0113 13.2988C25.202 6.57489 35.1261 6.57489 36.3168 13.2988C41.2103 12.2162 45.3473 17.4613 43.3941 21.9627M24.0113 13.2988C25.4954 13.6271 26.7818 14.4864 27.6641 15.6688" stroke="#944446" stroke-width="2" stroke-linecap="round" stroke-linejoin="round"/>
</svg>
