<svg width="61" height="61" viewBox="0 0 61 61" fill="none" xmlns="http://www.w3.org/2000/svg">
<path d="M47.7991 30.0855L46.1706 28.7942C44.3172 27.3247 43.3904 26.5899 43.3904 25.6768C43.3904 24.7637 44.3172 24.0289 46.1706 22.5593L47.7991 21.2681M12.5293 21.2681L14.1579 22.5593C16.0113 24.0289 16.938 24.7637 16.938 25.6768C16.938 26.5899 16.0113 27.3247 14.1579 28.7942L12.5293 30.0855" stroke="#944446" stroke-width="2" stroke-linecap="round" stroke-linejoin="round"/>
<path d="M35.2033 43.3118L35.5098 41.2371C35.8585 38.876 36.0327 37.6954 36.8298 37.2348C37.6269 36.7741 38.7354 37.2132 40.9523 38.0914L42.9004 38.8631M25.1248 8.04199L24.8184 10.1166C24.4696 12.4777 24.2953 13.6583 23.4982 14.119C22.7012 14.5796 21.5927 14.1405 19.3757 13.2623L17.4277 12.4906" stroke="#944446" stroke-width="2" stroke-linecap="round" stroke-linejoin="round"/>
<path d="M16.4492 38.8672L18.5464 38.0948C20.9332 37.2158 22.1266 36.7761 22.9843 37.2364C23.8421 37.6966 24.0292 38.877 24.4034 41.2375L24.7322 43.3118M43.8813 12.4865L41.7841 13.259C39.3973 14.1381 38.2038 14.5776 37.3462 14.1174C36.4885 13.6572 36.3014 12.4768 35.9271 10.1162L35.5984 8.04199" stroke="#944446" stroke-width="2" stroke-linecap="round" stroke-linejoin="round"/>
<path d="M43.8813 25.6776H16.4492M37.0233 37.4332L23.3072 13.9204M37.0233 13.9209L23.3072 37.4336" stroke="#944446" stroke-width="2" stroke-linejoin="round"/>
<path d="M53.0049 34.3066C53.8301 35.2684 54.731 36.385 55.4883 37.5342C56.5181 39.097 57.1639 40.5474 57.1641 41.666C57.1641 43.9782 55.2898 45.8535 52.9775 45.8535C50.6654 45.8535 48.791 43.9782 48.791 41.666C48.7912 40.5538 49.4238 39.1761 50.4512 37.6455C51.2286 36.4873 52.1461 35.3588 53.0049 34.3066Z" stroke="#944446" stroke-width="2"/>
<path d="M7.37793 34.3066C8.20313 35.2684 9.10406 36.385 9.86133 37.5342C10.8912 39.097 11.537 40.5474 11.5371 41.666C11.5371 43.9782 9.6628 45.8535 7.35059 45.8535C5.03842 45.8535 3.16406 43.9782 3.16406 41.666C3.16421 40.5538 3.79682 39.1761 4.82422 37.6455C5.6017 36.4873 6.51916 35.3588 7.37793 34.3066Z" stroke="#944446" stroke-width="2"/>
<path d="M30.1904 47.2095C31.0156 48.1712 31.9166 49.2878 32.6738 50.437C33.7037 51.9999 34.3495 53.4503 34.3496 54.5688C34.3496 56.8811 32.4753 58.7563 30.1631 58.7563C27.8509 58.7563 25.9766 56.881 25.9766 54.5688C25.9767 53.4567 26.6093 52.0789 27.6367 50.5483C28.4142 49.3902 29.3317 48.2616 30.1904 47.2095Z" stroke="#944446" stroke-width="2"/>
</svg>
