<svg width="61" height="61" viewBox="0 0 61 61" fill="none" xmlns="http://www.w3.org/2000/svg">
<path d="M43.9141 55.7559C49.4368 55.7559 53.9141 51.2786 53.9141 45.7559C53.9141 43.0896 52.8708 40.6674 51.1701 38.8746C49.9033 37.5394 49.2698 36.8716 49.0921 36.4256C48.9141 35.9796 48.9141 35.3896 48.9141 34.2096V10.7559C48.9141 7.99443 46.6756 5.75586 43.9141 5.75586C41.1526 5.75586 38.9141 7.99443 38.9141 10.7559V34.2096C38.9141 35.3896 38.9141 35.9796 38.7361 36.4256C38.5583 36.8716 37.9248 37.5394 36.6581 38.8746C34.9573 40.6674 33.9141 43.0896 33.9141 45.7559C33.9141 51.2786 38.3913 55.7559 43.9141 55.7559Z" stroke="#944446" stroke-width="2" stroke-linecap="round" stroke-linejoin="round"/>
<path d="M22.7777 13.2559V22.3965M22.7777 22.3965V36.6154M22.7777 22.3965L27.8913 17.3184M22.7777 22.3965L17.6641 17.3184M22.7777 36.6154L22.7777 45.7559M22.7777 36.6154L17.6641 41.6934M22.7777 36.6154L27.8913 41.6934M10.505 24.4277L15.6186 29.5059M15.6186 29.5059L10.505 34.5839M15.6186 29.5059H28.9141M15.6186 29.5059H6.41406" stroke="#944446" stroke-width="2" stroke-linecap="round" stroke-linejoin="round"/>
</svg>
