<svg width="121" height="121" viewBox="0 0 121 121" fill="none" xmlns="http://www.w3.org/2000/svg">
<path d="M50.9551 100.256L44.7051 87.7559L30.9551 90.2559" stroke="#944446" stroke-width="3" stroke-linecap="round" stroke-linejoin="round"/>
<path d="M50.9551 20.2559L44.7051 32.7559L30.9551 30.2559" stroke="#944446" stroke-width="3" stroke-linecap="round" stroke-linejoin="round"/>
<path d="M53.8801 75.2559H50.9551" stroke="#944446" stroke-width="3" stroke-linecap="round" stroke-linejoin="round"/>
<path d="M10.9551 60.2559H43.4551L50.9551 45.2559" stroke="#944446" stroke-width="3" stroke-linecap="round" stroke-linejoin="round"/>
<path d="M100.955 72.9559C104.768 75.1572 107.748 78.5551 109.433 82.6227C111.118 86.6902 111.413 91.2001 110.274 95.4527C109.134 99.7054 106.623 103.463 103.13 106.143C99.6374 108.824 95.3578 110.276 90.9551 110.276C86.5524 110.276 82.2727 108.824 78.7799 106.143C75.287 103.463 72.7761 99.7054 71.6366 95.4527C70.4971 91.2001 70.7927 86.6902 72.4775 82.6227C74.1623 78.5551 77.1423 75.1572 80.9551 72.9559V20.2559C80.9551 17.6037 82.0087 15.0602 83.884 13.1848C85.7594 11.3094 88.3029 10.2559 90.9551 10.2559C93.6073 10.2559 96.1508 11.3094 98.0262 13.1848C99.9015 15.0602 100.955 17.6037 100.955 20.2559V72.9559Z" stroke="#944446" stroke-width="3" stroke-linecap="round" stroke-linejoin="round"/>
<path d="M20.9551 50.2559L28.4551 60.2559L20.9551 70.2559" stroke="#944446" stroke-width="3" stroke-linecap="round" stroke-linejoin="round"/>
<path d="M35.9551 105.256L50.9551 75.2559L43.4551 60.2559" stroke="#944446" stroke-width="3" stroke-linecap="round" stroke-linejoin="round"/>
<path d="M35.9551 15.2559L50.9551 45.2559H60.9551" stroke="#944446" stroke-width="3" stroke-linecap="round" stroke-linejoin="round"/>
</svg>
