<svg width="648" height="480" viewBox="0 0 648 480" fill="none" xmlns="http://www.w3.org/2000/svg">
<g clip-path="url(#clip0_1494_3245)">
<path d="M361.367 456.592C423.998 456.592 474.765 461.182 474.765 466.841C474.765 472.499 423.998 477.089 361.367 477.089C298.736 477.089 247.989 472.499 247.989 466.841C247.989 461.182 298.756 456.592 361.367 456.592Z" fill="#00683D"/>
<path d="M408.107 414.033C404.198 427.012 400.231 440.407 401.6 453.881C401.957 457.303 402.73 460.885 405.091 463.417C406.797 465.257 409.178 466.345 411.539 467.236C413.781 468.086 416.062 468.799 418.403 469.293C419.911 469.63 421.498 469.867 423.006 469.531C425.188 469.036 426.934 467.315 427.906 465.316C428.878 463.318 429.195 461.063 429.255 458.827C429.433 453.366 428.362 447.826 429.533 442.484C431.12 435.263 436.734 428.892 436.099 421.532C436.02 420.701 435.841 419.83 435.266 419.217C434.611 418.505 433.56 418.327 432.608 418.228C429.592 417.931 426.537 418.168 423.502 418.05C418.621 417.852 413.781 416.684 409.337 414.647" fill="white"/>
<path d="M307.564 436.331C308.576 437.043 309.032 438.369 308.993 439.596C308.953 440.822 308.516 442.009 308.08 443.177C305.223 450.794 302.386 458.411 299.53 466.048C298.399 469.095 297.367 472.874 299.53 475.308C301.097 477.069 303.815 477.326 306.136 476.891C310.004 476.178 313.456 473.962 316.472 471.43C319.487 468.897 322.205 466.009 325.3 463.595C328.633 461.003 332.561 458.807 334.485 455.048C335.795 452.496 336.013 449.567 336.191 446.698C336.489 441.871 336.787 437.004 335.914 432.235C335.735 431.286 335.457 430.257 334.684 429.703C333.851 429.109 332.72 429.228 331.728 429.367C324.447 430.395 317.166 431.424 309.905 432.453C309.489 432.512 309.052 432.572 308.655 432.453C308.08 432.255 307.703 431.701 307.187 431.385C306.671 431.068 305.779 431.127 305.68 431.721" fill="white"/>
<path d="M181.211 350.068C180.755 338.533 177.065 327.196 177.204 315.444C177.759 310.557 182.501 313.307 185.794 313.268C200.138 313.109 214.58 312.912 228.943 312.793C241.938 312.892 255.607 312.338 268.383 313.228C268.442 313.367 267.867 313.545 266.875 313.683C240.351 315.207 213.648 314.415 187.084 314.712C184.366 314.494 181.033 315.127 181.251 318.491C181.152 326.267 181.886 334.102 182.62 341.838C182.918 344.706 183.215 349.534 183.83 351.512C184.068 352.126 184.405 352.403 184.862 352.522C194.047 353.293 245.727 352.541 262.987 351.611C266.478 351.433 267.966 351.77 267.549 348.03C266.121 331.925 267.43 310.933 283.659 302.683C297.169 294.867 310.877 287.23 325.518 281.671C329.506 281.216 336.608 270.71 338.79 277.001C339.346 277.951 337.798 278.802 336.529 279.395C330.379 282.62 323.971 284.441 317.503 286.835C306.771 291.86 296.256 297.479 285.722 302.94C281.933 304.839 278.659 307.649 276.556 311.329C269.097 322.488 270.962 351.691 270.922 351.829C271.993 365.896 294.292 414.291 299.073 423.689C300.819 426.736 302.604 430.693 305.58 432.493C306.731 433.107 308.12 433.225 309.449 433.107C316.769 432.315 324.209 431.465 331.708 430.673C332.938 430.535 334.346 430.178 335.16 429.308C336.568 427.923 336.489 425.173 336.806 422.799C337.124 419.732 337.501 416.566 337.818 413.361C338.076 411.58 337.461 409.701 335.338 409.938C329.169 410.809 323.217 412.134 317.285 413.361C311.294 414.469 305.303 416.705 299.331 417.457C298.498 417.417 297.863 417.1 297.704 416.685C297.446 415.498 299.232 414.805 300.363 414.509C310.242 412.53 320.102 410.037 329.922 408.89C336.251 408.652 332.759 398.443 333.295 394.229C332.7 376.561 331.45 358.714 330.339 340.769C330.299 337.287 329.803 333.548 329.545 330.243C330.041 326.821 332.68 328.384 337.858 326.682C358.827 321.36 380.094 317.146 401.362 313.485C406.639 312.793 412.094 312.615 417.371 312.219C418.562 312.061 419.514 311.863 420.208 311.012C421.716 309.212 420.01 304.819 420.724 302.425C423.462 300.407 423.819 319.401 423.879 321.577C424.255 338.316 421.498 354.916 417.391 371.179C414.415 383.743 411.083 396.346 408.067 408.81C407.412 411.343 408.821 413.104 411.083 413.935C416.836 415.775 434.651 425.648 438.658 419.574C440.622 415.478 442.408 411.066 444.789 407.346C445.245 406.476 445.562 405.407 445.146 404.557C444.094 402.816 441.436 402.539 439.63 401.807C431.695 399.393 423.958 396.168 417.272 391.261C415.626 390.133 414.931 388.313 417.649 389.203C419.712 389.995 421.657 391.419 423.64 392.468C430.187 396.188 437.409 398.463 444.193 401.094C446.177 401.886 448.28 401.807 449.828 400.184C460.382 388.59 475.102 358.516 475.38 357.448C476.828 352.897 479.328 348.189 480.716 343.499C484.01 333.627 482.442 323.378 477.503 314.297C476.352 311.25 463.119 291.049 457.585 288.14C454.331 285.925 449.53 285.272 446.455 283.174C448.598 282.581 455.66 284.876 458.259 286.597C461.632 288.457 464.786 291.346 465.123 286.439C466.611 273.638 476.411 266.871 488.672 265.467C496.984 263.983 505.396 264.042 513.51 265.15C517.438 265.981 520.334 268.988 523.37 271.442C529.559 276.309 529.42 284.005 530.452 291.148C530.908 294.313 531.305 297.598 531.801 300.744C531.96 301.634 534.658 323.18 534.797 333.785C534.856 334.992 535.094 336.377 536.225 336.911C559.674 337.445 583.402 337.406 606.534 340.67C608.934 340.789 611.275 342.095 610.858 344.786C610.64 348.881 609.053 354.48 607.168 357.784C602.943 363.621 610.065 345.557 609.291 344.311C609.093 342.886 608.041 342.411 606.534 342.174C584.175 340.235 561.837 338.969 539.419 339.265C536.582 339.048 534.797 340.769 535.035 343.559C535.412 348.248 533.13 355.707 539.697 355.371C558.643 356.538 578.085 357.507 597.15 358.912C598.896 359.07 601.276 359.347 602.07 360.574C602.486 361.544 601.137 362.098 599.53 363.403C598.42 364.353 597.943 365.58 597.547 367.004C592.031 389.144 586.675 411.521 581.18 433.74C579.989 436.846 580.227 443.158 576.438 444.008C564.158 443.435 551.6 446.244 539.241 446.383C534.797 445.848 532.555 451.428 537.832 451.804C566.757 451.962 595.781 451.764 624.666 451.982C626.71 452.061 628.991 452.101 630.796 452.358C631.987 452.536 632.483 452.833 631.987 453.11C626.908 454.376 620.897 453.782 615.58 454.119C578.382 454.554 541.046 452.951 503.928 455.959C497.897 456.255 491.786 456.572 485.835 456.73C482.919 456.809 480.578 455.405 477.602 455.068C472.126 454.791 466.353 455.068 461.136 454.791C457.525 455.108 454.549 454.534 451.077 453.842C445.88 453.683 440.583 453.921 435.504 453.842C433.421 453.683 431.417 454.712 431.278 456.968C431.159 462.211 430.346 469.591 423.779 470.461C417.352 471.708 410.706 469.986 405.607 466.029C404.119 465.198 403.088 464.348 402.83 462.448C402.354 458.867 402.929 453.485 398.088 453.743C379.995 453.604 361.902 453.743 343.79 453.485C338.87 453.09 334.009 454.316 331.212 458.709C325.677 466.188 318.674 471.767 310.421 475.902C307.108 477.089 303.993 480.987 300.323 479.246C297.764 477.722 295.601 475.032 295.463 472.024C295.641 465.673 300.581 460.648 303.041 454.93C305.679 449.825 310.242 440.506 305.719 436.312C300.045 434.907 289.293 408.613 283.123 396.86C279.334 389.302 270.724 367.736 267.629 354.302C267.292 352.818 264.494 353.353 262.927 353.412C244.259 354.005 225.452 354.777 206.823 355.212C198.451 354.718 188.77 356.637 181.35 352.165M544.994 443.039C543.446 443.217 540.947 443.454 539.399 443.632C541.026 443.632 543.248 444.641 544.756 443.316C546.204 442.683 548.208 443.454 549.656 443.197C549.894 443.019 549.061 442.999 548.604 443.019C547.573 443.019 546.145 443.019 545.212 443.019H544.974L544.994 443.039ZM426.795 433.621C430.961 437.42 432.508 434.986 433.838 430.297C435.583 425.39 434.274 424.164 429.453 423.036C423.402 421.335 417.629 419.138 411.817 416.725C410.924 416.368 409.773 416.052 408.96 416.448C407.135 417.516 406.996 420.207 406.163 422.086C402.849 430.099 403.722 439.003 403.326 447.471C403.643 450.478 403.504 453.307 403.167 456.275C403.484 459.975 406.202 463.121 409.178 465.357C413.9 468.522 421.042 469.808 425.823 466.524C427.311 464.961 427.33 462.033 427.787 459.698C428.461 456.453 427.132 454.376 423.7 454.336C418.443 453.96 413.324 455.504 408.999 458.412C406.599 459.243 409.991 454.514 410.725 454.059C414.158 450.696 419.276 452.239 423.442 452.12C425.009 452.101 426.537 452.239 427.608 451.19C428.719 450.142 428.779 447.609 427.965 446.521C427.608 445.967 427.172 445.789 426.735 446.363C426.2 447.075 425.208 446.838 424.355 446.561C421.795 445.651 418.919 444.543 416.26 445.571C415.011 445.789 413.463 447.411 412.313 446.857C412.015 446.422 412.908 444.404 414.138 443.573C416.875 441.852 420.546 442.149 423.7 442.307C425.664 442.604 427.648 443.375 428.501 442.366C431.893 436.747 422.966 436.846 419.653 437.934C417.907 438.409 415.903 439.339 415.725 438.924C415.784 438.132 416.717 437.657 417.332 437.163C418.601 436.253 420.506 435.738 421.855 435.323C422.609 435.065 422.906 434.848 422.589 434.69C420.684 433.938 416.816 434.788 414.971 436.173C412.273 437.697 412.888 435.402 414.336 434.353C417.471 431.939 422.906 431.346 426.517 433.463L426.795 433.641V433.621ZM530.631 450.597C531.067 450.122 531.305 449.449 531.384 448.599C531.603 443.672 531.722 438.488 531.88 433.522C532.396 415.656 530.988 397.83 530.968 379.944C531.107 346.606 531.027 313.109 525.849 280.167C523.112 272.095 515.097 266.812 506.408 266.614C497.877 266.456 489.227 267.129 481.193 270.077C475.995 271.936 470.757 274.785 468.178 279.475C465.718 284.361 463.754 291.603 468.516 295.738C470.579 297.974 473.257 299.477 474.586 302.228C478.038 308.915 480.796 315.978 482.601 323.358C484.406 329.61 483.772 336.021 483.157 342.392C483.077 350.306 479.744 357.666 476.193 364.531C472.86 371.041 468.793 377.115 464.746 383.208C461.81 388.392 456.771 392.824 455.898 398.898C455.561 406.911 455.521 415.023 455.382 423.293C455.283 431.128 455.144 438.983 455.144 446.818C455.144 448.974 455.323 452.101 458.616 452.081C470.261 452.417 482.284 452.219 494.068 452.358C506.11 452.101 518.767 453.426 530.432 450.795L530.631 450.597ZM410.051 352.541C385.629 354.025 361.268 352.957 336.747 353.847C334.148 353.867 333.513 355.944 333.811 358.16C334.763 373.336 334.029 388.669 334.981 404.042C335.041 404.695 335.12 405.308 335.279 405.823C335.814 408.118 338.691 407.564 339.128 409.82C339.762 418.604 336.568 427.508 337.679 436.312C337.937 438.488 338.314 440.764 338.036 442.94C338.215 445.829 333.731 451.21 338.731 451.388C358.173 451.467 377.714 451.388 397.374 451.428C398.663 451.467 400.31 451.289 401.064 450.3C402.592 447.075 401.58 442.861 401.877 439.319C401.798 432.335 403.187 425.193 405.567 418.664C405.706 418.307 405.825 417.951 405.924 417.615C406.857 415.082 404.556 413.994 404.794 411.521C411.499 380.933 421.696 350.424 420.724 318.748C420.665 317.225 420.784 315.127 419.95 313.98C419.236 313.01 417.709 313.01 416.479 313.149C409.495 314 402.373 314.574 395.45 315.82C389.439 317.343 383.606 319.362 377.396 320.41C375.988 320.826 375.016 320.905 374.083 322.23C373.111 324.09 373.706 327.77 373.449 330.461C373.25 336.832 372.853 343.025 371.683 345.795C370.731 346.982 370.869 341.976 370.949 339.958C371.068 334.537 371.961 328.918 371.643 323.615C371.266 321.795 369.243 321.973 367.715 322.27C359.065 323.833 350.098 325.475 341.647 328.146C338.929 328.819 335.338 328.186 332.997 330.125C332.184 330.896 331.926 332.004 331.946 333.112C332.263 338.177 332.759 343.302 333.156 348.307C333.216 350.899 334.505 352.343 337.223 351.948C358.391 350.899 403.802 350.484 410.21 352.502H410.071L410.051 352.541ZM594.968 360.99C594.611 360.574 593.956 360.356 593.103 360.277C574.534 359.189 556.004 358.16 537.515 357.112C535.313 356.855 533.408 357.587 533.448 360.079C532.833 386.255 534.717 412.451 533.686 438.765C533.686 439.774 533.884 440.605 534.42 441.1C535.888 442.287 538.169 441.595 539.935 441.634C545.41 441.654 551.362 440.051 556.976 440.605C560.111 441.753 563.186 441.713 566.618 441.654C569.395 441.357 572.867 442.485 575.01 440.427C575.625 439.675 575.942 438.469 576.141 437.459C577.886 428.695 579.652 420.088 581.279 411.442C583.501 394.941 590.782 379.489 595.067 363.542C595.325 362.553 595.424 361.722 595.106 361.187L594.968 360.99ZM452.486 451.388C452.883 450.973 453.002 450.3 453.002 449.469C452.883 445.848 452.466 442.089 452.426 438.449C452.526 426.696 453.458 414.825 453.875 403.132C453.994 400.283 453.041 399.907 451.494 402.341C447.586 408.197 443.618 414.113 439.73 420.009C439.531 420.325 439.373 420.642 439.273 420.939C438.718 422.344 439.829 423.452 439.174 423.986C438.52 424.5 436.575 424.856 435.98 426.202C435.643 426.795 435.444 427.547 435.286 428.338C434.294 433.344 432.925 438.231 431.12 442.881C430.029 445.769 428.58 451.824 433.223 451.982C438.678 452.041 444.213 451.982 449.808 452.002C450.641 452.002 451.673 451.962 452.288 451.507L452.466 451.349L452.486 451.388ZM316.749 453.525C316.015 454.02 314.647 453.505 313.714 453.367C310.163 452.239 307.842 455.306 305.759 457.68C305.64 457.779 305.382 457.997 305.263 458.095C304.37 458.748 303.854 458.056 303.081 457.937C302.505 457.838 301.93 458.768 301.791 459.342C301.474 460.45 302.327 461.024 303.676 461.043C306.334 460.925 308.973 461.281 311.274 462.705C312.96 463.833 314.964 464.229 316.531 462.705C322.602 457.502 328.177 451.665 333.196 445.116C335.973 441.515 337.203 435.679 334.862 431.682C333.969 430.772 331.609 431.148 330.339 431.939C328.792 433.047 328.911 435.224 328.395 436.886C327.522 440.882 323.753 443.712 320.856 446.679C319.269 448.401 316.769 449.885 316.888 451.705C316.888 452.219 317.107 452.912 316.869 453.387L316.749 453.525ZM302.426 477.663C306.076 475.269 310.838 472.519 314.071 469.63C312.94 463.794 305.759 460.588 300.482 463.655C297.724 465.436 296.653 471.668 298.081 474.517C299.053 475.882 300.66 477.149 302.148 477.683H302.406L302.426 477.663ZM309.032 435.243C309.488 438.231 311.016 440.506 313.932 439.576C314.567 439.438 315.262 439.26 315.896 439.082C318.674 438.35 321.471 437.558 324.328 436.787C325.796 436.53 326.272 435.738 326.808 434.472C327.066 433.839 327.899 432.79 326.867 432.691C320.995 433.463 314.964 434.076 309.151 435.085L309.032 435.263V435.243ZM331.728 452.615C330.537 451.507 328.077 453.466 327.284 454.495C323.415 458.175 319.269 461.696 315.381 465.357C314.924 465.97 314.885 466.544 315.222 467.315C315.42 468.047 315.857 468.958 316.69 468.404C321.471 463.279 328.415 459.263 331.767 452.833V452.595L331.728 452.615ZM321.174 444.424C317.424 442.01 312.147 440.447 309.786 445.314C313.397 445.334 317.484 444.721 321.174 444.523V444.424ZM307.524 449.904C309.846 450.162 312.504 450.795 314.785 450.874C315.639 450.043 316.611 448.638 317.265 447.51C315.658 447.332 313.377 447.728 311.671 447.787C310.798 447.886 309.687 447.906 309.072 448.143C308.576 448.401 307.882 449.41 307.485 449.786L307.524 449.924V449.904ZM322.82 442.564C325.141 439.576 327.343 437.915 321.65 439.418C320.36 439.735 318.932 439.913 317.642 440.348C319.19 441.238 321.054 441.872 322.642 442.604L322.82 442.544V442.564ZM335.199 445.532C333.394 447.372 331.271 449.509 330.18 451.942C333.414 452.318 334.227 448.143 335.239 445.552H335.199V445.532ZM178.553 320.252C178.831 320.212 179.108 320.173 179.366 320.133C178.831 318.471 180.061 316.572 178.156 315.048C178.275 316.789 178.414 318.511 178.533 320.252H178.553ZM305.799 454.158C306.453 453.584 307.108 453.011 308.159 452.081C306.136 451.883 305.997 453.05 305.799 454.158Z" fill="#00683D"/>
<path d="M486.073 173.999C488.017 189.787 493.155 204.903 494.643 220.85C495.615 234.383 494.881 250.033 485.756 260.757C484.526 261.766 485.894 263.072 484.645 263.725C477.284 265.941 469.091 264.556 461.473 263.725C457.148 263.665 450.443 259.787 448.36 265.228C438.639 291.938 442.626 284.38 415.765 284.183C394.458 279.553 372.02 280.681 349.999 278.643C348.551 278.682 345.952 278.306 345.139 277.851C344.583 277.198 347.956 277.08 348.69 277.159C377.516 277.614 406.361 281.432 435.147 283.352C437.667 283.53 439.392 282.343 440.127 280.028C440.523 275.536 449.332 263.092 444.352 260.5C441.019 259.135 437.23 258.402 433.778 257.235C431.278 256.384 428.997 255.474 427.628 256.919C426.477 258.007 426.041 259.807 424.99 260.935C422.986 263.23 419.693 262.261 417.014 262.241C408.781 261.37 399.735 262.894 391.78 260.46C388.903 257.987 389.478 253.239 388.903 249.737C388.883 236.5 385.59 222.393 387.792 209.375C389.161 206.882 392.335 206.545 394.954 206.506C406.738 206.387 418.602 205.991 430.287 206.17C439.214 206.822 430.267 223.541 433.084 226.707C445.265 225.915 458.021 223.145 470.162 221.879C474.17 221.384 478.633 221.186 482.323 223.027C485.835 224.827 490.378 229.041 490.239 233.117C489.961 233.631 488.791 231.772 488.414 231.198C485.676 226.687 480.796 222.928 475.4 223.027C464.965 223.976 454.291 225.519 444.094 227.063C440.127 227.597 442.19 231.02 443.598 233.058C446.832 238.34 449.113 246.887 445.384 252.388C444.293 253.555 444.67 249.519 443.241 249.578C441.396 249.024 439.194 249.756 437.27 249.915C434.631 250.409 431.497 250.192 430.485 252.229C430.544 256.998 443.638 257.393 447.348 258.422C457.882 260.816 469.27 264.041 479.982 262.142C497.897 245.938 493.79 215.409 486.351 194.793C485.498 182.981 484.347 171.031 478.376 160.505C466.81 139.632 433.104 144.262 414.852 133.024C411.579 123.269 416.915 112.407 417.59 102.317C417.352 100.437 415.705 103.029 415.05 103.583C407.67 112.111 398.743 117.789 387.316 118.699C385.987 118.778 384.062 119.174 383.308 119.906C381.225 123.21 379.976 129.818 370.155 131.757C355.693 134.606 341.667 139.612 327.82 144.776C319.606 147.388 313.298 153.897 311.79 162.484C306.295 184.267 303.835 206.822 306.017 229.219C308.735 252.724 320.678 272.43 342.679 249.321C349.602 242.317 358.212 236.56 363.807 228.744C365.632 219.307 363.41 209.197 363.648 199.581C363.906 195.05 361.03 194.892 357.478 196.297C343.81 201.342 328.256 203.281 316.67 212.639C315.5 213.589 314.329 214.934 313.198 215.686C311.968 216.517 312.484 215.172 312.921 214.558C322.8 202.153 341.012 199.957 355.157 194.912C365.95 190.816 377.853 190.836 388.665 186.899C394.795 185.257 391.819 189.748 396.779 191.014C404.06 193.289 405.171 199.324 396.362 198.117C394.656 198.295 394.656 200.511 396.303 200.867C404.437 201.678 399.437 203.004 394.815 202.489C390.907 202.232 388.288 206.565 385.094 208.227C375.333 212.006 389.399 202.074 390.927 200.392C393.387 197.543 395.41 195.624 398.941 195.406C401.163 194.338 396.62 192.676 395.47 192.32C393.803 191.489 390.411 192.181 389.935 190.124C390.411 188.462 390.232 188.026 387.594 188.679C381.186 189.965 378.765 192.755 379.242 199.68C378.924 205.378 379.162 211.195 378.488 216.794C377.873 220.138 374.579 221.424 372.298 223.64C364.839 231.435 357.26 239.29 349.186 246.373C337.878 254.604 340.675 259.214 340.834 271.678C341.211 276.941 339.247 277.1 338.731 272.648C337.779 267.979 338.651 262.538 337.461 258.185C336.529 257.433 334.842 258.501 333.811 258.917C327.74 262.162 320.36 263.448 315.321 258.244C298.28 245.245 303.299 198.532 305.997 178.866C308.259 150.712 318.555 143.648 344.663 136.822C351.686 134.606 358.808 132.747 365.969 131.005C370.651 129.878 375.869 129.086 378.031 124.773C379.936 121.608 381.523 118.897 377.654 117.512C362.319 111.121 368.687 90.9404 370.314 78.1988C371.068 75.3299 368.826 68.9986 365.672 72.837C363.113 77.2886 362.279 84.3322 365.057 88.6256C367.715 91.8506 364.7 91.6923 363.013 89.5159C359.899 83.9365 360.494 71.7488 367.259 69.5526C369.798 69.9088 371.802 70.9574 373.746 68.1874C374.996 65.6549 381.344 61.2428 381.384 59.7392C380.333 59.1852 377.773 60.8076 377.694 59.0071L377.754 58.8488C379.242 56.5735 382.574 56.257 385.392 55.7228C387.237 55.5051 388.724 54.8126 385.987 53.6255C384.856 52.933 383.388 52.7748 383.884 52.0229C387.732 50.1433 392.395 54.041 396.104 55.3073C404.675 56.5933 413.305 58.4531 421.557 60.9461C427.926 61.9947 426.755 66.0111 426.894 70.7002C427.45 72.6985 429.89 72.9359 431.358 74.2615C435.464 77.7437 433.857 84.1145 429.989 87.1219C428.184 88.6849 425.208 90.0105 425.367 88.9619C426.914 86.6866 429.89 85.2225 431.08 82.5911C433.044 79.742 430.663 74.1428 427.132 75.3101C425.545 75.9037 424.851 78.0603 424.533 79.742C421.518 96.2627 417.53 112.862 415.765 129.363C415.665 131.935 417.689 133.182 419.931 133.756C432.211 137.297 444.967 140.067 457.228 143.846C462.683 145.825 468.516 147.427 473.416 150.593C473.416 150.593 484.347 159.457 486.152 173.939L486.073 173.999ZM392.732 71.175C393.367 71.3135 392.97 72.6193 392.831 73.2525C390.768 79.3265 388.387 85.5984 386.701 92.1473C386.562 92.8002 386.364 93.7697 386.82 94.1456C387.99 94.5809 389.577 93.097 390.748 92.642C404.238 87.6165 414.197 98.7358 421.28 79.8211C422.569 77.2095 423.264 74.9342 420.288 74.5187C416.995 74.1824 409.634 72.3819 406.917 72.738C406.917 72.9161 407.095 73.0546 407.214 73.1733C407.69 73.7273 413.88 76.5368 410.964 76.5368C408.881 76.4774 406.222 74.3209 404 75.2508C402.929 75.6267 400.608 76.4774 400.886 74.5187C401.104 73.4107 401.699 72.2632 401.243 71.1157C400.965 70.2451 400.171 69.2756 399.497 68.2864C398.128 66.3276 397.275 64.0523 396.6 61.7572C395.906 58.7895 392.871 58.9873 390.45 59.4819C383.666 60.4316 378.587 64.4283 374.956 70.1462C372.576 73.1337 373.171 76.3983 373.707 80.019C373.766 83.2242 373.964 87.3197 376.325 89.1796C378.349 90.7228 382.832 92.5628 384.876 90.0897C387.058 85.3808 388.308 79.8409 390.351 74.7957C390.867 73.6086 391.462 71.8279 392.573 71.1948H392.712L392.732 71.175ZM393.882 208.821C392.712 212.461 393.902 216.972 393.585 220.87C393.625 231.435 393.486 242.218 393.585 252.764C393.565 258.561 394.279 259.194 400.33 258.917C402.532 259.036 404 258.145 404.08 255.771C404.199 250.192 405.568 244.493 404.873 239.092C403.941 236.975 398.783 237.292 401.362 234.007C403.365 232.187 404.774 230.03 404.595 227.241C404.695 221.74 404.972 216.201 404.992 210.76C404.933 207.238 400.985 208.247 398.009 208.089C396.719 208.168 395.112 207.812 394.081 208.662L393.902 208.841L393.882 208.821ZM426.279 227.993C428.184 221.82 428.918 215.469 430.267 209.216C430.564 207.198 428.184 207.752 426.775 207.673C424.077 207.93 420.843 207.099 418.482 208.108C416.995 211.492 417.372 215.607 416.518 219.089C415.923 222.275 415.229 225.579 415.011 228.626C415.11 232.701 424.137 229.279 426.101 228.21L426.299 227.993H426.279ZM413.027 232.899C410.904 231.772 408.821 231.91 406.48 232.583C404.893 233.058 402.433 233.908 402.016 235.689C402.076 235.847 402.274 235.946 402.572 235.986C406.262 235.966 410.091 235.61 413.84 235.491C414.495 235.491 415.031 235.63 414.971 236.322C414.058 239.191 412.015 244.533 413.503 247.362C413.721 247.54 414.019 247.62 414.356 247.62C417.768 247.224 420.883 246.907 424.355 247.026C425.148 246.986 425.724 246.709 425.684 245.859C425.327 243.801 424.93 241.486 424.593 239.369C424.057 237.153 423.879 234.245 422.073 232.642C420.347 231.969 417.748 231.969 415.784 232.227C414.892 232.424 414.197 232.919 413.324 232.939L413.007 232.899H413.027ZM429.314 246.254C428.62 247.481 429.691 248.609 431.14 248.332C431.636 248.272 432.231 248.174 432.747 248.094C436.357 247.54 439.948 247.006 443.559 246.432C444.094 246.294 444.749 246.116 445.086 245.681C446.019 244.375 445.404 242.515 445.205 240.972C444.67 239.092 444.233 235.768 441.634 236.006C437.468 236.718 433.262 237.608 429.017 238.4C428.501 238.538 427.787 238.677 427.469 239.092C426.616 240.319 427.668 242.97 429.076 243.267C432.687 243.603 436.456 241.783 440.127 242.04C441.634 242.099 442.606 242.456 441.357 243.01C437.766 244.672 433.044 244.197 429.533 245.997L429.354 246.215L429.314 246.254ZM420.466 259.787C421.518 256.681 422.252 252.704 423.045 249.46C423.006 248.253 421.478 248.451 420.387 248.371C417.967 248.411 415.348 248.826 413.106 249.598C412.828 249.776 412.65 250.053 412.551 250.389C412.313 253.377 411.479 256.028 410.15 258.699C409.972 259.867 411.539 259.451 412.59 259.629C415.15 259.689 417.748 260.104 420.268 259.946L420.466 259.787ZM376.543 201.362C376.841 200.808 376.623 199.779 376.603 198.908C376.603 198.117 376.464 197.484 375.909 197.405C372.933 197.84 369.521 199.225 366.525 200.036C365.335 200.452 365.374 201.52 365.473 202.727C365.712 205.22 365.454 207.871 366.029 210.344C366.168 210.582 366.406 210.661 366.723 210.621C368.231 210.186 369.957 209.236 371.465 208.623C373.369 207.436 377.238 207.317 376.662 204.329C376.365 202.628 374.698 203.874 373.528 204.191C371.346 204.903 369.203 205.991 366.981 206.447C366.604 206.367 366.366 206.189 366.703 205.734C369.183 203.281 373.369 203.083 376.385 201.599L376.543 201.382V201.362ZM376.107 213.233C373.092 214.855 369.402 216.636 366.644 218.595C366.247 219.663 366.565 221.107 366.465 222.314C366.565 223.6 366.227 225.144 366.644 226.489C368.866 225.242 370.612 222.552 372.615 220.89C375.373 219.129 377.377 216.794 376.266 213.332L376.087 213.233H376.107ZM384.836 100.991C385.947 104.276 389.935 103.86 392.712 103.207C395.866 102.495 400.231 101.743 400.35 97.7268C400.013 97.3508 398.922 97.7466 398.227 97.8059C393.823 98.6171 389.26 99.9625 384.915 100.813L384.836 100.991ZM425.128 234.878C425.505 235.432 426.478 236.916 427.152 237.212C429.493 237.133 432.092 236.243 434.473 235.887C436.853 235.353 439.432 234.997 441.714 234.344C442.368 233.592 441.555 232.405 440.88 232.147C435.524 232.227 430.465 233.691 425.148 234.7L425.109 234.858L425.128 234.878ZM439.829 230.129C439.75 229.14 438.956 227.597 437.647 227.775C432.965 228.586 428.58 229.773 423.898 230.782C422.946 231.02 423.502 231.87 423.76 232.424C423.898 232.761 424.037 233.038 424.315 233.137C429.275 232.583 434.79 231.277 439.73 230.307L439.829 230.129ZM376.305 207.891C373.191 209.098 369.362 210.463 366.485 212.065C366.128 212.699 366.366 213.668 366.307 214.539C366.366 215.132 366.128 216.379 366.505 216.774C368.37 216.339 370.969 214.143 372.893 213.292C374.956 212.303 377.714 210.898 376.524 208.01L376.345 207.871L376.305 207.891ZM365.235 198.71C367.001 199.443 369.223 197.978 371.167 197.721C372.933 197.068 375.095 197.068 376.623 195.861C377.119 195.11 376.722 193.25 375.353 194.021C372.238 195.209 368.628 195.703 365.811 197.405C365.573 197.741 365.176 198.295 365.156 198.552L365.235 198.73V198.71ZM365.652 195.604C369.402 194.556 373.607 193.586 377.198 192.003C377.516 191.746 377.555 191.212 377.297 190.856C376.96 190.381 376.305 190.638 375.75 190.816C374.322 191.251 372.853 191.707 371.405 192.142C369.937 192.933 364.283 193.21 365.454 195.466L365.652 195.584V195.604Z" fill="#00683D"/>
<path d="M296.573 449.943C297.923 451.427 295.165 451.447 294.054 451.526C213.013 451.961 131.793 451.783 50.6726 452.021" fill="#00683D"/>
<path d="M417.133 200.648C417.808 199.758 415.566 197.443 413.84 196.533C412.61 195.88 411.162 195.821 409.952 195.148C407.968 193.902 406.658 190.855 404.06 190.855C403.008 190.776 402.433 190.617 402.869 190.162C406.539 187.214 409.495 193.803 412.689 194.654C415.883 196.038 418.621 198.492 422.351 196.988C424.811 196.395 427.271 198.432 429.731 199.204C431.378 199.758 432.687 199.046 431.735 196.949C430.862 195.148 429.652 193.367 427.826 192.576C426.834 192.2 425.783 191.923 425.446 191.488C425.049 190.993 425.684 190.538 426.18 190.4C428.461 189.628 430.564 192.022 431.933 193.704C433.322 195.306 434.909 196.751 434.71 198.848C434.691 200.609 433.242 202.469 431.457 202.429C428.144 202.152 425.208 197.166 421.795 199.817C419.851 201.578 417.748 204.427 414.772 203.418C413.84 203.122 413.364 202.568 413.701 202.113C414.594 201.163 415.903 201.657 416.975 200.826L417.113 200.668L417.133 200.648Z" fill="#00683D"/>
<path d="M451.831 191.312C451.097 190.066 450.919 187.929 451.216 186.485C454.291 170.933 461.394 163.593 464.707 159.24C465.242 158.587 466.472 158.014 466.909 158.212C467.186 158.33 467.087 158.706 466.71 159.201C465.857 160.21 465.024 161.14 464.27 162.228C457.584 170.795 455.918 181.677 451.95 191.332H451.851L451.831 191.312Z" fill="#00683D"/>
<path d="M377.734 303.098C372.814 301.852 367.675 299.339 362.696 298.172C362.279 298.033 361.367 297.934 361.367 297.697C368.271 297.519 394.279 303.989 400.985 307.629C400.985 307.629 380.253 304.107 377.734 303.098Z" fill="#00683D"/>
<path d="M447.03 155.124C446.872 164.562 447.883 174.138 449.213 183.437C446.038 177.976 444.451 160.565 446.971 155.045L447.01 155.124H447.03Z" fill="#00683D"/>
<path d="M419.97 192.48C419.038 190.264 416.816 187.771 414.058 188.147C412.531 188.443 412.213 190.026 411.579 191.273C411.479 191.352 411.281 191.49 411.182 191.569C410.349 191.075 410.17 189.116 410.765 188.245C412.61 185.238 416.28 185.832 418.681 187.949C419.177 188.325 419.693 188.938 420.169 189.136C420.923 189.492 421.577 188.78 422.232 188.542C423.085 188.048 424.494 188.799 423.283 189.65C422.331 190.481 421.101 191.827 420.149 192.519H419.97V192.48Z" fill="#00683D"/>
<path d="M341.469 174.949C342.242 179.44 342.46 184.446 342.024 189.036C341.687 190.52 342.084 192.617 340.992 193.666C340.675 193.666 340.556 193.112 340.635 192.578C340.893 186.781 341.131 180.687 341.429 174.949H341.469Z" fill="#00683D"/>
<path d="M408.127 202.451C407.631 201.541 407.075 199.918 406.42 199.226C406.024 198.929 405.567 199.246 404.238 199.622C402.77 198.909 405.19 197.089 406.5 197.406C408.484 197.762 409.991 200.967 408.305 202.451H408.146H408.127Z" fill="#00683D"/>
<path d="M426.18 79.584H428.898C427.608 80.5732 426.973 81.0679 426.18 79.584Z" fill="#00683D"/>
<path d="M407.293 427.269C407.651 427.744 408.047 429.287 408.047 430.157C408.047 438.685 408.861 447.43 408.206 455.878C407.869 457.125 407.194 456.689 406.976 455.542C405.786 445.353 405.429 430.316 407.194 427.17L407.293 427.249V427.269Z" fill="#00683D"/>
<path d="M426.815 433.54C422.589 429.88 417.054 428.376 411.638 427.545C411.876 425.963 414.554 426.002 416.003 426.042C420.268 427.07 424.295 429.445 428.243 431.285C429.235 431.72 430.802 433.362 430.366 434.312C429.87 434.727 427.588 433.758 426.993 433.659L426.795 433.56L426.815 433.54Z" fill="#00683D"/>
<path d="M385.332 70.78C388.288 71.4922 386.324 76.4385 383.527 74.8359C382.059 73.5499 383.209 70.7206 385.094 70.7602H385.332V70.78Z" fill="#00683D"/>
<path d="M389.478 67.0593C388.288 67.2572 387.098 67.455 385.907 67.6727C386.76 65.9316 387.931 65.7535 389.3 66.2877C389.359 66.5449 389.419 66.8021 389.478 67.0593Z" fill="#00683D"/>
<path d="M366.148 81.8194C365.295 79.643 365.255 78.1789 366.029 76.2598C367.239 78.1196 367.041 79.5837 366.148 81.8194Z" fill="#00683D"/>
<path d="M113.403 443.217C176.034 443.217 226.801 447.807 226.801 453.466C226.801 459.124 176.034 463.715 113.403 463.715C50.7719 463.715 0.0244141 459.124 0.0244141 453.466C0.0244141 447.807 50.7917 443.217 113.403 443.217Z" fill="#00683D"/>
<path d="M90.0721 290.911C90.0721 290.911 8.17794 274.331 9.09052 272.274C9.98326 270.216 90.5284 282.265 90.5284 282.265L90.0721 290.911Z" fill="#00683D"/>
<path d="M90.9452 282.284L90.4889 290.93V290.989C90.4294 291.226 90.2111 291.365 89.9731 291.325C83.2081 290.039 76.4232 288.734 69.6781 287.349C62.9131 286.003 56.1679 284.559 49.4426 283.134C42.6974 281.69 35.9721 280.186 29.2468 278.623C25.894 277.852 22.5214 277.04 19.1885 276.209C17.5221 275.794 15.8358 275.359 14.1693 274.884C13.3361 274.646 12.5029 274.409 11.6697 274.152C10.8364 273.875 10.0231 273.637 9.13031 273.202C9.01128 273.143 8.91208 273.083 8.73353 272.945C8.69386 272.925 8.65418 272.866 8.59466 272.806C8.55499 272.767 8.55499 272.767 8.51531 272.688C8.45579 272.589 8.41611 272.47 8.41611 272.351C8.41611 272.193 8.41611 272.233 8.41611 272.213C8.37644 272.351 8.47563 271.975 8.51531 271.936C8.55499 271.877 8.6145 271.797 8.67402 271.738C8.7137 271.698 8.75337 271.679 8.79305 271.659C9.07079 271.501 9.18982 271.501 9.34853 271.461C9.4874 271.441 9.60644 271.421 9.72547 271.421C10.2016 271.382 10.6381 271.382 11.0943 271.402C11.9672 271.402 12.8401 271.481 13.7131 271.52C15.439 271.639 17.165 271.797 18.891 271.975C22.3231 272.332 25.7552 272.727 29.1674 273.143C36.0118 273.974 42.8561 274.904 49.6806 275.834C63.3495 277.693 76.9787 279.751 90.6079 281.828C90.8261 281.868 90.9848 282.046 90.965 282.264L90.9452 282.284ZM49.5021 277.001C42.6776 276.091 35.8332 275.2 29.0087 274.369C25.5964 273.954 22.1643 273.578 18.7521 273.242C17.046 273.083 15.32 272.925 13.6139 272.806C12.7608 272.747 11.9077 272.708 11.0745 272.688C10.6579 272.688 10.2413 272.688 9.8445 272.707C9.74531 272.707 9.66595 272.708 9.5866 272.747C9.52708 272.747 9.42789 272.806 9.52708 272.747C9.52708 272.747 9.54692 272.747 9.56676 272.707C9.60644 272.668 9.64612 272.628 9.66595 272.589C9.68579 272.549 9.78499 272.213 9.74531 272.371C9.74531 272.371 9.74531 272.431 9.74531 272.312C9.74531 272.213 9.72547 272.134 9.68579 272.055L9.64611 271.995C9.64611 271.995 9.60644 271.956 9.62628 271.975C9.62628 271.975 9.70563 272.035 9.78499 272.074C10.4397 272.411 11.2927 272.668 12.0863 272.925C12.8997 273.182 13.7329 273.4 14.5463 273.637C16.1929 274.092 17.8593 274.508 19.5258 274.923C22.8587 275.754 26.2114 276.526 29.5642 277.298C36.2697 278.841 43.0148 280.285 49.7402 281.749L90.1516 290.494L89.6358 290.89L90.0723 282.62C76.5621 280.661 63.0321 278.841 49.5021 277.001Z" fill="#00683D"/>
<path d="M34.9603 279.217C35.1388 277.674 35.1586 276.091 35.0198 274.508C20.8351 272.708 9.42784 271.521 9.09058 272.292C8.75332 273.084 20.3986 275.952 34.9603 279.237V279.217Z" fill="white" stroke="#00683D" stroke-width="0.92" stroke-linecap="round" stroke-linejoin="round"/>
<path d="M90.0525 280.604C83.1288 296.59 94.6948 363.227 82.6328 383.783C70.5907 404.34 66.5635 402.54 65.9088 406.062C65.2541 409.564 54.6999 447.907 67.357 449.708C78.6254 451.31 85.2714 449.272 85.2714 449.272C85.4698 439.34 75.0941 438.529 75.0941 438.529C68.3688 433.009 71.4041 405.448 71.4041 405.448C127.21 357.489 110.843 332.085 122.747 314.337L90.0525 280.604Z" fill="white"/>
<path d="M89.7549 280.9L90.4493 280.781C89.0606 284.541 88.7828 288.676 88.5448 292.732C88.3464 296.807 88.3861 300.903 88.4654 304.998C88.6043 313.19 88.9812 321.381 89.259 329.591C89.5566 337.802 89.6756 346.033 89.4375 354.264C89.2986 358.379 89.0407 362.514 88.5646 366.629C88.0687 370.745 87.3941 374.88 86.0848 378.916C85.807 379.925 85.3309 380.934 84.9341 381.943C84.7357 382.477 84.4778 382.873 84.2398 383.348L83.8827 384.021L83.6645 384.416L83.4661 384.753C82.3749 386.513 81.264 388.255 80.0935 389.956C77.7525 393.359 75.2727 396.703 72.4357 399.77C71.047 401.313 69.4798 402.737 67.9522 404.083C67.5951 404.419 67.2182 404.755 66.9801 405.112C66.8214 405.29 66.7817 405.468 66.7024 405.626C66.623 405.824 66.5635 406.16 66.5238 406.299L65.8691 409.326C65.0359 413.342 64.3812 417.378 63.8456 421.415C63.3099 425.451 62.6949 429.467 62.4767 433.503C62.3577 435.521 62.3378 437.52 62.4767 439.498C62.6156 441.477 62.8933 443.436 63.6075 445.177C63.8059 445.592 63.9646 446.047 64.2027 446.403C64.3217 446.581 64.4209 446.799 64.5598 446.957L64.9764 447.452C65.0954 447.63 65.2938 447.729 65.4525 447.867C65.6112 447.986 65.7699 448.164 65.9485 448.224C66.1072 448.303 66.2857 448.402 66.4444 448.501C66.623 448.599 66.9206 448.639 67.1586 448.718L67.5356 448.817H67.6348C67.4562 448.817 67.6149 448.817 67.5951 448.817H67.6348L67.8133 448.857L68.5672 448.956L70.0749 449.153L71.5827 449.351L73.0904 449.45C77.1177 449.747 81.2441 449.707 85.1722 448.916L84.8746 449.312C84.8151 448.975 84.7357 448.659 84.6762 448.322C84.5969 448.006 84.5969 447.67 84.4778 447.373C84.3786 447.056 84.2795 446.759 84.2001 446.463C84.1406 446.146 83.9422 445.889 83.843 445.592C83.724 445.315 83.6248 445.018 83.4264 444.761C83.2677 444.504 83.109 444.247 82.9503 443.99L82.3749 443.277C82.1964 443.04 81.9385 442.842 81.7401 442.624C81.5417 442.407 81.3036 442.209 81.0457 442.031C80.8077 441.833 80.5498 441.655 80.2919 441.497C80.034 441.338 79.7761 441.14 79.4983 441.002C79.2206 440.863 78.9627 440.666 78.6651 440.547C78.3675 440.428 78.1096 440.25 77.812 440.131C77.5145 439.993 77.2169 439.854 76.9193 439.736C76.3241 439.479 75.6893 439.241 75.0743 439.004L74.8362 438.905C74.2212 438.45 73.6657 437.876 73.2491 437.263C73.0309 436.966 72.8325 436.629 72.6738 436.293C72.4953 435.957 72.3365 435.62 72.1778 435.284C71.8604 434.611 71.6422 433.919 71.424 433.207C71.2057 432.514 71.0669 431.802 70.9082 431.09C70.3725 428.241 70.1543 425.372 70.0551 422.523C69.9559 419.674 70.0551 416.805 70.194 413.975C70.2733 412.551 70.3725 411.126 70.5114 409.722C70.6503 408.297 70.7891 406.892 70.9875 405.468C70.9875 405.349 71.047 405.25 71.1264 405.191C72.7135 403.608 74.3403 402.084 75.967 400.541L80.7085 395.813C82.2361 394.19 83.843 392.627 85.3309 390.985C86.8188 389.343 88.3662 387.74 89.8145 386.039C91.3024 384.377 92.7109 382.675 94.1195 380.954C94.8336 380.103 95.5082 379.213 96.1827 378.342C96.8572 377.452 97.5516 376.601 98.1864 375.691L100.131 373L101.976 370.25C102.61 369.34 103.166 368.39 103.741 367.441L104.614 366.036L105.428 364.591C105.963 363.622 106.519 362.672 106.995 361.683C107.491 360.694 108.007 359.724 108.443 358.715C108.899 357.706 109.375 356.717 109.772 355.688C110.189 354.659 110.625 353.65 110.982 352.602C111.379 351.573 111.736 350.524 112.073 349.476C112.431 348.427 112.748 347.378 113.065 346.31C113.68 344.193 114.216 342.036 114.672 339.86C115.625 335.527 116.259 331.095 117.271 326.703C117.767 324.507 118.362 322.31 119.176 320.174C119.93 318.156 120.981 316.177 122.171 314.436L89.7153 280.94L89.7549 280.9ZM123.104 314.555C121.913 316.494 121.06 318.433 120.346 320.53C119.652 322.607 119.156 324.764 118.759 326.94C117.985 331.313 117.43 335.745 116.577 340.177C116.16 342.392 115.684 344.608 115.109 346.785C114.811 347.873 114.533 348.981 114.196 350.049L113.7 351.672L113.125 353.274C112.768 354.343 112.331 355.391 111.915 356.46C111.518 357.528 111.022 358.557 110.566 359.586C110.109 360.634 109.594 361.643 109.098 362.653C108.602 363.681 108.066 364.671 107.511 365.66L106.697 367.144L105.824 368.608C105.229 369.577 104.674 370.567 104.039 371.497L102.174 374.326L100.21 377.096C99.5751 378.026 98.8411 378.896 98.1467 379.787C97.4524 380.677 96.758 381.567 96.024 382.418L93.8417 385.01C93.1077 385.861 92.3141 386.672 91.5603 387.523C90.0525 389.204 88.4654 390.807 86.8783 392.39C85.2912 393.992 83.6248 395.516 81.998 397.059C80.3316 398.563 78.6254 400.047 76.9193 401.511C75.1735 402.935 73.4475 404.36 71.6819 405.745L71.8207 405.468C71.6224 408.277 71.5232 411.107 71.4438 413.936C71.3843 416.765 71.4041 419.575 71.5232 422.384C71.5827 423.789 71.662 425.194 71.8207 426.579C71.9001 427.271 71.9795 427.964 72.0786 428.656C72.1778 429.348 72.2969 430.021 72.4159 430.714C72.5548 431.386 72.6936 432.079 72.8524 432.732C72.9317 433.068 73.0309 433.404 73.1301 433.721C73.2293 434.057 73.3086 434.374 73.4277 434.69C73.5269 435.007 73.6459 435.324 73.7848 435.64C73.9038 435.957 74.0625 436.254 74.2212 436.55C74.5188 437.164 74.9156 437.658 75.352 438.153L75.114 438.054C75.8678 437.955 76.582 437.995 77.2962 438.094C78.0104 438.192 78.7246 438.371 79.419 438.628C79.7761 438.746 80.0935 438.905 80.4307 439.063C80.768 439.221 81.0854 439.419 81.4028 439.617C81.7401 439.795 82.0178 440.032 82.3154 440.27C82.613 440.507 82.9106 440.745 83.1487 441.022C83.4066 441.299 83.7041 441.556 83.9025 441.873L84.5572 442.802C84.7357 443.139 84.8945 443.475 85.0532 443.831C85.2317 444.168 85.3111 444.544 85.4301 444.9C85.5095 445.256 85.6682 445.612 85.688 445.988C85.7277 446.344 85.7674 446.72 85.807 447.076C85.8666 447.432 85.807 447.808 85.7872 448.164C85.7674 448.52 85.7277 448.876 85.688 449.233C85.688 449.411 85.5888 449.569 85.4301 449.628H85.3904C83.347 450.261 81.3036 450.618 79.2206 450.796C78.189 450.934 77.1375 450.954 76.1059 451.013C75.0545 451.092 74.0228 451.053 72.9714 451.013L71.4041 450.974L69.8369 450.835L68.2696 450.697L67.4959 450.618H67.2975L67.2578 450.598C67.1983 450.598 67.3174 450.598 67.119 450.578H67.0198L66.6428 450.479C66.3849 450.42 66.1667 450.4 65.8691 450.281C65.5715 450.163 65.274 450.024 64.9764 449.886C64.659 449.767 64.4606 449.549 64.2027 449.391C63.9646 449.213 63.6869 449.035 63.5083 448.817L62.8933 448.164C62.6949 447.947 62.5561 447.689 62.3974 447.452C62.0403 446.977 61.822 446.463 61.584 445.948C60.6912 443.891 60.354 441.734 60.1556 439.637C59.9572 437.52 59.977 435.423 60.0762 433.345C60.2548 429.17 60.7904 425.055 61.6236 420.999C62.4767 416.943 63.548 412.966 64.5994 408.99C64.8574 408 65.1153 406.991 65.3335 406.022C65.4128 405.685 65.4525 405.507 65.5517 405.23C65.6906 404.934 65.8294 404.617 66.008 404.399C66.3453 403.905 66.742 403.529 67.1388 403.173C67.9125 402.46 68.6664 401.807 69.3806 401.095C70.0948 400.383 70.7693 399.631 71.424 398.859C74.0427 395.753 76.2448 392.311 78.3675 388.848C80.3911 385.326 82.732 381.824 83.7636 378.144C84.9936 374.365 85.7078 370.369 86.2237 366.352C86.7196 362.316 86.9974 358.26 87.1759 354.184C87.4933 346.033 87.3545 337.842 87.2553 329.631C87.1362 321.44 86.8783 313.229 86.8982 304.998C86.9378 300.883 87.0172 296.768 87.3148 292.652C87.652 288.557 88.0488 284.382 89.6756 280.445C89.6756 280.445 89.7351 280.326 89.7748 280.287C89.9335 280.128 90.1914 280.128 90.3501 280.287L123.044 314.04C123.183 314.179 123.203 314.396 123.104 314.555Z" fill="#00683D"/>
<path d="M80.9464 443.238C80.629 442.783 79.895 443.218 80.2124 443.673C81.1448 445.018 81.6606 446.779 80.6489 448.204C80.3314 448.659 81.0655 449.074 81.3829 448.639C82.5732 446.957 82.0376 444.82 80.9464 443.257V443.238Z" fill="#00683D"/>
<path d="M73.9434 442.881C73.5268 442.545 72.9118 443.138 73.3483 443.475C74.5584 444.464 76.3042 447.016 74.9155 448.461C74.5386 448.856 75.1338 449.45 75.5107 449.054C77.2565 447.234 75.5504 444.187 73.9434 442.861V442.881Z" fill="#00683D"/>
<path d="M195.654 347.061C201.467 369.082 192.063 419.04 192.162 442.386C192.182 447.748 191.726 450.538 195.813 453.11C199.899 455.682 217.06 455.029 219.004 450.756C220.928 446.482 209.124 441.971 209.124 441.971C187.004 403.212 224.361 327.83 224.361 327.83L195.634 347.061H195.654Z" fill="white"/>
<path d="M195.892 347.418L196.071 346.963L197.062 351.474L197.658 356.044C197.916 359.091 198.134 362.158 198.154 365.225C198.253 368.291 198.134 371.338 198.094 374.405C197.955 377.452 197.876 380.519 197.658 383.566C196.943 395.753 195.614 407.901 194.523 420.03C194.265 423.057 193.968 426.084 193.769 429.131C193.531 432.178 193.353 435.165 193.214 438.192L193.134 442.743C193.134 444.286 193.075 445.81 193.194 447.234C193.313 448.659 193.67 449.925 194.563 450.895C194.781 451.132 195.019 451.389 195.277 451.587L195.654 451.904L196.13 452.22C196.646 452.576 197.241 452.814 197.935 452.992C200.713 453.704 203.788 453.783 206.764 453.724C209.739 453.605 212.775 453.269 215.532 452.339C216.207 452.082 216.862 451.805 217.397 451.429C217.536 451.33 217.675 451.251 217.774 451.132C217.913 451.033 217.992 450.934 218.052 450.855C218.131 450.815 218.23 450.578 218.33 450.44V450.4C218.29 450.519 218.33 450.4 218.33 450.44V450.4L218.389 450.301C218.409 450.242 218.449 450.182 218.449 450.123C218.568 449.628 218.409 449.055 218.072 448.501C217.734 447.947 217.238 447.412 216.703 446.938C214.501 445.038 211.743 443.614 209.005 442.387C209.005 442.387 208.847 442.288 208.787 442.209L206.982 438.905C206.407 437.797 205.97 436.61 205.454 435.462L205.077 434.592C204.958 434.295 204.879 433.998 204.78 433.701L204.185 431.921C203.986 431.327 203.768 430.733 203.609 430.12L203.173 428.3C202.875 427.073 202.558 425.866 202.379 424.62C202.181 423.393 201.903 422.147 201.784 420.9L201.367 417.161L201.169 413.421C201.09 412.175 201.169 410.928 201.129 409.682V407.802L201.229 405.923C201.308 403.43 201.546 400.937 201.764 398.464C202.062 395.991 202.32 393.498 202.756 391.044C203.133 388.571 203.629 386.138 204.105 383.704C204.641 381.27 205.157 378.837 205.792 376.423C206.089 375.216 206.387 374.009 206.724 372.802C207.061 371.595 207.359 370.389 207.716 369.201L208.767 365.62L209.898 362.059C210.672 359.705 211.465 357.35 212.318 355.015C213.152 352.681 214.025 350.346 214.917 348.031C215.81 345.716 216.742 343.402 217.715 341.126C219.46 337.051 221.305 332.995 223.289 329.018L195.872 347.398L195.892 347.418ZM224.559 327.435C224.777 327.534 224.876 327.791 224.777 327.989C222.754 332.5 220.849 337.07 219.083 341.68C218.191 343.995 217.318 346.29 216.485 348.605C215.632 350.92 214.818 353.255 214.044 355.589C213.251 357.924 212.517 360.278 211.803 362.633L210.731 366.174L209.72 369.736C209.362 370.923 209.085 372.11 208.767 373.297C208.45 374.484 208.152 375.671 207.875 376.878C207.279 379.272 206.783 381.686 206.268 384.08C205.811 386.494 205.335 388.908 204.978 391.341C204.581 393.775 204.264 396.208 203.966 398.642C203.728 401.075 203.47 403.529 203.371 405.982L203.272 407.822V409.662C203.252 410.889 203.173 412.116 203.252 413.342L203.351 417.003L203.649 420.663C203.728 421.889 203.966 423.077 204.105 424.303C204.244 425.53 204.502 426.717 204.76 427.904L205.137 429.705C205.256 430.298 205.454 430.872 205.613 431.466L206.109 433.226C206.188 433.523 206.268 433.82 206.367 434.117L206.684 434.967C207.121 436.095 207.498 437.282 207.994 438.39L209.561 441.714L209.343 441.536C210.811 442.051 212.219 442.664 213.608 443.376C214.997 444.088 216.346 444.86 217.596 445.869C218.211 446.384 218.806 446.957 219.302 447.67C219.54 448.026 219.738 448.441 219.897 448.896C220.016 449.351 220.075 449.866 219.956 450.36C219.956 450.479 219.897 450.598 219.857 450.717L219.798 450.895L219.758 450.974C219.758 450.974 219.778 450.934 219.718 451.073V451.112C219.599 451.29 219.56 451.409 219.361 451.646C219.202 451.864 219.024 452.062 218.865 452.2C218.707 452.359 218.528 452.497 218.349 452.616C217.635 453.13 216.901 453.467 216.147 453.763C214.64 454.337 213.092 454.674 211.545 454.931C209.997 455.188 208.45 455.346 206.883 455.425C205.315 455.505 203.768 455.505 202.201 455.425C200.633 455.327 199.066 455.148 197.479 454.713C196.705 454.496 195.852 454.199 195.098 453.684L194.622 453.368L194.107 452.972C193.769 452.695 193.472 452.398 193.174 452.082C192.579 451.449 192.123 450.657 191.825 449.826C191.527 448.995 191.408 448.164 191.329 447.353C191.19 445.731 191.25 444.207 191.25 442.704L191.329 438.113C191.448 435.047 191.607 431.96 191.865 428.933C192.083 425.886 192.4 422.839 192.678 419.812L194.523 401.61L195.396 392.528C195.674 389.501 195.952 386.474 196.17 383.427C196.428 380.4 196.547 377.353 196.745 374.326C196.824 371.299 196.983 368.252 196.924 365.225C196.963 362.178 196.785 359.17 196.606 356.143L196.13 351.632L195.277 347.181V347.161C195.237 347.002 195.317 346.824 195.456 346.725L224.182 327.474C224.301 327.395 224.46 327.376 224.599 327.435H224.559Z" fill="#00683D"/>
<path d="M212.021 445.888C211.624 445.512 211.029 446.105 211.426 446.481C212.676 447.668 213.687 449.469 212.953 451.19C212.735 451.685 213.469 452.12 213.687 451.625C214.6 449.528 213.608 447.371 212.041 445.888H212.021Z" fill="#00683D"/>
<path d="M204.8 446.125C204.264 445.986 204.046 446.798 204.581 446.936C206.664 447.51 207.656 450.775 206.109 452.357C205.732 452.753 206.327 453.347 206.704 452.951C208.688 450.933 207.498 446.857 204.8 446.125Z" fill="#00683D"/>
<path d="M220.988 171.251C220.829 173.368 243.267 173.843 243.743 172.794C244.219 171.726 246.54 160.587 245.846 156.234C245.171 151.881 235.53 122.065 234.518 121.59C232.177 120.502 221.147 169.154 220.988 171.251Z" fill="white"/>
<path d="M234.141 122.361C234.141 122.361 234.22 122.44 234.459 122.44C234.637 122.44 234.796 122.321 234.756 122.341C234.756 122.341 234.756 122.341 234.716 122.401C234.697 122.42 234.657 122.48 234.617 122.539C234.538 122.638 234.459 122.816 234.379 122.994C234.002 123.766 233.546 125.052 233.03 126.694C231.979 129.998 230.729 134.826 229.281 140.643C228.547 143.551 227.753 146.697 226.92 150.041C226.087 153.364 225.214 156.886 224.341 160.546C223.904 162.367 223.468 164.227 223.031 166.106C222.813 167.036 222.595 167.986 222.377 168.935L222.059 170.36L221.92 171.052V171.191L221.881 171.27V171.31C221.881 171.31 221.881 171.31 221.881 171.27C221.881 171.132 221.841 171.033 221.801 170.973C221.801 170.934 221.742 170.894 221.762 170.914C221.762 170.914 221.94 171.033 222.119 171.112C222.297 171.191 222.516 171.25 222.734 171.31C223.17 171.428 223.646 171.527 224.123 171.626C225.075 171.804 226.047 171.943 227.019 172.042C228.983 172.279 230.967 172.418 232.971 172.517C234.954 172.615 236.958 172.675 238.942 172.675C239.934 172.675 240.926 172.655 241.898 172.596C242.374 172.556 242.89 172.516 243.247 172.418C243.287 172.418 243.326 172.398 243.346 172.398C243.386 172.398 243.287 172.418 243.267 172.477C243.247 172.517 243.267 172.517 243.267 172.477C243.267 172.517 243.346 172.358 243.227 172.536L243.326 172.22C243.386 172.002 243.465 171.804 243.525 171.567C244.437 167.788 245.132 163.95 245.429 160.25C245.449 159.795 245.469 159.34 245.489 158.884L245.529 158.212C245.529 157.974 245.509 157.757 245.489 157.519C245.469 157.084 245.449 156.57 245.409 156.174C245.33 155.739 245.231 155.303 245.132 154.868C244.695 153.127 244.199 151.425 243.703 149.783C242.731 146.479 241.7 143.393 240.747 140.544C238.843 134.845 237.117 130.137 235.907 126.872C235.292 125.23 234.776 123.964 234.419 123.133C234.379 123.053 234.359 122.994 234.32 122.935L234.141 122.321V122.361ZM235.054 120.936C235.054 120.936 235.074 120.956 235.113 120.996C235.133 120.996 235.252 121.154 235.391 121.372C235.55 121.629 235.589 121.748 235.669 121.926C235.748 122.104 235.827 122.302 235.927 122.519C236.304 123.41 236.76 124.715 237.335 126.377C238.486 129.701 239.994 134.489 241.739 140.247C242.592 143.135 243.525 146.262 244.517 149.566C244.993 151.228 245.489 152.929 245.925 154.69C246.044 155.125 246.144 155.58 246.223 156.055C246.282 156.589 246.302 156.985 246.342 157.46C246.342 157.697 246.382 157.915 246.382 158.152V158.865C246.342 159.34 246.322 159.834 246.302 160.309C246.044 164.108 245.409 167.946 244.537 171.844C244.497 172.081 244.398 172.358 244.318 172.615L244.199 173.011C244.08 173.229 244.14 173.09 244.12 173.15C244.12 173.15 244.12 173.169 244.06 173.229C243.981 173.308 243.842 173.407 243.822 173.407C243.723 173.466 243.644 173.486 243.564 173.506C242.989 173.664 242.493 173.704 241.977 173.763C240.966 173.862 239.954 173.901 238.942 173.941C236.919 174 234.915 174 232.891 173.941C230.868 173.901 228.844 173.803 226.84 173.624C225.829 173.545 224.817 173.427 223.805 173.268C223.289 173.189 222.793 173.09 222.278 172.972C222.02 172.912 221.762 172.833 221.484 172.734C221.206 172.615 220.929 172.536 220.552 172.22C220.472 172.16 220.353 172.022 220.254 171.883C220.155 171.705 220.075 171.488 220.075 171.23C220.075 171.151 220.075 171.072 220.075 171.092V171.052V170.953L220.115 170.736L220.234 169.984L220.512 168.52C220.71 167.55 220.889 166.601 221.087 165.651C221.484 163.752 221.901 161.892 222.278 160.052C223.091 156.372 223.884 152.83 224.678 149.467C225.472 146.103 226.265 142.957 227.039 140.029C228.606 134.212 230.054 129.405 231.225 126.041C231.82 124.359 232.316 123.053 232.792 122.143C233.03 121.688 233.248 121.332 233.586 120.996C233.724 120.857 234.082 120.64 234.359 120.659C234.538 120.659 234.657 120.679 234.736 120.719C234.816 120.739 234.855 120.758 234.855 120.758L234.974 120.798L235.054 120.877V120.936Z" fill="#00683D"/>
<path d="M228.011 169.014C228.765 170.221 240.093 171.21 241.065 170.775C242.017 170.339 244.239 159.062 244.18 156.925C244.12 154.788 234.875 124.833 234.578 125.427C233.209 128.276 227.277 167.787 228.011 169.014Z" fill="white"/>
<path d="M234.855 125.546C234.855 125.546 234.716 125.862 234.538 126.614C234.359 127.346 234.141 128.454 233.883 129.859C233.625 131.264 233.367 132.985 233.09 134.944C232.812 136.922 232.494 139.138 232.157 141.572C231.443 146.419 230.63 152.078 229.737 158.152C229.32 161.179 228.864 164.325 228.606 167.49C228.606 167.688 228.586 167.886 228.566 168.084V168.361C228.566 168.361 228.566 168.48 228.547 168.519C228.527 168.559 228.547 168.658 228.566 168.757V168.796C228.566 168.796 228.467 168.578 228.527 168.677C228.507 168.677 228.527 168.677 228.566 168.697C228.646 168.757 228.824 168.836 228.983 168.895C229.677 169.152 230.471 169.311 231.245 169.469C232.832 169.766 234.439 169.983 236.065 170.141C236.879 170.221 237.692 170.28 238.486 170.32C238.883 170.339 239.299 170.359 239.696 170.359C240.073 170.359 240.549 170.359 240.787 170.32C240.787 170.478 241.025 170.003 241.144 169.686C241.283 169.33 241.402 168.954 241.521 168.578C241.759 167.807 241.958 167.035 242.136 166.264C242.513 164.701 242.85 163.157 243.128 161.614C243.406 160.091 243.703 158.508 243.763 157.063C243.763 156.45 243.505 155.639 243.346 154.927C243.148 154.195 242.969 153.482 242.791 152.77C242.394 151.346 242.017 149.961 241.64 148.615C240.847 145.924 240.113 143.372 239.418 141.018C238.01 136.309 236.78 132.411 235.887 129.701C235.431 128.335 235.074 127.287 234.816 126.574C234.677 126.218 234.578 125.941 234.498 125.783C234.459 125.704 234.439 125.645 234.419 125.625C234.459 125.625 234.339 125.625 234.597 125.724C234.716 125.743 234.816 125.664 234.816 125.664L234.895 125.565L234.855 125.546ZM234.399 125.189C234.399 125.189 234.518 125.11 234.637 125.13C234.915 125.229 234.816 125.269 234.875 125.308C234.915 125.387 234.954 125.447 234.994 125.546C235.074 125.743 235.193 126.02 235.312 126.377C235.569 127.109 235.946 128.177 236.383 129.522C237.276 132.253 238.525 136.15 239.974 140.84C240.688 143.194 241.481 145.727 242.295 148.417C242.692 149.763 243.088 151.148 243.505 152.572C243.703 153.284 243.902 154.017 244.1 154.729C244.199 155.105 244.279 155.461 244.378 155.837C244.457 156.213 244.576 156.589 244.576 157.063C244.517 158.686 244.219 160.19 243.961 161.772C243.684 163.335 243.366 164.898 243.009 166.481C242.83 167.273 242.632 168.064 242.394 168.855C242.275 169.251 242.156 169.647 241.997 170.043C241.918 170.24 241.839 170.438 241.719 170.656C241.66 170.755 241.6 170.874 241.481 171.012C241.402 171.091 241.303 171.19 241.144 171.23C241.085 171.23 241.065 171.269 240.966 171.269C240.39 171.368 240.053 171.348 239.617 171.348C239.2 171.348 238.783 171.348 238.367 171.309C237.534 171.269 236.72 171.21 235.887 171.151C234.24 171.012 232.594 170.834 230.967 170.557C230.154 170.399 229.34 170.26 228.487 169.963C228.269 169.884 228.07 169.805 227.813 169.627C227.753 169.568 227.694 169.548 227.614 169.449L227.515 169.33C227.515 169.33 227.396 169.132 227.416 169.152V169.113C227.416 169.113 227.356 168.935 227.356 168.757C227.356 168.618 227.336 168.46 227.336 168.321V168.005C227.336 167.787 227.336 167.589 227.376 167.391C227.594 164.127 227.991 161.001 228.368 157.954C228.745 154.907 229.162 151.959 229.578 149.189C229.995 146.399 230.392 143.768 230.828 141.354C231.225 138.94 231.701 136.724 232.078 134.766C232.494 132.807 232.852 131.105 233.149 129.701C233.447 128.296 233.705 127.188 233.903 126.456C234.101 125.704 234.3 125.288 234.3 125.288V125.249L234.379 125.189H234.399Z" fill="#00683D"/>
<path d="M30.4372 453.761C32.2624 444.007 22.1843 444.007 22.1843 444.007C16.7882 437.477 24.0095 410.767 24.0095 410.767C86.9775 372.661 75.0545 344.902 89.7351 329.351C104.416 313.8 152.703 366.251 188.175 359.84C223.646 353.43 238.426 317.421 236.78 300.445C231.919 250.468 248.108 176.412 248.961 169.685C248.961 169.685 249.913 160.207 238.764 158.288C227.614 156.369 207.002 155.024 202.915 161.315C198.828 167.607 189.802 230.762 179.783 249.696C169.764 268.63 148.16 267.681 141.256 267.799C127.349 268.037 80.272 270.47 70.7891 285.111C61.3062 299.753 53.9659 372.918 38.6901 391.22C23.3945 409.521 19.7243 407.068 18.5141 410.431C17.2841 413.775 0.91719 448.834 12.7014 453.721C17.2841 455.62 30.4372 453.721 30.4372 453.721V453.761Z" fill="white"/>
<path d="M12.8997 453.327C13.237 453.445 13.5544 453.584 13.8917 453.683C14.2488 453.762 14.586 453.861 14.9431 453.92C15.6573 454.039 16.3913 454.158 17.1254 454.197C17.4825 454.237 17.8594 454.237 18.2363 454.257C18.6133 454.257 18.9704 454.296 19.3473 454.296C20.0813 454.316 20.8352 454.296 21.5692 454.296C22.3033 454.276 23.0571 454.237 23.7912 454.177C24.5252 454.118 25.2791 454.059 26.0131 453.979C27.4812 453.801 28.9691 453.623 30.4173 453.346L30.0602 453.683L30.1396 452.792C30.1396 452.496 30.1991 452.199 30.1991 451.902L30.1396 451.012C30.1396 450.873 30.1396 450.715 30.0999 450.576L30.0007 450.161C29.9213 449.884 29.8817 449.587 29.7825 449.33L29.4452 448.558C29.3262 448.301 29.1476 448.084 28.9889 447.866C28.8501 447.628 28.6318 447.431 28.4533 447.233L28.1755 446.936L27.8383 446.679C27.6201 446.501 27.4018 446.342 27.1439 446.224C26.9059 446.085 26.6678 445.947 26.3901 445.848C26.1321 445.749 25.8742 445.63 25.5965 445.551C25.0609 445.373 24.4855 445.234 23.9301 445.155C23.6523 445.096 23.3547 445.096 23.077 445.056C22.7992 445.056 22.4818 445.017 22.2636 445.037H22.1446C21.8867 445.017 21.6288 444.878 21.4701 444.661C20.9741 443.968 20.5575 443.256 20.3194 442.504C20.1805 442.128 20.0615 441.772 19.9821 441.396C19.883 441.02 19.8036 440.664 19.7441 440.288C19.6052 439.556 19.5259 438.824 19.4862 438.092C19.4267 437.36 19.4267 436.628 19.4068 435.916C19.4068 433.027 19.7044 430.158 20.1012 427.349C20.5178 424.519 21.0336 421.73 21.6486 418.96C22.2636 416.19 22.9381 413.42 23.7118 410.689C23.7118 410.689 23.7713 410.531 23.8507 410.472L23.8904 410.432C31.3894 405.15 38.7496 399.728 45.6534 393.832C52.5573 387.956 59.0049 381.585 64.4605 374.483C65.8096 372.702 67.0991 370.882 68.3092 369.002C69.5392 367.142 70.6899 365.223 71.7612 363.284C73.9236 359.386 75.7488 355.311 77.4747 351.116C79.161 346.922 80.7085 342.589 82.6725 338.315C83.6644 336.198 84.7952 334.081 86.2038 332.162C86.918 331.212 87.6917 330.203 88.4852 329.412L89.0804 328.779C89.3581 328.502 89.5565 328.324 89.7946 328.106C90.2906 327.71 90.8064 327.315 91.3618 327.018C93.6036 325.752 96.1826 325.554 98.5434 325.771C100.944 325.969 103.206 326.622 105.408 327.374C109.812 328.897 113.978 330.935 118.045 333.072C126.179 337.385 134.035 342.114 142.149 346.388C150.223 350.661 158.496 354.658 167.245 357.19C171.609 358.437 176.073 359.288 180.557 359.426C182.818 359.485 185.02 359.367 187.223 359.03C189.425 358.654 191.627 358.14 193.789 357.507C202.459 354.994 210.335 350.167 216.762 343.914C219.956 340.769 222.813 337.267 225.293 333.527C227.733 329.768 229.836 325.771 231.483 321.616C233.149 317.462 234.419 313.148 235.054 308.756C235.371 306.58 235.55 304.324 235.47 302.227L234.974 295.381C234.538 290.771 234.558 286.181 234.419 281.571C234.399 279.276 234.458 276.961 234.478 274.666C234.498 272.371 234.518 270.056 234.657 267.761C235.391 249.361 238.109 231.178 241.104 213.095L245.648 185.989L247.909 172.456C248.008 171.902 248.088 171.328 248.167 170.774L248.286 169.923L248.326 169.706C248.326 169.706 248.326 169.666 248.326 169.567C248.326 169.448 248.326 169.31 248.326 169.171C248.326 168.123 248.108 167.054 247.77 166.045C247.413 165.036 246.897 164.126 246.282 163.275C245.925 162.9 245.628 162.464 245.191 162.148L244.596 161.633L243.941 161.198C243.068 160.624 242.057 160.189 241.085 159.872C240.628 159.675 240.013 159.576 239.478 159.457L238.684 159.279L237.851 159.14C235.609 158.804 233.348 158.527 231.086 158.309C226.563 157.894 222 157.696 217.477 157.914C215.215 158.032 212.973 158.25 210.811 158.685C208.668 159.121 206.506 159.793 204.998 161C204.8 161.158 204.661 161.297 204.522 161.435L204.423 161.534L204.304 161.712L204.046 162.049L203.768 162.583C203.669 162.801 203.57 163.078 203.47 163.315C203.093 164.304 202.796 165.392 202.478 166.481C201.883 168.657 201.368 170.873 200.852 173.089C196.884 190.915 193.749 208.999 189.107 226.786C187.957 231.238 186.707 235.67 185.239 240.062C184.524 242.258 183.711 244.434 182.818 246.611L182.104 248.253C181.866 248.787 181.608 249.282 181.35 249.796C180.815 250.884 180.14 251.854 179.545 252.883C176.986 256.899 173.494 260.342 169.447 262.874C165.4 265.407 160.857 267.049 156.254 267.939C153.953 268.414 151.612 268.691 149.271 268.869C146.93 269.027 144.609 269.087 142.308 269.087C137.745 269.126 133.182 269.344 128.619 269.621C119.493 270.214 110.387 271.184 101.42 272.826C96.9564 273.677 92.4926 274.666 88.1876 276.031C83.9025 277.397 79.6372 279.078 76.0265 281.591C74.2212 282.877 72.6936 284.262 71.5628 286.142C70.4518 287.982 69.6186 290.079 68.8647 292.216C67.357 296.469 66.1865 300.882 65.0755 305.313C60.711 323.061 57.4178 341.105 52.7755 358.872C51.6249 363.324 50.3552 367.736 48.9268 372.108C47.4786 376.481 45.8717 380.814 43.8283 385.008C43.2728 386.037 42.757 387.066 42.142 388.095C41.5071 389.104 40.8723 390.152 40.1581 391.023L39.6423 391.715C39.4241 392.012 39.2654 392.171 39.067 392.408L37.9362 393.714C37.2022 394.584 36.4284 395.455 35.6547 396.306C34.881 397.156 34.1073 398.027 33.3138 398.858C32.5202 399.709 31.7068 400.54 30.8736 401.331C29.227 402.973 27.5209 404.556 25.6957 406C24.803 406.752 23.8309 407.445 22.8786 408.117L21.4304 409.087L20.7757 409.542C20.617 409.7 20.3789 409.839 20.2599 409.997C20.2004 410.076 20.1012 410.155 20.0615 410.215C20.0417 410.274 20.002 410.333 19.9623 410.373C19.883 410.492 19.7044 410.947 19.6846 411.046L19.0696 412.688L17.8396 415.893C16.2326 420.147 14.7646 424.46 13.475 428.773C12.8204 430.93 12.2252 433.106 11.6896 435.282C11.1738 437.459 10.777 439.635 10.3802 441.792C10.043 443.948 9.68585 446.125 9.90408 448.242C10.0033 449.29 10.2612 450.319 10.7571 451.229C11.2928 452.139 11.9475 452.753 13.0386 453.346H12.9989L12.8997 453.327ZM12.4831 454.197C11.4713 453.821 10.3009 452.97 9.50731 452.001C8.75344 450.992 8.19795 449.844 7.82102 448.657C7.08698 446.283 6.90843 443.83 7.02747 441.436C7.12666 439.042 7.60279 436.727 8.13844 434.432C8.67408 432.156 9.32876 429.921 10.0826 427.705C11.5705 423.293 13.356 419.039 15.2407 414.825L16.6691 411.679L17.3634 410.155C17.5618 409.72 17.6015 409.621 17.7999 409.265C17.9189 409.087 18.0578 408.889 18.1967 408.731C18.3355 408.572 18.4744 408.454 18.5934 408.315C18.8712 408.038 19.1291 407.9 19.4068 407.682L20.1805 407.207L21.6288 406.317C22.5612 405.723 23.4936 405.09 24.3863 404.418C27.9573 401.687 31.1315 398.403 34.1668 395.02C34.9405 394.189 35.6746 393.318 36.4086 392.448L37.5196 391.142C37.6783 390.944 37.9163 390.687 38.0354 390.528L38.5512 389.836C39.2852 388.926 39.8407 387.996 40.416 387.066C40.9913 386.116 41.5072 385.107 42.023 384.118C44.0068 380.082 45.5939 375.808 47.0223 371.475C48.4507 367.142 49.6807 362.75 50.8313 358.338C53.1326 349.494 55.1165 340.571 57.0607 331.628C58.9851 322.685 60.8301 313.702 62.9925 304.779C64.0836 300.328 65.2541 295.856 66.7618 291.464C67.5355 289.268 68.3688 287.091 69.6186 284.974C70.8288 282.917 72.7333 281.096 74.6576 279.751C78.5857 276.981 82.9899 275.26 87.3941 273.835C91.8181 272.411 96.3414 271.382 100.884 270.511C109.971 268.79 119.156 267.801 128.341 267.168C132.944 266.871 137.546 266.633 142.169 266.574C144.47 266.574 146.712 266.495 148.973 266.337C151.215 266.159 153.437 265.862 155.639 265.407C160.024 264.556 164.249 262.973 167.979 260.619C171.709 258.284 174.863 255.118 177.224 251.399C177.759 250.449 178.414 249.519 178.87 248.55C179.108 248.035 179.386 247.521 179.604 247.006L180.259 245.483C181.112 243.425 181.886 241.289 182.58 239.132C183.989 234.819 185.199 230.426 186.35 226.014C187.48 221.602 188.512 217.151 189.524 212.699C190.555 208.247 191.528 203.776 192.48 199.304C194.404 190.361 196.209 181.379 198.273 172.436C198.808 170.2 199.324 167.965 199.959 165.729C200.296 164.601 200.614 163.493 201.07 162.346C201.288 161.772 201.506 161.238 201.983 160.505L202.24 160.169L202.379 159.991L202.578 159.793C202.836 159.516 203.113 159.239 203.371 159.061C204.423 158.23 205.593 157.696 206.744 157.281C207.894 156.865 209.065 156.568 210.235 156.351C212.576 155.915 214.917 155.717 217.258 155.638C221.92 155.48 226.563 155.737 231.165 156.232C233.467 156.469 235.768 156.786 238.049 157.182L238.902 157.34L239.795 157.538C240.351 157.676 240.906 157.755 241.501 158.013C242.692 158.408 243.822 158.903 244.834 159.615L245.588 160.149L246.282 160.782C246.758 161.178 247.135 161.693 247.532 162.167C248.246 163.177 248.842 164.284 249.199 165.472C249.556 166.639 249.754 167.866 249.734 169.092C249.734 169.251 249.734 169.409 249.734 169.567C249.734 169.607 249.734 169.805 249.695 169.864L249.655 170.082L249.496 170.932C249.397 171.486 249.298 172.06 249.179 172.634C248.246 177.165 247.334 181.616 246.461 186.108C244.695 195.09 243.307 204.132 242.116 213.213C240.906 222.275 240.113 231.396 239.339 240.497C239.021 245.048 238.664 249.598 238.426 254.169C238.307 256.444 238.129 258.719 238.029 260.995L237.752 267.82C237.613 270.096 237.593 272.371 237.553 274.646C237.533 276.922 237.454 279.197 237.474 281.472C237.593 286.023 237.553 290.573 237.97 295.104L238.426 301.97C238.506 304.463 238.307 306.778 237.95 309.132C237.236 313.801 235.887 318.332 234.121 322.665C232.336 326.998 230.094 331.113 227.475 334.991C224.837 338.849 221.821 342.45 218.429 345.695C211.624 352.125 203.332 357.032 194.285 359.505C192.023 360.138 189.762 360.633 187.421 361.009C185.1 361.345 182.699 361.444 180.358 361.345C175.657 361.147 171.054 360.178 166.61 358.852C162.166 357.507 157.861 355.766 153.675 353.866C149.469 351.967 145.363 349.87 141.316 347.674C133.222 343.301 125.346 338.572 117.251 334.319C113.204 332.202 109.098 330.183 104.812 328.719C102.67 328.047 100.468 327.453 98.2855 327.315C96.1033 327.117 93.9012 327.512 92.1554 328.581C91.7189 328.838 91.3222 329.174 90.9452 329.511L90.4294 330.025L89.8938 330.698C89.1201 331.608 88.5844 332.459 87.9893 333.389C86.8188 335.248 85.9062 337.286 85.1325 339.364C83.5454 343.538 82.4146 347.99 80.9267 352.382C79.4784 356.795 77.7128 361.147 75.5107 365.322C74.3799 367.38 73.2094 369.418 71.9199 371.396C70.6304 373.355 69.2218 375.254 67.7934 377.094C67.0594 378.004 66.3254 378.934 65.5715 379.825L63.2504 382.456C61.6434 384.158 60.0167 385.839 58.3105 387.422L57.0409 388.629L55.7315 389.796C54.8586 390.568 54.0055 391.359 53.1128 392.091C51.3075 393.555 49.522 395.039 47.6572 396.424C40.2573 402.004 32.4012 406.911 24.2078 411.125L24.4062 410.868C23.0968 416.348 22.0454 421.927 21.4304 427.507C21.1328 430.297 20.9542 433.106 21.0534 435.856C21.0931 436.549 21.113 437.241 21.1923 437.914C21.2518 438.587 21.351 439.259 21.5097 439.912C21.5692 440.249 21.6486 440.565 21.7478 440.862C21.8271 441.178 21.9263 441.475 22.0652 441.772C22.2834 442.366 22.6207 442.88 22.958 443.315L22.1644 442.939C22.5612 442.939 22.8786 442.999 23.2159 443.058C23.5531 443.117 23.8705 443.177 24.2078 443.256C24.8625 443.394 25.5171 443.612 26.1321 443.869C26.4496 443.988 26.7471 444.146 27.0447 444.305C27.3621 444.443 27.6399 444.641 27.9176 444.839C28.2152 445.017 28.4731 445.234 28.731 445.472L29.1278 445.808L29.4651 446.204C29.6833 446.481 29.9213 446.718 30.0801 447.035C30.2388 447.332 30.457 447.628 30.5562 447.945L30.8934 448.914C30.9926 449.231 31.0125 449.587 31.072 449.904L31.1513 450.398C31.1513 450.557 31.1513 450.735 31.1513 450.893V451.882C31.1315 452.199 31.0521 452.515 31.0125 452.852L30.8538 453.801C30.8339 453.98 30.6752 454.118 30.4967 454.138C29.0088 454.257 27.5209 454.415 26.033 454.514C24.5451 454.632 23.0571 454.731 21.5692 454.791L19.3275 454.85C18.9505 454.85 18.5736 454.85 18.1967 454.85C17.8197 454.85 17.4428 454.85 17.0659 454.83C16.312 454.81 15.5581 454.751 14.8042 454.672C14.4273 454.613 14.0504 454.553 13.6734 454.474C13.2965 454.395 12.9196 454.257 12.5426 454.158H12.503L12.4831 454.197Z" fill="#00683D"/>
<path d="M238.01 158.191C226.702 156.351 206.922 155.184 202.915 161.357C201.784 163.098 200.534 167.53 199.106 173.446C203.49 175.859 207.359 179.065 211.545 182.27C215.691 185.435 222.297 191.767 228.408 190.56C235.252 188.858 237.692 177.64 238.426 171.803C238.863 168.242 238.109 162.999 238.01 158.191Z" fill="#00683D" stroke="#00683D" stroke-width="0.92" stroke-linecap="round" stroke-linejoin="round"/>
<path d="M244.695 174.335C245.013 178.273 245.945 181.676 247.631 184.545C248.286 176.73 248.782 171.229 248.98 169.706C248.98 169.706 249.457 164.898 245.707 161.436C245.251 165.848 244.437 170.359 244.695 174.335Z" fill="#00683D" stroke="#00683D" stroke-width="0.92" stroke-linecap="round" stroke-linejoin="round"/>
<path d="M202.399 152.216C199.761 159.101 199.443 172.1 201.09 173.822C202.736 175.543 219.937 164.918 220.829 163.395C221.722 161.871 228.884 121.213 227.217 118.779C225.392 116.128 205.038 145.311 202.419 152.196L202.399 152.216Z" fill="#00683D" stroke="#00683D" stroke-width="0.92" stroke-linecap="round" stroke-linejoin="round"/>
<path d="M208.033 150.138C205.633 155.183 204.403 163.671 204.72 165.689C205.038 167.707 218.905 160.466 219.599 158.685C220.294 156.904 225.61 124.16 225.491 123.111C225.253 121.212 210.434 145.073 208.033 150.118V150.138Z" fill="white" stroke="#00683D" stroke-width="0.92" stroke-linecap="round" stroke-linejoin="round"/>
<path d="M27.7789 447.236C27.4615 446.781 26.7274 447.216 27.0449 447.671C27.8582 448.858 28.3344 450.421 27.4416 451.687C27.1242 452.142 27.8582 452.558 28.1757 452.123C29.247 450.619 28.7708 448.68 27.7789 447.255V447.236Z" fill="#00683D"/>
<path d="M21.5098 446.918C21.0932 446.582 20.4782 447.175 20.9147 447.512C21.986 448.382 23.5334 450.658 22.3232 451.924C21.9463 452.32 22.5415 452.913 22.9184 452.517C24.5055 450.855 22.9779 448.105 21.5098 446.918Z" fill="#00683D"/>
<path d="M113.998 269.74C96.3017 271.857 76.5622 276.25 70.7891 285.173C68.3688 288.912 66.0874 296.47 63.7861 305.947C67.1785 310.161 73.3483 311.744 78.4469 309.726C85.0333 307.372 84.4977 302.643 87.652 297.4C91.342 291.108 100.547 291.88 106.34 289.011C113.442 285.687 116.398 276.982 114.018 269.76L113.998 269.74Z" fill="#00683D" stroke="#00683D" stroke-width="0.92" stroke-linecap="round" stroke-linejoin="round"/>
<path d="M176.172 255.198C165.281 268.474 147.426 267.742 141.276 267.841C138.499 267.88 134.412 268.019 129.551 268.315C129.77 275.577 130.9 283.036 136.872 287.903C141.078 291.583 152.128 293.68 155.024 287.369C156.334 293.937 158.179 299.695 162.127 305.472C166.59 311.764 176.867 316.75 181.866 308.103C186.608 299.972 181.866 286.834 179.763 278.703C178.097 271.718 175.676 263.053 176.172 255.158V255.198Z" fill="#00683D" stroke="#00683D" stroke-width="0.92" stroke-linecap="round" stroke-linejoin="round"/>
<path d="M172.978 350.087C178.791 372.108 169.388 422.066 169.487 445.412C169.507 450.774 168.098 452.871 172.185 455.443C176.272 458.015 194.682 459.044 197.102 455.028C200.336 449.666 186.449 444.977 186.449 444.977C164.329 406.218 201.685 330.836 201.685 330.836" fill="white"/>
<path d="M201.784 330.658C201.883 330.718 201.943 330.836 201.883 330.935C200.872 333.191 199.919 335.466 198.967 337.761C198.035 340.056 197.102 342.351 196.229 344.646C195.337 346.961 194.503 349.276 193.67 351.611C192.837 353.926 192.023 356.26 191.25 358.615C190.456 360.949 189.742 363.304 189.028 365.678L187.996 369.22L187.024 372.781C186.687 373.968 186.409 375.175 186.092 376.362C185.774 377.549 185.477 378.756 185.199 379.943C184.604 382.337 184.108 384.751 183.612 387.145C183.156 389.559 182.679 391.973 182.342 394.406C181.945 396.82 181.668 399.273 181.39 401.707C181.172 404.14 180.953 406.594 180.874 409.027L180.775 410.867V412.707C180.775 413.934 180.676 415.161 180.775 416.368L180.894 420.028L181.192 423.668C181.231 424.282 181.311 424.875 181.41 425.489L181.648 427.309C181.767 428.516 182.025 429.703 182.283 430.91L182.64 432.71C182.759 433.304 182.957 433.878 183.096 434.471L183.572 436.232C183.652 436.529 183.711 436.826 183.81 437.122L184.108 437.993C184.524 439.141 184.882 440.308 185.358 441.436C185.873 442.544 186.35 443.671 186.846 444.799L186.608 444.601C189.583 445.63 192.5 446.837 195.118 448.736C195.773 449.211 196.388 449.745 196.943 450.379C197.479 451.012 197.975 451.783 198.173 452.693C198.293 453.148 198.273 453.643 198.173 454.098C198.134 454.336 198.054 454.553 197.975 454.771L197.836 455.087L197.757 455.246L197.717 455.325V455.364C197.717 455.364 197.717 455.345 197.638 455.463C197.499 455.622 197.459 455.76 197.241 455.958C197.063 456.156 196.844 456.334 196.666 456.453C196.289 456.73 195.912 456.927 195.515 457.105C193.968 457.778 192.381 458.075 190.793 458.273C189.206 458.471 187.619 458.55 186.052 458.57C182.898 458.57 179.743 458.392 176.589 457.838C175.022 457.521 173.454 457.244 171.848 456.393L171.689 456.314H171.649L171.59 456.255L171.53 456.215L171.292 456.057C171.133 455.938 170.975 455.859 170.796 455.721C170.439 455.444 170.082 455.147 169.784 454.83C169.149 454.177 168.634 453.287 168.435 452.377C168.217 451.467 168.237 450.596 168.277 449.805L168.396 447.47C168.475 445.986 168.455 444.403 168.495 442.86C168.495 441.317 168.574 439.754 168.653 438.191C168.733 436.628 168.812 435.065 168.931 433.521C169.13 430.415 169.407 427.329 169.685 424.222C170.26 418.03 170.836 411.857 171.49 405.684L172.403 396.424C172.681 393.338 172.958 390.251 173.177 387.165C173.415 384.078 173.613 380.992 173.812 377.905C173.911 376.362 173.931 374.819 174.01 373.276L174.089 370.961V368.646C174.149 365.559 174.05 362.473 173.911 359.386L173.474 354.776L172.681 350.226V350.186C172.641 350.028 172.74 349.87 172.899 349.85C173.058 349.81 173.216 349.909 173.256 350.067C173.613 351.591 173.99 353.114 174.327 354.638L174.982 359.287C175.26 362.394 175.538 365.5 175.557 368.626L175.617 370.961V373.295C175.577 374.858 175.577 376.421 175.538 377.965C175.418 381.071 175.359 384.197 175.121 387.283C174.942 390.39 174.684 393.476 174.446 396.583L173.633 405.862C173.097 412.055 172.383 418.208 171.808 424.381C171.53 427.467 171.233 430.554 171.014 433.64C170.875 435.183 170.796 436.727 170.717 438.25C170.618 439.774 170.538 441.317 170.538 442.88C170.498 444.443 170.498 445.966 170.419 447.569C170.36 449.132 170.102 450.715 170.34 451.942C170.578 453.129 171.51 453.999 172.78 454.791C173.911 455.424 175.458 455.8 176.906 456.096C179.882 456.67 182.957 456.927 186.012 456.967C187.54 456.967 189.068 456.927 190.575 456.749C192.063 456.591 193.591 456.354 194.9 455.819C195.218 455.681 195.535 455.542 195.793 455.345C195.952 455.246 196.031 455.167 196.13 455.087C196.229 455.048 196.368 454.81 196.467 454.692C196.408 454.791 196.467 454.692 196.448 454.711L196.467 454.632L196.527 454.533L196.646 454.316C196.686 454.177 196.765 454.019 196.785 453.88C196.844 453.584 196.864 453.287 196.785 452.99C196.567 451.744 195.456 450.616 194.305 449.706C191.924 447.886 189.087 446.54 186.231 445.452C186.231 445.452 186.052 445.373 186.012 445.274C185.378 444.166 184.743 443.098 184.128 441.99C183.533 440.882 183.076 439.714 182.541 438.567C181.965 437.439 181.648 436.212 181.231 435.025C181.033 434.432 180.815 433.838 180.636 433.225L180.16 431.404C179.843 430.178 179.525 428.971 179.347 427.724C179.148 426.478 178.87 425.251 178.751 424.005L178.355 420.265C178.275 419.019 178.236 417.753 178.176 416.506C178.097 415.26 178.176 413.993 178.156 412.747V410.867L178.275 408.988C178.374 406.495 178.632 404.002 178.89 401.509C179.208 399.036 179.505 396.563 179.942 394.109C180.319 391.636 180.834 389.203 181.311 386.769C181.846 384.335 182.382 381.902 183.017 379.488C183.592 377.074 184.286 374.68 184.981 372.286L186.072 368.725L187.223 365.183C188.016 362.829 188.81 360.475 189.663 358.14C190.496 355.805 191.369 353.471 192.281 351.175C193.194 348.861 194.146 346.585 195.138 344.29C197.102 339.74 199.165 335.209 201.467 330.816C201.526 330.718 201.645 330.678 201.744 330.718L201.784 330.658Z" fill="#00683D"/>
<path d="M190.992 449.805C190.456 449.686 190.238 450.497 190.774 450.616C192.619 451.051 192.976 453.703 192.42 455.187C192.222 455.701 193.055 455.919 193.234 455.404C193.948 453.485 193.293 450.319 190.992 449.785V449.805Z" fill="#00683D"/>
<path d="M183.671 449.369C183.136 449.231 182.917 450.042 183.453 450.181C185.754 450.794 186.746 453.841 185.001 455.602C184.624 455.997 185.219 456.591 185.596 456.195C187.798 453.999 186.608 450.161 183.691 449.369H183.671Z" fill="#00683D"/>
<path d="M247.175 167.273C245.806 167.273 244.675 168.381 244.675 169.766C244.675 171.151 245.786 172.259 247.175 172.259C248.564 172.259 249.675 171.151 249.675 169.766C249.675 168.381 248.564 167.273 247.175 167.273Z" fill="white"/>
<path d="M246.302 167.748C245.409 167.748 244.675 168.48 244.675 169.37C244.675 170.261 245.409 170.993 246.302 170.993C247.195 170.993 247.929 170.261 247.929 169.37C247.929 168.48 247.195 167.748 246.302 167.748Z" fill="#00683D"/>
<path d="M232.177 165.768C230.213 165.768 228.646 167.35 228.646 169.289C228.646 171.228 230.233 172.811 232.177 172.811C234.121 172.811 235.708 171.228 235.708 169.289C235.708 167.35 234.121 165.768 232.177 165.768Z" fill="white"/>
<path d="M230.967 166.461C229.697 166.461 228.666 167.49 228.666 168.756C228.666 170.022 229.697 171.051 230.967 171.051C232.237 171.051 233.268 170.022 233.268 168.756C233.268 167.49 232.237 166.461 230.967 166.461Z" fill="#00683D"/>
<path d="M245.965 206.923C250.27 207.14 253.047 214.876 252.948 217.013C252.948 217.013 250.726 219.585 244.973 219.565C240.648 219.565 233.367 218.774 233.467 216.637C233.566 214.5 241.64 206.685 245.965 206.903V206.923Z" fill="white"/>
<path d="M232.971 216.617C233.01 216.419 233.05 216.222 233.109 216.024C233.189 215.865 233.268 215.707 233.328 215.549C233.467 215.232 233.685 214.995 233.843 214.718C234.22 214.204 234.617 213.709 235.054 213.254C235.49 212.799 235.907 212.344 236.363 211.908C236.819 211.473 237.276 211.058 237.752 210.662C238.248 210.266 238.704 209.871 239.22 209.495C239.716 209.119 240.232 208.763 240.767 208.426C241.303 208.11 241.838 207.773 242.414 207.516C242.969 207.219 243.564 207.002 244.199 206.804C244.517 206.725 244.874 206.626 245.171 206.606H245.628L245.866 206.566C246.024 206.566 246.044 206.566 246.143 206.586C246.481 206.646 246.818 206.665 247.116 206.804L247.592 206.982C247.731 207.061 247.869 207.14 248.028 207.219C248.326 207.378 248.584 207.575 248.822 207.793C249.08 207.991 249.298 208.228 249.536 208.446C249.972 208.901 250.369 209.415 250.706 209.95C251.421 210.998 251.976 212.126 252.432 213.293C252.67 213.867 252.849 214.481 253.028 215.094C253.186 215.707 253.345 216.321 253.325 217.033C253.325 217.132 253.285 217.211 253.226 217.29C252.908 217.725 252.571 218.022 252.214 218.339C251.837 218.596 251.46 218.912 251.044 219.11C250.627 219.328 250.21 219.565 249.774 219.704C249.338 219.842 248.901 220.06 248.425 220.139L247.016 220.436C246.58 220.475 246.143 220.515 245.707 220.535L245.052 220.574H244.318L242.969 220.535C241.184 220.436 239.418 220.139 237.672 219.704C236.799 219.486 235.927 219.209 235.073 218.853C234.637 218.675 234.22 218.457 233.804 218.161C233.605 218.002 233.387 217.824 233.228 217.567C233.149 217.428 233.07 217.31 233.01 217.112C232.951 216.875 232.951 216.795 232.951 216.677V216.617H232.971ZM233.982 216.677V216.617V216.776C233.982 216.776 234.022 216.815 234.022 216.835C234.022 216.835 234.062 216.934 234.101 216.973C234.181 217.072 234.32 217.191 234.458 217.29C234.756 217.488 235.133 217.626 235.53 217.765C236.303 218.022 237.157 218.141 237.99 218.24C239.676 218.438 241.402 218.477 243.108 218.536L244.398 218.576H244.973H245.628L246.937 218.536L248.108 218.378C248.504 218.378 248.901 218.22 249.298 218.141C249.714 218.062 250.091 217.943 250.468 217.804C250.865 217.686 251.222 217.508 251.599 217.349C251.956 217.171 252.333 216.954 252.631 216.756L252.532 217.013C252.551 216.499 252.432 215.885 252.293 215.311C252.135 214.738 251.976 214.164 251.758 213.59C251.341 212.462 250.806 211.374 250.151 210.365C249.814 209.871 249.457 209.396 249.04 208.96C248.842 208.743 248.643 208.525 248.405 208.367C248.187 208.189 247.949 207.991 247.691 207.872C247.572 207.793 247.453 207.714 247.314 207.655L246.917 207.516C246.659 207.397 246.382 207.378 246.104 207.338C246.044 207.338 245.925 207.298 245.925 207.318H245.687L245.231 207.358C244.933 207.397 244.675 207.477 244.398 207.536C243.842 207.714 243.287 207.932 242.751 208.209C242.215 208.466 241.7 208.802 241.184 209.119C240.688 209.455 240.192 209.791 239.716 210.167C239.22 210.523 238.763 210.939 238.307 211.315C237.851 211.73 237.395 212.126 236.978 212.561C236.542 212.977 236.145 213.432 235.728 213.887C235.331 214.342 234.954 214.817 234.617 215.292C234.478 215.529 234.28 215.786 234.181 216.024L234.002 216.38C234.002 216.479 233.963 216.578 233.923 216.677H233.982Z" fill="#00683D"/>
<path d="M242.295 170.32C240.331 170.657 231.721 175.049 229.419 177.542C227.118 180.055 227.217 221.564 230.669 221.999C234.161 222.435 246.818 212.601 246.818 212.601C246.818 212.601 252.948 222.652 254.575 219.388C256.261 216.004 260.189 182.528 259.296 181.459C256.757 178.452 244.279 169.984 242.315 170.32H242.295Z" fill="white"/>
<path d="M258.682 181.953C257.432 180.528 255.745 179.222 254.158 177.976C252.532 176.729 250.865 175.503 249.159 174.355C247.453 173.208 245.707 172.1 243.882 171.209C243.445 171.012 242.91 170.794 242.592 170.735C242.553 170.715 242.295 170.715 242.295 170.735L241.958 170.833C241.719 170.913 241.501 170.952 241.263 171.051L239.855 171.645L238.466 172.298C236.621 173.227 234.796 174.177 233.09 175.325C232.653 175.602 232.237 175.879 231.84 176.175C231.443 176.492 231.026 176.729 230.669 177.105L230.114 177.64L229.836 177.897C229.836 177.897 229.796 177.976 229.757 178.055C229.598 178.431 229.499 178.945 229.419 179.44C229.142 181.438 229.082 183.496 229.023 185.554C228.983 187.611 228.983 189.669 229.023 191.727L229.122 197.9L229.241 204.073C229.3 206.13 229.38 208.188 229.519 210.226C229.638 212.264 229.777 214.321 230.034 216.32C230.153 217.329 230.312 218.318 230.511 219.268C230.61 219.743 230.729 220.198 230.888 220.593C230.947 220.791 231.046 220.949 231.086 221.029C231.086 221.029 231.086 221.029 231.086 221.048C231.026 220.989 230.907 220.93 230.848 220.949L230.947 220.989H230.987C231.145 221.048 230.788 220.969 230.828 220.989H230.947C231.582 221.009 232.613 220.653 233.486 220.257C234.399 219.861 235.292 219.386 236.184 218.892C239.736 216.893 243.188 214.598 246.6 212.264L246.639 212.244C246.838 212.125 247.096 212.185 247.215 212.363C247.77 213.233 248.365 214.084 249.02 214.875C249.675 215.667 250.349 216.458 251.103 217.111C251.857 217.764 252.71 218.377 253.385 218.654C253.543 218.714 253.682 218.753 253.682 218.714C253.682 218.674 253.504 218.714 253.404 218.773C253.365 218.793 253.325 218.832 253.305 218.872C253.305 218.872 253.266 218.931 253.305 218.912L253.365 218.832L253.464 218.674C253.464 218.674 253.523 218.555 253.404 218.773V218.753L253.424 218.674C253.484 218.555 253.543 218.298 253.623 218.1C253.881 217.19 254.079 216.181 254.277 215.192L254.873 212.165L255.964 206.071C256.321 204.033 256.618 201.975 256.916 199.938C257.214 197.88 257.452 195.822 257.709 193.784C257.948 191.727 258.166 189.669 258.364 187.611C258.463 186.582 258.543 185.554 258.602 184.525C258.642 184.01 258.662 183.496 258.662 183.001C258.662 182.744 258.662 182.507 258.662 182.269V182.091C258.662 182.091 258.662 182.071 258.662 182.052C258.662 182.052 258.682 182.032 258.682 181.992L258.622 181.814L258.721 181.973L258.682 181.953ZM259.991 181.122C259.991 181.122 260.229 182.052 260.189 182.19C260.189 182.467 260.189 182.744 260.189 183.021C260.189 183.555 260.169 184.09 260.15 184.604C260.11 185.653 260.031 186.701 259.951 187.73C259.793 189.807 259.614 191.885 259.416 193.962L258.126 206.387C257.908 208.465 257.67 210.523 257.372 212.6C257.233 213.629 257.075 214.677 256.876 215.706C256.678 216.755 256.479 217.784 256.182 218.872C256.083 219.169 256.023 219.406 255.864 219.762L255.805 219.881V219.94L255.765 219.98L255.686 220.118L255.587 220.277L255.527 220.356C255.527 220.356 255.428 220.494 255.369 220.554C255.249 220.692 255.13 220.811 254.992 220.91C254.476 221.306 253.742 221.424 253.226 221.306C252.71 221.207 252.373 221.009 252.075 220.811C250.964 220 250.409 219.07 249.774 218.179C249.179 217.269 248.584 216.399 248.048 215.508L246.401 212.818L247.016 212.936C245.429 214.302 243.803 215.588 242.136 216.834C240.47 218.081 238.783 219.307 236.978 220.415C236.085 220.969 235.173 221.503 234.201 221.978C233.209 222.433 232.276 222.948 230.828 223.027H230.53H230.491C230.511 223.027 230.134 222.948 230.292 222.987H230.253L230.153 222.948C229.995 222.888 229.757 222.75 229.598 222.631C229.499 222.552 229.419 222.453 229.34 222.374C229.082 222.038 228.923 221.741 228.804 221.464C228.566 220.89 228.408 220.356 228.269 219.822C227.991 218.753 227.813 217.705 227.654 216.676C227.059 212.501 226.821 208.346 226.662 204.191C226.583 202.114 226.563 200.036 226.563 197.959C226.583 195.882 226.622 193.804 226.761 191.727C226.88 189.649 227.039 187.572 227.237 185.494C227.455 183.417 227.693 181.359 228.15 179.262C228.289 178.728 228.388 178.213 228.646 177.659C228.725 177.501 228.785 177.382 228.983 177.165L229.281 176.908L229.876 176.413C230.253 176.057 230.749 175.8 231.185 175.483C231.622 175.166 232.078 174.889 232.514 174.612C234.3 173.524 236.145 172.535 238.01 171.605L239.418 170.932C239.894 170.715 240.39 170.537 240.866 170.319C241.104 170.2 241.382 170.161 241.64 170.062L242.037 169.943C242.295 169.884 242.295 169.904 242.513 169.904C243.207 170.002 243.644 170.2 244.16 170.418C246.104 171.289 247.889 172.357 249.675 173.445C251.44 174.533 253.186 175.681 254.892 176.908C255.745 177.521 256.579 178.134 257.412 178.807C258.225 179.48 259.039 180.133 259.812 180.983L259.912 181.142L259.991 181.122Z" fill="#00683D"/>
<path d="M251.659 176.372C258.205 177.48 260.487 179.38 260.269 182.348C260.05 185.315 254.793 192.715 250.984 192.913C245.588 193.21 237.157 185.968 237.533 180.864C237.871 176.313 244.239 175.126 251.659 176.372Z" fill="#00683D" stroke="#00683D" stroke-width="1.1" stroke-linecap="round" stroke-linejoin="round"/>
<path d="M233.586 201.995H233.744C234.3 201.995 234.3 201.144 233.744 201.144H233.586C233.03 201.144 233.03 201.995 233.586 201.995Z" fill="#00683D"/>
<path d="M231.8 206.843C232.356 206.843 232.356 205.992 231.8 205.992C231.245 205.992 231.245 206.843 231.8 206.843Z" fill="#00683D"/>
<path d="M239.279 207.833C239.835 207.833 239.835 206.982 239.279 206.982C238.724 206.982 238.724 207.833 239.279 207.833Z" fill="#00683D"/>
<path d="M235.212 208.466C235.768 208.466 235.768 207.615 235.212 207.615C234.657 207.615 234.657 208.466 235.212 208.466Z" fill="#00683D"/>
<path d="M235.51 204.766C235.51 205.32 236.363 205.32 236.363 204.766V204.687C236.363 204.133 235.51 204.133 235.51 204.687V204.766Z" fill="#00683D"/>
<path d="M254.337 203.795C254.337 203.795 254.436 203.795 254.496 203.815C255.031 203.894 255.17 203.063 254.634 202.984C254.575 202.984 254.535 202.984 254.476 202.964C253.94 202.885 253.801 203.716 254.337 203.795Z" fill="#00683D"/>
<path d="M251.778 208.307C252.313 208.386 252.452 207.555 251.917 207.476C251.381 207.397 251.242 208.227 251.778 208.307Z" fill="#00683D"/>
<path d="M254.892 210.443C255.428 210.523 255.567 209.692 255.031 209.612C254.496 209.533 254.357 210.364 254.892 210.443Z" fill="#00683D"/>
<path d="M255.785 206.742C255.785 206.742 255.785 206.802 255.785 206.821C255.706 207.356 256.539 207.494 256.618 206.96C256.618 206.94 256.618 206.901 256.618 206.881C256.698 206.347 255.864 206.208 255.785 206.742Z" fill="#00683D"/>
<path d="M246.778 212.975C246.54 212.975 246.362 212.757 246.382 212.52C246.382 212.52 246.481 211.135 246.719 209.077C246.838 208.048 246.977 206.841 247.155 205.555C247.334 204.269 247.512 202.904 247.731 201.539C247.949 200.174 248.147 198.808 248.346 197.522C248.564 196.236 248.762 195.049 248.941 194.04C249.298 192.002 249.576 190.637 249.576 190.637C249.615 190.419 249.814 190.281 250.032 190.301C250.27 190.32 250.429 190.518 250.409 190.756C250.409 190.756 250.29 192.141 250.052 194.198C249.933 195.227 249.774 196.434 249.615 197.72C249.437 199.006 249.258 200.371 249.06 201.737C248.881 203.102 248.643 204.467 248.465 205.753C248.266 207.039 248.048 208.226 247.869 209.255C247.512 211.293 247.215 212.658 247.215 212.658C247.175 212.856 246.977 213.014 246.778 212.994V212.975Z" fill="#00683D"/>
<path d="M244.675 249.066L238.545 262.916C193.273 262.559 182.164 237.531 182.164 237.531L183.89 220.654H185.893C213.846 242.853 240.906 243.388 240.906 243.388L244.675 249.066Z" fill="white"/>
<path d="M241.204 243.051L241.303 243.131C242.156 243.922 242.85 244.832 243.485 245.782C244.12 246.731 244.695 247.701 245.072 248.809L245.152 249.027C245.152 249.027 245.152 249.185 245.112 249.244C244.794 250.491 244.398 251.678 243.961 252.885C243.525 254.072 243.069 255.259 242.573 256.406C242.334 256.98 242.077 257.574 241.799 258.128C241.541 258.702 241.243 259.256 240.966 259.829C240.37 260.937 239.755 262.045 238.982 263.094L238.863 263.252C238.863 263.252 238.684 263.391 238.565 263.351C235.847 263.41 233.149 263.391 230.411 263.391C229.062 263.292 227.693 263.193 226.344 263.074L224.301 262.896C223.627 262.837 222.932 262.797 222.258 262.659L218.211 261.966C217.536 261.847 216.862 261.748 216.187 261.61L214.203 261.076L210.216 260.027L206.327 258.622C205.018 258.187 203.768 257.594 202.518 257.02L200.633 256.149C199.999 255.872 199.423 255.477 198.828 255.14L197.043 254.092L196.15 253.577C195.852 253.399 195.575 253.181 195.297 252.984L193.611 251.777C193.055 251.381 192.48 250.985 191.964 250.51L190.377 249.165C189.841 248.73 189.345 248.235 188.869 247.741L187.421 246.276C186.965 245.762 186.528 245.228 186.072 244.694L185.417 243.902L184.822 243.051C184.425 242.478 184.009 241.943 183.652 241.35C182.918 240.183 182.263 238.976 181.747 237.65V237.591C181.747 237.591 181.688 237.472 181.707 237.413C181.826 234.583 182.104 231.774 182.422 228.964C182.719 226.155 183.056 223.345 183.453 220.556V220.516C183.493 220.298 183.691 220.12 183.909 220.14H185.913C185.913 220.14 186.112 220.18 186.191 220.239L189.226 222.435C190.258 223.148 191.23 223.939 192.301 224.592L195.456 226.65C196.487 227.362 197.578 227.955 198.669 228.588C199.761 229.202 200.812 229.855 201.923 230.468L205.256 232.189C206.347 232.783 207.498 233.297 208.628 233.812C209.779 234.306 210.89 234.9 212.041 235.355L215.513 236.78C216.683 237.235 217.853 237.63 219.044 238.066C220.214 238.521 221.424 238.837 222.615 239.233C223.805 239.629 225.015 239.945 226.225 240.262C227.436 240.598 228.646 240.875 229.876 241.152C231.086 241.449 232.316 241.647 233.546 241.904C234.776 242.122 236.006 242.339 237.256 242.497C238.486 242.676 239.736 242.794 240.966 242.873C241.065 242.873 241.164 242.913 241.243 242.992L241.204 243.051ZM237.097 243.566C235.827 243.447 234.578 243.249 233.328 243.071C232.078 242.854 230.828 242.656 229.598 242.359C228.368 242.102 227.118 241.825 225.908 241.488C224.678 241.172 223.448 240.855 222.238 240.479C221.028 240.103 219.798 239.787 218.607 239.332C217.417 238.916 216.207 238.521 215.017 238.066L211.485 236.661C210.295 236.206 209.164 235.632 208.013 235.118C206.863 234.583 205.712 234.069 204.601 233.456L201.248 231.695C200.157 231.062 199.066 230.409 197.975 229.756C196.884 229.103 195.793 228.47 194.761 227.738L191.627 225.601C190.555 224.908 189.603 224.077 188.591 223.326L185.596 221.011L185.873 221.11H183.87L184.326 220.694C184.128 223.523 183.909 226.333 183.612 229.142C183.354 231.952 183.056 234.761 182.58 237.551L182.541 237.314C183.215 238.402 184.028 239.47 184.862 240.499C185.258 241.033 185.715 241.488 186.151 241.983L186.806 242.715L187.5 243.408C187.976 243.863 188.433 244.337 188.909 244.793L190.397 246.098C191.349 247.008 192.46 247.721 193.472 248.552C193.968 248.967 194.523 249.323 195.079 249.679L196.725 250.768C197.003 250.946 197.261 251.144 197.539 251.322L198.392 251.797L200.118 252.766C201.248 253.439 202.459 253.973 203.649 254.547C204.839 255.101 206.03 255.694 207.279 256.129L210.989 257.534L214.798 258.662L216.703 259.216L218.647 259.631L222.555 260.482C223.865 260.759 225.194 260.898 226.503 261.115C227.832 261.313 229.142 261.511 230.471 261.729C233.129 261.966 235.808 262.164 238.486 262.461L238.069 262.738C238.327 261.472 238.724 260.265 239.16 259.077C239.398 258.484 239.597 257.89 239.855 257.317C240.093 256.723 240.351 256.149 240.628 255.575C241.144 254.428 241.719 253.3 242.295 252.172C242.89 251.064 243.505 249.956 244.219 248.888L244.259 249.323C243.386 248.532 242.711 247.622 242.077 246.672C241.501 245.782 240.966 244.832 240.569 243.823C239.378 243.784 238.208 243.704 237.038 243.566H237.097Z" fill="#00683D"/>
<path d="M243.406 249.263C243.406 249.382 243.307 249.461 243.188 249.461C243.188 249.461 242.93 249.461 242.453 249.422C241.977 249.382 241.263 249.323 240.37 249.224C239.478 249.145 238.387 248.967 237.137 248.808C235.907 248.591 234.478 248.413 232.971 248.096C232.217 247.938 231.423 247.78 230.61 247.621C229.796 247.423 228.963 247.226 228.09 247.028C226.364 246.652 224.559 246.098 222.694 245.583C220.829 245.049 218.945 244.376 217.02 243.704C216.068 243.328 215.116 242.952 214.163 242.576L212.715 242.022L211.307 241.389C209.422 240.538 207.518 239.727 205.732 238.718C204.839 238.243 203.947 237.768 203.054 237.293C202.181 236.799 201.367 236.245 200.534 235.75C199.721 235.236 198.907 234.721 198.114 234.227C197.34 233.692 196.626 233.119 195.912 232.604C194.483 231.536 193.134 230.547 192.004 229.458C190.853 228.41 189.802 227.46 188.869 226.629C188.036 225.699 187.302 224.868 186.687 224.196C185.477 222.85 184.802 222.079 184.802 222.079C184.782 222.059 184.782 222.019 184.802 221.999C184.822 221.98 184.862 221.96 184.901 221.999C184.901 221.999 185.675 222.692 186.984 223.919C187.639 224.532 188.433 225.284 189.345 226.135C190.317 226.926 191.408 227.796 192.599 228.766C193.749 229.775 195.158 230.665 196.586 231.674C197.301 232.169 198.035 232.703 198.808 233.218C199.602 233.692 200.395 234.167 201.229 234.662C202.042 235.157 202.875 235.671 203.728 236.166C204.601 236.621 205.474 237.076 206.367 237.551C208.113 238.54 209.997 239.351 211.842 240.202L213.231 240.835L214.659 241.409C215.612 241.785 216.544 242.161 217.477 242.536C219.361 243.209 221.246 243.862 223.071 244.475C224.896 245.029 226.662 245.623 228.368 246.038C229.221 246.256 230.054 246.474 230.848 246.691C231.661 246.869 232.435 247.067 233.189 247.226C234.677 247.601 236.065 247.859 237.295 248.116C238.525 248.334 239.597 248.551 240.489 248.67C242.255 248.967 243.287 249.085 243.287 249.085C243.386 249.085 243.485 249.184 243.465 249.303L243.406 249.263Z" fill="#00683D"/>
<path d="M373.627 129.799C378.587 139.988 383.586 144.598 395.39 144.816C402.849 145.944 408.94 141.73 414.336 137.08C416.28 135.616 418.304 134.172 420.546 133.182C418.522 134.548 416.697 136.111 414.971 137.812C411.36 141.136 407.769 144.875 402.81 146.221C400.31 146.894 397.731 146.913 395.271 146.775C383.269 146.518 377.019 140.978 373.647 129.779L373.627 129.799Z" fill="#00683D"/>
<path d="M488.89 172.714C476.292 155.462 486.45 132.808 502.301 121.51C512.716 113.517 525.135 108.808 537.177 104C545.887 100.34 555.548 97.313 561.083 89.3989C570.11 74.8963 559.377 58.7516 554.239 44.6249C540.967 7.78487 570.387 -0.425991 600.899 0.701766C607.664 0.800692 614.548 3.31341 620.004 7.29024C642.521 22.9799 649.98 52.6577 646.013 78.5566C643.751 98.1044 634.625 115.852 629.408 134.549C624.448 153.127 623.555 172.635 625.837 191.728C627.741 210.366 635.617 230.151 637.045 248.868C639.545 281.434 622.623 314.891 594.987 332.104C621.968 313.981 637.66 281.157 634.824 249.066C633.117 230.448 624.944 210.702 622.801 192.124C620.123 172.695 621.016 152.692 625.995 133.678C631.054 114.961 640.081 97.4514 642.243 78.0817C645.834 53.4294 638.91 25.3146 617.822 10.4163C612.723 6.75604 607.029 4.57967 600.701 4.42139C583.997 4.20375 557.71 4.38182 554.556 25.3146C552.017 47.4344 577.093 69.1982 563.245 90.9223C557.314 99.2717 546.918 102.536 537.971 106.098C531.9 108.412 525.83 110.688 519.957 113.299C508.272 118.444 496.925 125.566 489.842 136.409C482.839 146.994 481.252 162.011 488.89 172.734V172.714Z" fill="#00683D"/>
<path d="M548.763 314.257C547.513 223.126 567.352 132.47 596.912 46.6219C600.681 36.0764 606.375 20.3867 610.462 10.0391C607.109 20.5846 602.05 36.4325 598.777 47.2155C571.915 133.776 552.533 223.521 548.783 314.257H548.763Z" fill="#00683D"/>
<path d="M582.806 91.0997C582.33 78.7339 580.862 66.4671 578.581 54.3981C576.875 45.4552 574.177 36.6508 569.594 28.7169C568.066 26.0657 566.241 23.5925 564.317 21.0996C566.856 22.9396 569.157 25.1556 571.201 27.5892C584.136 43.813 586.715 71.2551 582.806 91.0799V91.0997Z" fill="#00683D"/>
<path d="M592.904 70.2455C599.193 55.9013 609.549 43.2189 622.385 34.2365C613.477 47.0375 603.677 58.968 592.904 70.2455Z" fill="#00683D"/>
<path d="M559.119 209.928C548.089 178.193 538.864 145.903 531.543 113.119C544.101 144.301 553.346 176.828 559.119 209.928Z" fill="#00683D"/>
<path d="M561.996 201.935C566.32 183.653 569.395 164.897 576.835 147.446C589.294 117.828 615.997 97.7064 642.164 80.7109C611.811 105.937 585.326 126.85 573.562 166.242C569.653 178.034 566.36 190.163 561.996 201.915V201.935Z" fill="#00683D"/>
<path d="M554.358 259.471C562.988 248.55 573.939 239.666 585.148 231.534C596.337 223.897 608.498 214.163 622.821 214.638C609.232 217.309 598.499 227.102 587.469 234.74C576.18 242.733 565.21 250.845 554.358 259.471Z" fill="#00683D"/>
</g>
<defs>
<clipPath id="clip0_1494_3245">
<rect width="647" height="479" fill="white" transform="translate(0.0244141 0.601562)"/>
</clipPath>
</defs>
</svg>
