<svg width="33" height="33" viewBox="0 0 33 33" fill="none" xmlns="http://www.w3.org/2000/svg">
<path d="M17.9201 30.2653C16.8292 30.2653 15.787 29.8104 13.7026 28.9005C11.2699 27.8386 9.40747 27.0257 8.11539 26.2653H3.25342M17.9201 30.2653C19.011 30.2653 20.0531 29.8104 22.1375 28.9005C27.3259 26.6358 29.9201 25.5034 29.9201 23.5986V9.59863M17.9201 30.2653V15.5986M5.92008 9.59863V13.5986" stroke="#944446" stroke-width="1.5" stroke-linecap="round" stroke-linejoin="round"/>
<path d="M13.0226 13.8538L9.12768 11.9691C6.99015 10.9348 5.92139 10.4176 5.92139 9.59863C5.92139 8.77966 6.99015 8.2625 9.12768 7.22817L13.0226 5.34346C15.4265 4.18025 16.6285 3.59863 17.9214 3.59863C19.2143 3.59863 20.4163 4.18023 22.8202 5.34346L26.7151 7.22817C28.8526 8.2625 29.9214 8.77966 29.9214 9.59863C29.9214 10.4176 28.8526 10.9348 26.7151 11.9691L22.8202 13.8538C20.4163 15.017 19.2143 15.5986 17.9214 15.5986C16.6285 15.5986 15.4265 15.017 13.0226 13.8538Z" stroke="#944446" stroke-width="1.5" stroke-linecap="round" stroke-linejoin="round"/>
<path d="M24.7702 6.28613L11.0776 12.9118" stroke="#944446" stroke-width="1.5" stroke-linecap="round" stroke-linejoin="round"/>
<path d="M3.25342 18.2646H7.25342" stroke="#944446" stroke-width="1.5" stroke-linecap="round" stroke-linejoin="round"/>
<path d="M3.25342 22.2646H7.25342" stroke="#944446" stroke-width="1.5" stroke-linecap="round" stroke-linejoin="round"/>
</svg>
