<svg width="51" height="50" viewBox="0 0 51 50" fill="none" xmlns="http://www.w3.org/2000/svg">
<path d="M25.6706 14.5833C27.9718 14.5833 29.8372 12.7179 29.8372 10.4167C29.8372 8.11548 27.9718 6.25 25.6706 6.25C23.3694 6.25 21.5039 8.11548 21.5039 10.4167C21.5039 12.7179 23.3694 14.5833 25.6706 14.5833Z" stroke="#944446" stroke-width="2" stroke-linecap="round" stroke-linejoin="round"/>
<path d="M21.5039 10.4165H9.00391M29.8372 10.4165H42.3372" stroke="#944446" stroke-width="2" stroke-linecap="round" stroke-linejoin="round"/>
<path d="M36.0872 43.75H15.2539" stroke="#944446" stroke-width="2" stroke-linecap="round" stroke-linejoin="round"/>
<path d="M25.6699 14.5833V43.7499" stroke="#944446" stroke-width="2" stroke-linecap="round" stroke-linejoin="round"/>
<path d="M46.5039 29.1665C46.5039 32.6184 43.7058 35.4165 40.2539 35.4165C36.802 35.4165 34.0039 32.6184 34.0039 29.1665M46.5039 29.1665L41.2956 16.6665H39.2122L34.0039 29.1665M46.5039 29.1665H34.0039" stroke="#944446" stroke-width="2" stroke-linecap="round" stroke-linejoin="round"/>
<path d="M17.3359 29.1665C17.3359 32.6184 14.5377 35.4165 11.0859 35.4165C7.63417 35.4165 4.83594 32.6184 4.83594 29.1665M17.3359 29.1665L12.1276 16.6665H10.0443L4.83594 29.1665M17.3359 29.1665H4.83594" stroke="#944446" stroke-width="2" stroke-linecap="round" stroke-linejoin="round"/>
</svg>
