<svg width="121" height="121" viewBox="0 0 121 121" fill="none" xmlns="http://www.w3.org/2000/svg">
<path d="M60.5781 95.4783V25.4783C60.5781 17.194 53.8626 10.4783 45.5781 10.4783C37.2939 10.4783 30.5781 17.194 30.5781 25.4783C30.5781 28.2397 28.3395 30.4783 25.5781 30.4783C17.2939 30.4783 10.5781 37.194 10.5781 45.4783C10.5781 53.7628 17.2939 60.4783 25.5781 60.4783C17.2939 60.4783 10.5781 67.1938 10.5781 75.4783C10.5781 83.7628 17.2939 90.4783 25.5781 90.4783C28.3395 90.4783 30.5781 92.7168 30.5781 95.4783C30.5781 103.763 37.2939 110.478 45.5781 110.478C53.8626 110.478 60.5781 103.763 60.5781 95.4783Z" stroke="#C98A50" stroke-width="3" stroke-linejoin="round"/>
<path d="M60.5781 95.4783V25.4783C60.5781 17.194 67.2936 10.4783 75.5781 10.4783C83.8626 10.4783 90.5781 17.194 90.5781 25.4783C90.5781 28.2397 92.8166 30.4783 95.5781 30.4783C103.863 30.4783 110.578 37.194 110.578 45.4783C110.578 53.7628 103.863 60.4783 95.5781 60.4783C103.863 60.4783 110.578 67.1938 110.578 75.4783C110.578 83.7628 103.863 90.4783 95.5781 90.4783C92.8166 90.4783 90.5781 92.7168 90.5781 95.4783C90.5781 103.763 83.8626 110.478 75.5781 110.478C67.2936 110.478 60.5781 103.763 60.5781 95.4783Z" stroke="#C98A50" stroke-width="3" stroke-linejoin="round"/>
</svg>
