<svg width="20" height="20" viewBox="0 0 20 20" fill="none" xmlns="http://www.w3.org/2000/svg">
<g clip-path="url(#clip0_4589_1090)">
<path d="M6.48828 1.69727V4.86393" stroke="#944446" stroke-width="1.5" stroke-linecap="round" stroke-linejoin="round"/>
<path d="M12.8203 1.69727V4.86393" stroke="#944446" stroke-width="1.5" stroke-linecap="round" stroke-linejoin="round"/>
<path d="M15.196 3.2793H4.11263C3.23818 3.2793 2.5293 3.98818 2.5293 4.86263V15.946C2.5293 16.8204 3.23818 17.5293 4.11263 17.5293H15.196C16.0704 17.5293 16.7793 16.8204 16.7793 15.946V4.86263C16.7793 3.98818 16.0704 3.2793 15.196 3.2793Z" stroke="#944446" stroke-width="1.5" stroke-linecap="round" stroke-linejoin="round"/>
<path d="M2.5293 8.0293H16.7793" stroke="#944446" stroke-width="1.5" stroke-linecap="round" stroke-linejoin="round"/>
<path d="M6.48828 11.1973H6.49828" stroke="#944446" stroke-width="1.5" stroke-linecap="round" stroke-linejoin="round"/>
<path d="M9.6543 11.1973H9.6643" stroke="#944446" stroke-width="1.5" stroke-linecap="round" stroke-linejoin="round"/>
<path d="M12.8203 11.1973H12.8303" stroke="#944446" stroke-width="1.5" stroke-linecap="round" stroke-linejoin="round"/>
<path d="M6.48828 14.3633H6.49828" stroke="#944446" stroke-width="1.5" stroke-linecap="round" stroke-linejoin="round"/>
<path d="M9.6543 14.3633H9.6643" stroke="#944446" stroke-width="1.5" stroke-linecap="round" stroke-linejoin="round"/>
<path d="M12.8203 14.3633H12.8303" stroke="#944446" stroke-width="1.5" stroke-linecap="round" stroke-linejoin="round"/>
</g>
<defs>
<clipPath id="clip0_4589_1090">
<rect width="19" height="19" fill="white" transform="translate(0.154297 0.113281)"/>
</clipPath>
</defs>
</svg>
