<svg width="25" height="25" viewBox="0 0 25 25" fill="none" xmlns="http://www.w3.org/2000/svg">
<path d="M18.5 2.11719V4.11719M6.5 2.11719V4.11719" stroke="#00683D" stroke-width="1.5" stroke-linecap="round" stroke-linejoin="round"/>
<path d="M12.4955 13.1172H12.5045M12.4955 17.1172H12.5045M16.491 13.1172H16.5M8.5 13.1172H8.50897M8.5 17.1172H8.50897" stroke="#00683D" stroke-width="2" stroke-linecap="round" stroke-linejoin="round"/>
<path d="M4 8.11719H21" stroke="#00683D" stroke-width="1.5" stroke-linecap="round" stroke-linejoin="round"/>
<path d="M3 12.3604C3 8.00313 3 5.82447 4.25212 4.47083C5.50424 3.11719 7.51949 3.11719 11.55 3.11719H13.45C17.4805 3.11719 19.4958 3.11719 20.7479 4.47083C22 5.82447 22 8.00313 22 12.3604V12.874C22 17.2313 22 19.4099 20.7479 20.7636C19.4958 22.1172 17.4805 22.1172 13.45 22.1172H11.55C7.51949 22.1172 5.50424 22.1172 4.25212 20.7636C3 19.4099 3 17.2313 3 12.874V12.3604Z" stroke="#00683D" stroke-width="1.5" stroke-linecap="round" stroke-linejoin="round"/>
<path d="M3.5 8.11719H21.5" stroke="#00683D" stroke-width="1.5" stroke-linecap="round" stroke-linejoin="round"/>
</svg>
