<svg width="64" height="65" viewBox="0 0 64 65" fill="none" xmlns="http://www.w3.org/2000/svg">
<path fill-rule="evenodd" clip-rule="evenodd" d="M37.6746 49.722C38.9925 49.7172 39.7778 48.4294 40.6656 47.6294C41.46 46.9452 42.4414 46.4687 43.1356 45.6681C43.6425 45.0844 43.8644 44.1638 44.4796 43.69C47.458 41.9611 47.9262 43.2703 49.6422 39.4164C50.6218 37.5622 51.7791 35.962 51.9858 33.7829C52.2675 30.8144 51.6846 27.4921 50.3416 24.8317C49.4414 23.0482 47.8879 21.4313 47.4623 19.4402C47.2212 19.3974 46.9542 19.3229 46.6846 19.2261C46.2922 19.1054 44.6967 18.372 45.2416 18.3381C45.4907 18.4544 46.0036 18.5726 46.5463 18.6564C47.2609 18.7286 48.4074 18.8954 48.9722 18.502C49.6918 17.828 49.336 16.6309 50.1378 15.9876C50.4297 15.754 52.5014 15.7884 52.4028 15.6395C52.1372 15.2374 50.5582 14.6053 50.3602 14.2199C50.2945 14.0924 50.3604 13.9975 50.3284 13.8299C50.244 13.3868 49.9839 13.0657 49.9354 12.6096C49.9284 12.5435 49.9384 11.9393 49.8404 11.8956C49.5926 11.7858 49.1383 11.9673 48.9283 11.8295C48.3733 11.4665 47.9145 10.9219 47.2865 10.6101C47.1147 10.5254 46.6309 10.7916 46.4775 10.8298C46.1887 10.9005 45.7935 10.4444 45.5067 10.5105C45.2809 10.5626 45.0454 10.8791 44.8371 10.9908C44.6942 11.0671 44.0918 11.163 44.0246 11.2663C43.8029 11.608 43.8704 12.0613 43.5811 12.3685C43.0553 12.9279 42.7533 12.6896 42.5631 13.5265C35.8084 18.4109 41.3304 22.7383 36.5671 25.4398C33.7103 26.9472 29.7063 26.1311 27.3899 23.901C26.5249 23.0502 25.8586 21.7125 24.8808 20.7919C24.4583 20.3944 23.8464 20.2408 23.3889 19.8852C22.7745 19.4077 22.3198 18.6844 21.6015 18.3559C21.0494 18.1027 20.3982 18.1622 19.8438 17.9053C18.7054 17.3784 17.8311 16.3368 16.5648 16.0529C16.2634 15.9859 15.7647 16.3834 15.4738 16.4615C14.916 16.6114 14.324 16.3768 13.7915 16.5239C13.5104 16.6021 12.6708 16.8786 12.5265 17.1085C11.9773 17.9826 12.331 19.687 12.5256 20.5871C12.5554 20.7212 11.5696 20.939 11.564 21.2303C11.5565 21.6148 11.8367 21.9424 11.8805 22.3167C11.9587 22.9738 11.8172 23.6897 11.9149 24.3236C11.9931 24.8281 12.3459 25.2209 12.4707 25.7022C12.6019 26.2123 12.5246 26.7829 12.6289 27.307C12.7592 27.966 12.6512 28.6204 12.9026 29.2637C13.1344 29.8557 13.651 30.2699 13.8669 30.8536C14.0615 31.3804 13.7608 31.8366 14.109 32.3839C14.5009 33.0011 15.9584 34.8358 16.4847 35.3543C16.8137 35.6773 17.4567 35.9091 17.7124 36.2777C17.7259 36.2972 17.2023 36.7999 17.1498 36.8548C16.8148 37.203 16.5586 37.6274 16.2981 38.0324C15.9818 38.5239 16.4569 39.7274 16.5807 40.2739C17.5193 44.2987 18.7263 43.4544 21.3542 45.6262C22.5555 46.8132 22.966 48.2113 24.5834 49.023C25.8234 49.6448 27.4335 50.0591 28.9862 50.1652C29.4385 51.0188 30.0235 52.2084 30.366 53.1235C30.0636 53.1208 29.7683 53.1539 29.4683 53.2249C29.3745 53.2275 27.7597 53.7318 28.3644 53.8421C29.7575 53.5593 31.038 53.8228 32.2569 54.4527C32.6471 54.6668 33.0255 54.9219 33.3966 55.2486C33.476 55.343 33.6258 55.2138 33.5406 55.122C33.1711 54.5753 32.7604 54.1126 32.2354 53.7415C33.2708 53.7196 34.2089 53.9556 35.2058 54.4006C35.2525 54.4257 35.3109 54.409 35.3361 54.3624C35.3614 54.315 35.344 54.2572 35.2974 54.2321C34.22 53.5554 33.1449 53.1481 31.9242 53.1011C32.2147 52.9401 32.5253 52.82 32.8608 52.7222C32.984 52.7068 32.9574 52.5129 32.8336 52.5323C32.2077 52.537 31.6097 52.5992 31.0827 52.9177C30.7761 52.0902 30.2758 51.0393 29.8398 50.1912C31.6118 50.2153 32.0579 49.775 33.5885 49.2035L34.0723 48.8815C34.7886 48.4414 35.4568 47.9256 36.0791 47.3307C36.6803 47.1405 34.7355 49.067 34.6285 49.1301C35.3289 49.2176 36.035 49.4912 36.7393 49.6346L38.6194 52.6161C38.3353 52.6661 38.0622 52.7543 37.8045 52.8879C37.4308 53.0834 37.091 53.3543 36.7764 53.7183C36.6841 53.8004 36.8123 53.946 36.9051 53.8616C38.2406 52.8988 39.8485 53.2854 41.2431 53.9054C41.5494 54.0459 41.8625 54.2014 42.1893 54.3922C42.2858 54.4692 42.4073 54.3147 42.3061 54.2396C41.7837 53.7268 41.2666 53.3019 40.6412 52.9773C41.7747 52.8689 42.8114 53.1676 43.9025 53.6298C43.9498 53.654 44.0077 53.6354 44.0319 53.5879C44.056 53.5405 44.0372 53.4827 43.99 53.4585C42.8052 52.7646 41.6632 52.2979 40.3652 52.3601C40.6829 52.1637 41.0265 52.0167 41.3971 51.8947C41.5196 51.8725 41.4828 51.6813 41.3605 51.7058C40.8223 51.7421 40.3125 51.8258 39.8424 52.0409C39.6624 52.1228 39.4942 52.227 39.3347 52.3546L37.6746 49.722Z" fill="#2BB673"/>
</svg>
