<svg width="64" height="65" viewBox="0 0 64 65" fill="none" xmlns="http://www.w3.org/2000/svg">
<path d="M51.9364 11.2935C50.8889 12.8262 50.5471 14.844 49.1799 16.123C46.6119 17.3238 43.7839 17.8621 40.9543 17.6887C31.6482 17.5564 22.2098 17.38 13.1352 15.2409C8.23959 14.006 2.18621 16.7184 1.4254 22.0772C0.433041 27.2154 1.27103 32.4969 0.212517 37.6131C-0.136765 39.4849 -0.0116653 41.4144 0.576382 43.2254C4.38042 38.9583 0.576382 32.96 1.86645 27.9321C4.55833 32.8266 5.99417 38.3123 6.04538 43.898C6.32103 47.3602 5.64843 51.2084 7.66623 54.2626L10.9741 54.4391C8.59243 51.2635 8.76885 47.25 9.47453 43.5562C10.522 46.6546 11.1285 49.8742 12.3083 52.9395L14.9876 52.7962C12.7824 49.9514 12.9147 46.3238 12.8926 42.9498C14.3273 41.2027 15.6424 39.3608 16.829 37.4367C22.9044 40.7445 30.0604 40.9761 36.7644 39.6419C37.867 44.5044 37.6906 49.5655 38.705 54.3839L42.2664 54.3178C41.5938 53.4246 40.9102 52.5205 40.2266 51.6494C40.6787 48.5731 41.1969 45.5189 41.9357 42.5087C42.3326 46.0371 42.5642 49.5986 43.1265 53.1159H46.5667L44.8797 51.054C44.8797 47.8344 44.0417 44.4383 45.012 41.351C48.6885 38.1777 51.2859 33.9386 52.4436 29.2221C54.529 28.2861 56.5099 27.133 58.3537 25.782C60.4045 25.1755 64.7378 25.3078 63.8668 22.0661C61.6064 19.2214 57.5929 18.2511 55.8066 14.8991C55.1781 13.3334 53.6014 13.2011 52.1349 13.5539C52.1349 12.9916 52.0136 11.8448 51.9695 11.2715L51.9364 11.2935Z" fill="#2BB673"/>
</svg>
