<svg width="64" height="65" viewBox="0 0 64 65" fill="none" xmlns="http://www.w3.org/2000/svg">
<path fill-rule="evenodd" clip-rule="evenodd" d="M49.6292 21.5516C51.1269 21.2522 53.1116 21.3747 54.0773 21.4418C54.7615 21.2447 55.4979 21.1392 56.1576 20.8696C57.7886 20.2015 58.0058 18.2717 56.8443 17.0495C55.3257 15.45 52.5225 15.0483 50.5668 14.1948C49.8822 13.8965 47.818 12.3705 47.0928 12.3194C46.1907 10.6701 44.4317 8.8212 42.9198 8.59636C41.2535 8.26488 39.8963 9.35389 39.4923 11.1196C37.5872 11.2815 36.2335 12.4734 36.4399 14.945C36.4439 12.6756 37.667 11.6211 39.4112 11.5756C39.3867 11.7675 39.3726 11.9656 39.3699 12.1692C39.3904 11.9645 39.422 11.7664 39.4639 11.5756C41.1187 11.5528 43.0772 12.502 44.458 13.6525C44.1666 13.872 43.8589 14.0863 43.5014 14.2706C42.9765 14.5423 42.0199 14.6084 41.6317 15.0879C41.3404 15.4481 42.0968 16.2206 42.3715 16.7172C43.3484 16.853 44.8494 16.7926 45.5857 16.4285C44.9402 16.9644 43.4594 17.3895 42.4447 17.4461C42.289 19.3875 41.3188 22.9806 39.5793 23.6137C38.2765 24.0879 36.5272 23.8034 35.1598 23.8311C33.0292 23.8758 30.9824 24.4629 28.8335 24.2168C22.0871 23.2686 14.5949 19.8931 10.82 27.9477C10.0835 29.2933 9.13086 30.6168 8.86028 32.1619C8.64506 33.3926 8.70576 35.4694 9.03179 36.6607C9.25342 37.4696 9.69988 38.2026 9.93754 39.0114C10.5311 41.0349 10.7751 43.2129 11.521 45.1907C12.0815 46.6782 13.1249 48.0358 13.7556 49.5255C14.5941 51.5074 14.8974 53.5374 15.8719 55.4629C16.0429 55.8018 16.1219 56.3814 16.3498 56.6553C16.8351 56.7923 19.0763 56.9415 19.6842 56.9761C19.7595 56.83 19.3665 56.1501 19.2846 56.0042C18.7611 55.0664 18.0211 54.2683 17.5057 53.3242C16.4314 51.3467 15.954 49.2079 15.6986 47.001C15.3255 44.5533 15.0293 41.7061 17.4734 40.8153C18.9789 39.5678 19.4891 36.9305 18.1399 35.3957C19.5884 36.6403 19.5687 39.0005 18.6632 40.5637C20.0757 40.4275 21.5206 40.9147 22.8926 41.1913C24.3603 41.4886 25.8798 41.6208 27.3746 41.6762C28.4306 41.7156 29.3004 41.2723 30.2524 40.9878C29.1323 39.0242 29.9429 36.9042 30.936 35.0866C30.4618 36.5721 29.9645 38.0821 30.5229 39.6195C30.637 39.9423 30.7955 40.2696 31.0127 40.6041C31.1239 40.7938 31.0708 41.0358 30.8963 41.1625C30.5477 42.4 30.4584 43.6883 30.2456 44.9517C29.9588 46.6865 30.0275 48.597 29.6163 50.2796C29.3384 51.4166 28.4286 52.4416 28.3706 53.6309C28.324 54.5857 28.9557 56.0657 29.5248 56.8159C29.6804 57.0205 31.1717 57.0034 31.4643 57.03C32.2236 57.095 33.0531 57.163 33.8061 57.1717C33.7761 55.827 32.4536 54.7699 32.1358 53.5007C31.6612 51.6072 32.2318 49.3514 32.708 47.4972C33.173 45.6857 33.9456 43.5567 35.495 42.3803C36.691 41.4724 38.2991 41.1496 39.3324 40.0317C40.6133 38.6464 40.7801 36.7454 41.6714 35.1396C42.5481 33.5604 44.0388 32.4469 44.8898 30.8591C45.8841 29.0029 46.6698 26.8866 47.2077 24.8546C47.4661 23.8439 47.3487 22.6429 48.3393 22.0159C47.0212 21.5426 45.6829 20.3259 45.5857 19.0493C46.041 20.6553 47.9875 21.4638 49.6292 21.5516ZM39.3695 40.7342C39.4238 44.4218 38.6925 48.0634 38.5854 51.732C38.6846 52.8605 39.5906 53.6544 40.0367 54.6422C40.12 54.8276 40.5156 55.5139 40.4243 55.7099C40.4076 55.7451 40.1216 55.7644 40.0762 55.7717C39.2063 55.9047 38.3261 55.9654 37.4484 56.021C37.3849 56.0253 36.994 56.0817 36.9611 56.0296C36.5173 55.3124 36.1558 54.4718 35.7483 53.7236C35.0544 52.4503 35.6469 50.8646 35.637 49.5017C35.6228 47.5346 34.768 45.8063 34.7922 43.8766C35.8476 42.2282 37.9535 41.9435 39.3695 40.7342ZM9.28217 38.7351C10.0056 40.8682 10.2045 43.2006 10.9977 45.3119C10.4319 46.5863 10.7473 48.0676 10.7974 49.4358C10.8282 50.3043 10.6898 51.2718 11.1639 52.0423C11.718 52.9438 12.6888 53.5096 13.2391 54.4121C13.41 54.69 13.5396 55.0219 13.631 55.3295C13.3377 55.4009 12.929 55.3349 12.6232 55.3359C11.855 55.3515 11.088 55.398 10.32 55.4307C9.76475 55.6025 9.45133 54.5368 9.264 54.1606C8.47964 52.7789 8.46073 51.6686 8.41275 50.1294C8.29327 48.1923 7.33109 46.4436 7.16172 44.5245C6.98732 42.8317 7.89393 39.7128 9.28217 38.7351ZM20.778 41.2585C20.752 42.4395 20.0557 43.2957 18.8821 43.5739C18.5831 44.2116 18.6551 44.9754 18.6094 45.6656C18.6034 45.7818 18.6464 46.0535 18.5909 46.1622C18.1292 45.4816 17.6448 44.694 17.2172 43.9639C17.1045 43.8999 16.7807 43.9703 16.6478 43.9639C16.4626 43.9542 16.2275 43.9127 16.0027 43.8498C16.0999 41.1739 18.4867 40.7482 20.778 41.2585ZM12.2338 24.9177C11.3091 24.8574 9.90699 25.1085 9.07859 24.6333C8.38325 24.2134 7.7438 23.4929 7.72638 22.6426C6.85578 23.2998 6.32851 24.5125 6.46679 25.5975C7.0557 27.0962 8.79093 27.7855 10.3168 27.7543C10.8414 26.794 11.4662 25.7997 12.2338 24.9177ZM39.5897 11.112C40.0982 9.56258 41.335 8.64625 42.8062 9.066C44.0691 9.36158 45.4944 11.0845 46.2361 12.5163C45.8253 12.6709 45.4799 12.8893 45.1486 13.1291C43.5894 11.8955 41.4344 10.9903 39.5897 11.112Z" fill="#2BB673"/>
</svg>
