<svg width="61" height="61" viewBox="0 0 61 61" fill="none" xmlns="http://www.w3.org/2000/svg">
<path d="M21.1403 23.2227C15.8869 28.4762 2.22814 50.5402 6.43083 54.7429C10.6336 58.9457 32.6977 45.2869 37.9512 40.0334C43.2044 34.7802 46.3567 31.6282 37.9512 23.2227C29.5457 14.8173 26.3937 17.9693 21.1403 23.2227Z" stroke="#944446" stroke-width="2"/>
<path d="M36.8896 39.2842L33.1396 35.5342" stroke="#944446" stroke-width="2" stroke-linecap="round" stroke-linejoin="round"/>
<path d="M18.1396 28.0342L21.8896 31.7842" stroke="#944446" stroke-width="2" stroke-linecap="round" stroke-linejoin="round"/>
<path d="M23.1396 48.0342L20.6396 45.5342" stroke="#944446" stroke-width="2" stroke-linecap="round" stroke-linejoin="round"/>
<path d="M38.1396 5.53418C39.4359 6.83048 40.2784 9.61745 38.1399 13.3117M55.6396 23.0342C54.3434 21.7379 51.5566 20.8953 47.8626 23.0342M48.8351 12.339L43.9744 17.2001" stroke="#944446" stroke-width="2" stroke-linecap="round" stroke-linejoin="round"/>
<path d="M38.3584 31.8709C41.0168 32.0888 41.4061 35.2278 43.8398 36.3686C44.8116 36.8241 46.6482 35.8943 46.4542 36.3686C46.0752 37.2948 46.1096 38.3914 45.7688 39.3456C45.3542 40.5064 45.4012 41.8181 44.955 43.008C44.2923 44.775 43.7972 46.5365 42.7704 48.1482C41.363 50.3573 38.6034 52.2678 36.056 52.6244C33.0031 53.0518 29.2355 47.5862 28.3878 43.6735C27.7482 40.7217 27.5516 42.9806 27.9066 39.9881L27.91 39.9595C28.1347 38.0653 28.3806 35.9923 29.6629 34.4838C30.6499 33.3225 32.4108 31.9187 34.0106 31.8388C35.4362 31.7675 36.9357 31.7543 38.3584 31.8709Z" fill="white"/>
<path d="M36.8896 29.8179L36.0484 32.0912C34.9453 35.0721 34.3939 36.5626 33.3065 37.6498C32.2194 38.7371 30.729 39.2887 27.7481 40.3917L25.4746 41.2329L27.7481 42.0741C30.729 43.1772 32.2194 43.7287 33.3065 44.816C34.3939 45.9032 34.9453 47.3937 36.0484 50.3746L36.8896 52.6479L37.7309 50.3746C38.834 47.3937 39.3854 45.9032 40.4728 44.8159C41.5599 43.7287 43.0503 43.1772 46.0312 42.0741L48.3047 41.2329L46.0312 40.3917C43.0503 39.2887 41.5599 38.7371 40.4728 37.6498C39.3854 36.5626 38.834 35.0721 37.7309 32.0912L36.8896 29.8179Z" stroke="#944446" stroke-width="2" stroke-linejoin="round"/>
<path d="M48.6023 45.5342L48.1997 46.6221C47.6718 48.0486 47.408 48.7619 46.8876 49.2822C46.3673 49.8025 45.6541 50.0664 44.2276 50.5943L43.1396 50.9968L44.2276 51.3994C45.6541 51.9272 46.3673 52.1912 46.8876 52.7115C47.408 53.2318 47.6718 53.9451 48.1997 55.3716L48.6023 56.4595L49.0049 55.3716C49.5328 53.9451 49.7966 53.2318 50.317 52.7115C50.8372 52.1912 51.5505 51.9272 52.977 51.3994L54.0649 50.9968L52.977 50.5943C51.5505 50.0664 50.8372 49.8025 50.317 49.2822C49.7966 48.7619 49.5328 48.0486 49.0049 46.6221L48.6023 45.5342Z" stroke="#944446" stroke-width="2" stroke-linejoin="round"/>
</svg>
