<svg width="121" height="121" viewBox="0 0 121 121" fill="none" xmlns="http://www.w3.org/2000/svg">
<path d="M41.0428 45.8553C30.5361 56.3623 3.21848 100.49 11.6239 108.896C20.0293 117.301 64.1575 89.9838 74.6645 79.4768C85.171 68.9703 91.4755 62.6663 74.6645 45.8553C57.8535 29.0445 51.5495 35.3486 41.0428 45.8553Z" stroke="#C98A50" stroke-width="3"/>
<path d="M72.5415 77.9783L65.0415 70.4783" stroke="#C98A50" stroke-width="3" stroke-linecap="round" stroke-linejoin="round"/>
<path d="M35.0415 55.4783L42.5415 62.9783" stroke="#C98A50" stroke-width="3" stroke-linecap="round" stroke-linejoin="round"/>
<path d="M45.0415 95.4783L40.0415 90.4783" stroke="#C98A50" stroke-width="3" stroke-linecap="round" stroke-linejoin="round"/>
<path d="M75.0415 10.4783C77.634 13.0709 79.319 18.6448 75.042 26.0334M110.042 45.4783C107.449 42.8857 101.876 41.2005 94.4875 45.4783M96.4325 24.0879L86.711 33.8101" stroke="#C98A50" stroke-width="3" stroke-linecap="round" stroke-linejoin="round"/>
</svg>
