<svg width="32" height="32" viewBox="0 0 32 32" fill="none" xmlns="http://www.w3.org/2000/svg">
<path d="M12.1816 17.8364V18.3014" stroke="#EBEDE0" stroke-width="1.5" stroke-linecap="round" stroke-linejoin="round"/>
<path d="M19.6216 17.8364V18.3014" stroke="#EBEDE0" stroke-width="1.5" stroke-linecap="round" stroke-linejoin="round"/>
<path d="M15.2041 19.9292H16.5991L15.9016 20.6267L15.2041 19.9292Z" stroke="#EBEDE0" stroke-width="1.5" stroke-linecap="round" stroke-linejoin="round"/>
<path d="M7.7227 4.85059L12.2881 7.87445L16.2605 7.57798L20.4109 7.87445L21.656 6.57004L25.0356 4.85059V7.57798L24.2648 10.839L25.7471 13.0327L26.2807 19.199L24.6205 23.2307L20.4109 26.4917L15.7862 27.1439L10.2129 25.7209L6.53687 21.9263L5.94397 17.1238L6.53687 13.0327L7.7227 10.5425L7.01124 5.44351L7.7227 4.85059Z" fill="#2BB673"/>
<path d="M28.7087 19.9751C28.9658 19.9751 29.1744 19.7557 29.1744 19.4854C29.1744 19.215 28.9658 18.9957 28.7087 18.9957H26.6491C26.7109 18.5531 26.7498 18.0978 26.7631 17.6285L28.7523 17.1796C29.0034 17.1235 29.1647 16.8633 29.1101 16.5981C29.0568 16.3341 28.8093 16.1632 28.557 16.2219L26.7546 16.6287C26.6527 14.4555 26.0026 12.5552 24.9 11.0262C25.874 5.29743 25.4033 4.79889 25.2469 4.63435C24.9897 4.36398 24.507 3.86914 19.6492 7.42859C18.5503 7.11231 17.3543 6.93886 16.0674 6.93886C14.7599 6.93886 13.5457 7.11996 12.431 7.44645C7.63009 3.86264 7.14506 4.36271 6.88764 4.63435C6.73117 4.79887 6.25814 5.29881 7.17026 11.1118C6.10529 12.6256 5.47941 14.4964 5.37995 16.6287L3.5775 16.2219C3.32763 16.1632 3.07897 16.3341 3.02441 16.5981C2.96983 16.8621 3.13115 17.1222 3.38222 17.1796L5.37023 17.6272C5.38479 18.0966 5.42361 18.5518 5.48425 18.9944L3.4283 18.9957C3.17115 18.9957 2.96252 19.215 2.96252 19.4854C2.96252 19.7557 3.17115 19.9751 3.4283 19.9751H5.66739C5.76443 20.396 5.88087 20.8041 6.02278 21.1956L3.38461 21.7899C3.13353 21.846 2.97221 22.1062 3.0268 22.3714C3.07411 22.601 3.26697 22.7591 3.48164 22.7591C3.51439 22.7591 3.54714 22.7553 3.57989 22.7477L6.40851 22.11C8.0375 25.4907 11.4749 27.5084 16.0683 27.5084C20.6618 27.5084 24.0992 25.4908 25.7294 22.11L28.558 22.7477C28.5908 22.7553 28.6235 22.7591 28.6563 22.7591C28.871 22.7591 29.0638 22.6023 29.1111 22.3714C29.1657 22.1074 29.0044 21.8473 28.7533 21.7899L26.1139 21.1956C26.2558 20.8041 26.3723 20.396 26.4693 19.9751L28.7087 19.9751ZM24.5751 5.46685C24.6309 6.18103 24.4089 8.15906 24.1093 10.0758C23.1935 9.11295 22.0655 8.34773 20.7604 7.81593C22.2911 6.72936 23.9273 5.6913 24.5751 5.46685ZM7.55852 5.46812C8.20138 5.69386 9.82432 6.74343 11.3344 7.83513C10.0195 8.37843 8.88665 9.15764 7.96964 10.1396C7.69187 8.1986 7.49179 6.18639 7.55852 5.46812ZM25.2057 20.9914L23.6071 20.6318C23.356 20.5731 23.1085 20.744 23.054 21.008C22.9994 21.272 23.1607 21.5321 23.4118 21.5895L24.8055 21.9032C23.299 24.8339 20.2266 26.5288 16.0685 26.5288C11.9104 26.5288 8.83815 24.8339 7.33029 21.9019L8.72519 21.5882C8.97626 21.5321 9.13758 21.2719 9.08299 21.0067C9.02962 20.7427 8.78097 20.5718 8.5299 20.6305L6.93124 20.9914C6.80874 20.6662 6.70685 20.3257 6.61952 19.9762H8.68153C8.93867 19.9762 9.1473 19.7569 9.1473 19.4865C9.1473 19.2161 8.93867 18.9968 8.68153 18.9968H6.42544C6.36965 18.6231 6.33326 18.238 6.31385 17.8413L8.52991 18.3412C8.56266 18.3489 8.59541 18.3527 8.62816 18.3527C8.84285 18.3527 9.03571 18.1958 9.083 17.965C9.13759 17.701 8.97626 17.4408 8.7252 17.3835L6.30414 16.8376C6.4788 11.4098 10.2657 7.92071 16.0683 7.92071C21.8712 7.91944 25.6592 11.4089 25.8325 16.8376L23.4114 17.3835C23.1603 17.4396 22.999 17.6997 23.0536 17.965C23.1009 18.1946 23.2938 18.3527 23.5084 18.3527C23.5412 18.3527 23.5739 18.3489 23.6067 18.3412L25.8227 17.8413C25.8033 18.2379 25.767 18.6231 25.7112 18.9968H23.4551C23.1979 18.9968 22.9893 19.2161 22.9893 19.4865C22.9893 19.7569 23.1979 19.9762 23.4551 19.9762H25.5171C25.4298 20.3257 25.3279 20.6649 25.2054 20.9914L25.2057 20.9914Z" fill="black"/>
<path d="M20.7434 20.5673C20.5202 20.4308 20.2364 20.5099 20.1066 20.7432C19.807 21.2827 19.1362 21.6322 18.3975 21.6322C17.3702 21.6322 16.5344 20.9728 16.5344 20.163C16.5344 20.1553 16.5308 20.149 16.5308 20.1426C16.7334 20.0712 16.9262 19.9551 17.0876 19.7855L17.8651 18.968C18.144 18.6747 18.2265 18.2385 18.0761 17.8546C17.9257 17.472 17.5727 17.2246 17.1785 17.2246H14.9625C14.5683 17.2246 14.2153 17.472 14.0649 17.8546C13.9145 18.2372 13.997 18.6747 14.276 18.968L15.0535 19.7855C15.2148 19.9551 15.4064 20.0699 15.6102 20.1426C15.6102 20.1502 15.6066 20.1566 15.6066 20.163C15.6066 20.9728 14.7708 21.6322 13.7435 21.6322C13.0048 21.6322 12.334 21.284 12.0344 20.7432C11.9046 20.5099 11.6196 20.4308 11.3976 20.5673C11.1757 20.7037 11.1005 21.0034 11.2302 21.2368C11.7009 22.0849 12.664 22.6116 13.7435 22.6116C14.7151 22.6116 15.5714 22.1742 16.0724 21.5135C16.5733 22.1741 17.4297 22.6116 18.4012 22.6116C19.482 22.6116 20.445 22.0849 20.9145 21.2368C21.0406 21.0034 20.9654 20.7037 20.7434 20.5673ZM14.9321 18.2755L14.96 18.2041H17.176L17.2039 18.2755L16.4264 19.093C16.2287 19.3009 15.9061 19.3021 15.7072 19.093L14.9321 18.2755Z" fill="black"/>
<path d="M21.8906 15.2651C21.8906 16.571 20.0275 16.571 20.0275 15.2651C20.0275 13.9592 21.8906 13.9592 21.8906 15.2651Z" fill="black"/>
<path d="M12.1095 15.2651C12.1095 16.571 10.2464 16.571 10.2464 15.2651C10.2464 13.9592 12.1095 13.9592 12.1095 15.2651Z" fill="black"/>
</svg>
