<svg width="38" height="38" viewBox="0 0 38 38" fill="none" xmlns="http://www.w3.org/2000/svg">
<path fill-rule="evenodd" clip-rule="evenodd" d="M22.5575 29.0499C23.3194 29.0471 23.7734 28.3026 24.2867 27.8401C24.7459 27.4446 25.3133 27.1691 25.7146 26.7063C26.0077 26.3688 26.136 25.8366 26.4917 25.5627C28.2135 24.5632 28.4842 25.32 29.4762 23.092C30.0426 22.02 30.7116 21.0949 30.8312 19.8351C30.994 18.1189 30.657 16.1983 29.8806 14.6602C29.3602 13.6291 28.462 12.6944 28.216 11.5432C28.0766 11.5185 27.9223 11.4754 27.7664 11.4195C27.5395 11.3497 26.6171 10.9257 26.9321 10.9061C27.0762 10.9733 27.3727 11.0417 27.6865 11.0901C28.0995 11.1318 28.7624 11.2283 29.0889 11.0008C29.5049 10.6112 29.2993 9.91911 29.7628 9.54724C29.9315 9.41217 31.1292 9.43208 31.0722 9.34597C30.9187 9.11349 30.0058 8.74808 29.8913 8.52529C29.8534 8.45156 29.8915 8.39667 29.873 8.2998C29.8242 8.04364 29.6738 7.85798 29.6458 7.59428C29.6417 7.55607 29.6475 7.20682 29.5908 7.18152C29.4476 7.11802 29.1849 7.22296 29.0635 7.14331C28.7427 6.93343 28.4774 6.61861 28.1143 6.43833C28.0151 6.38936 27.7353 6.54327 27.6466 6.56533C27.4797 6.60623 27.2512 6.34254 27.0854 6.38075C26.9549 6.41089 26.8187 6.59385 26.6983 6.65843C26.6157 6.70256 26.2674 6.758 26.2285 6.81773C26.1004 7.01523 26.1394 7.27731 25.9722 7.4549C25.6682 7.77833 25.4936 7.64056 25.3836 8.12436C21.4786 10.9482 24.671 13.45 21.9172 15.0118C20.2656 15.8832 17.9508 15.4114 16.6116 14.1221C16.1115 13.6303 15.7264 12.8569 15.1611 12.3247C14.9168 12.0949 14.5631 12.0061 14.2986 11.8005C13.9434 11.5245 13.6805 11.1063 13.2652 10.9164C12.946 10.77 12.5696 10.8044 12.2491 10.6559C11.5909 10.3513 11.0855 9.74911 10.3534 9.58497C10.1792 9.54622 9.89081 9.77601 9.72264 9.82121C9.40018 9.90786 9.05791 9.77224 8.75009 9.85727C8.58757 9.90248 8.10215 10.0623 8.01874 10.1952C7.70123 10.7006 7.90573 11.6859 8.0182 12.2063C8.03542 12.2838 7.46552 12.4097 7.46229 12.5782C7.45798 12.8004 7.61997 12.9899 7.64526 13.2062C7.69046 13.5861 7.60866 14 7.66517 14.3665C7.71037 14.6581 7.91434 14.8852 7.98645 15.1635C8.06233 15.4584 8.01766 15.7883 8.07794 16.0912C8.15328 16.4722 8.09085 16.8506 8.23615 17.2224C8.37015 17.5647 8.66883 17.8042 8.79368 18.1416C8.90615 18.4462 8.73233 18.7099 8.9336 19.0263C9.16016 19.3831 10.0028 20.4438 10.3071 20.7436C10.4973 20.9303 10.869 21.0643 11.0168 21.2774C11.0246 21.2887 10.7219 21.5793 10.6916 21.6111C10.4979 21.8123 10.3498 22.0577 10.1992 22.2918C10.0163 22.576 10.291 23.2718 10.3626 23.5877C10.9052 25.9146 11.603 25.4265 13.1223 26.682C13.8167 27.3682 14.0541 28.1765 14.9891 28.6458C15.706 29.0053 16.6368 29.2448 17.5345 29.3061C17.796 29.7996 18.1342 30.4874 18.3322 31.0164C18.1574 31.0149 17.9867 31.034 17.8132 31.075C17.759 31.0765 16.8255 31.3681 17.175 31.4318C17.9804 31.2683 18.7207 31.4207 19.4254 31.7849C19.651 31.9086 19.8697 32.0561 20.0843 32.245C20.1302 32.2995 20.2168 32.2249 20.1675 32.1718C19.9539 31.8557 19.7165 31.5882 19.4129 31.3737C20.0115 31.361 20.5539 31.4975 21.1302 31.7547C21.1572 31.7693 21.191 31.7596 21.2055 31.7327C21.2202 31.7052 21.2101 31.6718 21.1831 31.6573C20.5603 31.2661 19.9388 31.0306 19.233 31.0035C19.401 30.9104 19.5805 30.8409 19.7745 30.7844C19.8457 30.7755 19.8303 30.6634 19.7588 30.6746C19.3969 30.6773 19.0512 30.7133 18.7466 30.8974C18.5693 30.419 18.28 29.8115 18.028 29.3212C19.0524 29.3351 19.3103 29.0806 20.1952 28.7502L20.4749 28.564C20.889 28.3096 21.2753 28.0114 21.6351 27.6675C21.9826 27.5575 20.8583 28.6713 20.7964 28.7077C21.2014 28.7583 21.6096 28.9165 22.0167 28.9994L23.1037 30.7231C22.9395 30.752 22.7816 30.8029 22.6326 30.8802C22.4165 30.9932 22.2201 31.1498 22.0382 31.3603C21.9848 31.4077 22.0589 31.4919 22.1126 31.4431C22.8847 30.8865 23.8143 31.11 24.6205 31.4684C24.7976 31.5497 24.9786 31.6396 25.1675 31.7499C25.2233 31.7944 25.2936 31.7051 25.2351 31.6616C24.9331 31.3652 24.6341 31.1195 24.2726 30.9319C24.9278 30.8692 25.5272 31.0419 26.158 31.3091C26.1853 31.3231 26.2188 31.3124 26.2328 31.2849C26.2467 31.2575 26.2359 31.2241 26.2086 31.2101C25.5236 30.8089 24.8634 30.5391 24.113 30.5751C24.2966 30.4615 24.4953 30.3765 24.7096 30.306C24.7804 30.2932 24.7591 30.1826 24.6884 30.1968C24.3772 30.2178 24.0825 30.2662 23.8107 30.3905C23.7067 30.4379 23.6094 30.4981 23.5172 30.5719L22.5575 29.0499Z" fill="#00683D"/>
</svg>
