<svg width="40" height="41" viewBox="0 0 40 41" fill="none" xmlns="http://www.w3.org/2000/svg">
<path d="M18.3281 15.2559H33.3195C34.146 15.2559 34.5593 15.2559 34.802 15.523C35.0446 15.7901 35.0128 16.2102 34.9495 17.0504L33.9145 30.7672C33.6941 33.6872 33.584 35.1474 32.6436 36.0349C31.7035 36.9225 30.267 36.9225 27.3941 36.9225H19.8871C17.0141 36.9225 15.5777 36.9225 14.6374 36.0349C13.2384 34.7142 13.4626 32.038 13.3281 30.2559" stroke="#944446" stroke-width="2" stroke-linecap="round" stroke-linejoin="round"/>
<path d="M18.3294 15.1045V24.1954C18.3294 27.0524 18.3294 28.4809 17.3531 29.3685C16.3768 30.256 14.8055 30.256 11.6628 30.256C8.52006 30.256 6.94871 30.256 5.97241 29.3685C4.99609 28.4809 4.99609 27.0524 4.99609 24.1954V22.6802C4.99609 18.3947 4.99609 16.252 6.46056 14.9207C7.92503 13.5894 10.282 13.5894 14.9961 13.5894H16.6628C17.4484 13.5894 17.8413 13.5894 18.0854 13.8112C18.3294 14.0331 18.3294 14.3903 18.3294 15.1045Z" stroke="#944446" stroke-width="2" stroke-linecap="round" stroke-linejoin="round"/>
<path d="M31.6628 15.256C31.6628 8.81271 27.9128 3.58936 23.2871 3.58936C19.0674 3.58936 15.5767 7.93554 14.9961 13.5894" stroke="#944446" stroke-width="2" stroke-linecap="round" stroke-linejoin="round"/>
<path d="M4.99609 23.5894H18.3294" stroke="#944446" stroke-width="2" stroke-linecap="round" stroke-linejoin="round"/>
<path d="M18.3281 21.9229H33.3281" stroke="#944446" stroke-width="2" stroke-linecap="round" stroke-linejoin="round"/>
</svg>
