<svg width="34" height="34" viewBox="0 0 34 34" fill="none" xmlns="http://www.w3.org/2000/svg">
<rect x="0.548828" y="0.404297" width="33" height="33" rx="16.5" fill="white"/>
<path fill-rule="evenodd" clip-rule="evenodd" d="M17.0507 0.404297C7.94505 0.404297 0.548828 7.79748 0.548828 16.9062C0.548828 26.0119 7.94513 33.4049 17.0507 33.4049C26.1564 33.4049 33.5495 26.0117 33.5495 16.9062C33.5495 7.79732 26.1563 0.404297 17.0507 0.404297ZM17.0507 2.90722C24.7783 2.90722 31.0497 9.17858 31.0497 16.9061C31.0497 24.6337 24.7783 30.905 17.0507 30.905C9.32318 30.905 3.05183 24.6337 3.05183 16.9061C3.05183 9.17858 9.32318 2.90722 17.0507 2.90722Z" fill="#00683D"/>
<path fill-rule="evenodd" clip-rule="evenodd" d="M17.0494 15.137L11.1186 9.20935C10.6311 8.72188 9.83737 8.72188 9.34997 9.20935C8.86251 9.69682 8.86251 10.4874 9.34997 10.9748L15.2808 16.9056L9.34997 22.8333C8.86251 23.3208 8.86251 24.1114 9.34997 24.5988C9.83743 25.0894 10.6311 25.0894 11.1186 24.5988L17.0494 18.6743L22.9771 24.5988C23.4645 25.0894 24.2551 25.0894 24.7457 24.5988C25.2331 24.1113 25.2331 23.3207 24.7457 22.8333L18.8148 16.9056L24.7457 10.9748C25.2331 10.4873 25.2331 9.69675 24.7457 9.20935C24.2551 8.72188 23.4645 8.72188 22.9771 9.20935L17.0494 15.137Z" fill="#00683D"/>
</svg>
