<svg width="81" height="81" viewBox="0 0 81 81" fill="none" xmlns="http://www.w3.org/2000/svg">
<path d="M66.3953 28.8463H56.0744C57.8169 27.4513 58.9344 25.3072 58.9344 22.9063V8.81966C58.9344 8.35883 58.5611 7.98633 58.1011 7.98633H49.8069C49.3469 7.98633 48.9736 8.35883 48.9736 8.81966V20.5513H24.9244C22.4761 20.5513 20.1844 21.5038 18.4769 23.2255C12.5194 28.7322 17.3744 39.1013 25.2703 38.8063H28.5353C26.9044 39.7963 25.5019 41.3455 24.7853 43.0447C23.8619 43.4355 23.0019 43.9588 22.2278 44.623C13.3478 37.078 0.75527 48.3272 7.26194 58.0197C6.72444 57.9922 21.2969 72.2105 21.6394 72.6388C21.9503 72.9597 22.5086 72.9622 22.8186 72.6372C25.1019 69.8572 37.8961 59.0122 38.4494 55.3955C57.0578 55.7138 54.5594 52.1355 54.6269 71.1505C54.6269 71.6113 55.0003 71.9838 55.4603 71.9838H66.3953C66.8553 71.9838 67.2286 71.6113 67.2286 71.1505V55.9447C67.2286 52.233 65.2894 48.9713 62.3761 47.1013C78.7978 49.2722 79.5219 29.6747 66.3953 28.8463ZM37.0128 54.3613C36.6078 57.7747 29.2819 63.428 27.2094 65.8772L22.2269 70.8713C21.8228 70.4397 8.35944 57.2055 8.6386 57.0822C3.0886 47.8547 14.5511 39.4538 22.2278 46.5905C28.6386 40.6313 38.9111 45.3847 37.0128 54.3613ZM73.8561 38.0597C73.2378 47.5847 63.1894 45.1555 56.7186 45.4338C55.9186 45.4338 50.7244 45.4338 49.8069 45.4338C48.7311 45.418 48.7219 47.1163 49.8069 47.1005H56.7186C61.5953 47.1005 65.5619 51.068 65.5619 55.9438V70.3163H56.2936C56.5444 50.888 57.2144 53.9697 38.8178 53.728C39.9686 47.1972 33.6069 41.0138 27.0836 42.3505C28.8094 40.0355 31.5728 38.8172 34.6003 38.8063H53.9536H58.1011C59.1711 38.8197 59.1903 37.1255 58.1011 37.1397C55.6419 37.1355 37.5169 37.143 34.6011 37.1397C30.6111 36.8397 22.5169 38.388 19.5861 34.7247C14.9128 30.3038 18.6186 22.0063 24.9244 22.218H49.8069C50.2669 22.218 50.6403 21.8455 50.6403 21.3847V9.65299H57.2678V22.9055C57.2678 26.1813 54.6028 28.8455 51.3278 28.8455H31.6978C30.6278 28.8288 30.6086 30.5288 31.6978 30.5122H51.3278H66.3961C70.5411 30.5097 73.9053 33.9163 73.8561 38.0597ZM28.4219 56.548H23.0594V61.9105C23.0594 62.3713 22.6861 62.7438 22.2261 62.7438C21.7661 62.7438 21.3928 62.3713 21.3928 61.9105V56.548H16.0303C15.5703 56.548 15.1969 56.1755 15.1969 55.7147C15.1969 55.2538 15.5703 54.8813 16.0303 54.8813H21.3928V49.5188C21.3928 49.058 21.7661 48.6855 22.2261 48.6855C22.6861 48.6855 23.0594 49.058 23.0594 49.5188V54.8813H28.4219C29.5036 54.8647 29.5028 56.5647 28.4219 56.548Z" fill="#944446"/>
</svg>
