<svg width="32" height="32" viewBox="0 0 32 32" fill="none" xmlns="http://www.w3.org/2000/svg">
<path d="M12.3316 17.8364V18.3014" stroke="#EBEDE0" stroke-width="1.5" stroke-linecap="round" stroke-linejoin="round"/>
<path d="M19.7716 17.8364V18.3014" stroke="#EBEDE0" stroke-width="1.5" stroke-linecap="round" stroke-linejoin="round"/>
<path d="M15.3541 19.9292H16.7491L16.0516 20.6267L15.3541 19.9292Z" stroke="#EBEDE0" stroke-width="1.5" stroke-linecap="round" stroke-linejoin="round"/>
<path d="M13.5907 5.11112L16.1909 4.56689L19.0329 5.11112L21.6935 6.38095L24.2937 7.16704L26.9543 10.2509L28.9497 13.3953L29.7963 16.3582L28.2241 18.5956L25.5635 19.2607L24.8379 22.8888L22.4796 24.461L19.8795 24.7634L18.6096 26.5774L16.1909 27.424L13.5907 26.5774L12.6837 24.461H9.84171L7.48341 22.1632L6.51594 19.2607L3.97627 18.5956L2.70642 15.935L4.58094 11.2789L7.48341 7.16704L10.8092 6.38095L13.5907 5.11112Z" fill="#2BB673"/>
<path fill-rule="evenodd" clip-rule="evenodd" d="M12.0586 12.036C12.3121 11.7293 12.6939 11.5325 13.1224 11.5325C13.5508 11.5325 13.9343 11.7292 14.1861 12.036C14.4211 12.3211 14.8413 12.3611 15.1264 12.1277C15.4098 11.8926 15.4515 11.4725 15.2164 11.1891C14.7196 10.5838 13.966 10.1987 13.1224 10.1987C12.2804 10.1987 11.5268 10.5839 11.03 11.1891C10.7949 11.4725 10.8366 11.8926 11.12 12.1277C11.4051 12.3611 11.8252 12.3211 12.0586 12.036Z" fill="black"/>
<path fill-rule="evenodd" clip-rule="evenodd" d="M18.1925 12.036C18.4459 11.7293 18.8277 11.5325 19.2562 11.5325C19.6847 11.5325 20.0664 11.7292 20.3199 12.036C20.555 12.3211 20.9751 12.3611 21.2585 12.1277C21.5436 11.8926 21.5837 11.4725 21.3502 11.1891C20.8517 10.5838 20.0998 10.1987 19.2562 10.1987C18.4126 10.1987 17.6606 10.5839 17.1622 11.1891C16.9287 11.4725 16.9688 11.8926 17.2539 12.1277C17.5373 12.3611 17.9574 12.3211 18.1925 12.036Z" fill="black"/>
<path fill-rule="evenodd" clip-rule="evenodd" d="M11.3536 5.52052L10.4416 5.6439C8.26919 5.93733 6.3635 7.23946 5.30146 9.1568C4.51283 10.5789 3.51251 12.3829 2.53548 14.1484C1.79022 15.4905 1.93863 17.1528 2.91062 18.3448C3.69758 19.3135 4.90132 19.812 6.11173 19.7187C6.09172 19.832 6.08172 19.9037 6.08172 19.9321C6.08172 22.9048 8.49587 25.3189 11.4685 25.3189C11.6803 25.3189 11.8904 25.3072 12.0971 25.2822C12.754 26.8811 14.3279 28.0098 16.1618 28.0098C17.9992 28.0098 19.5764 26.8795 20.2299 25.2756C20.4533 25.3039 20.6801 25.3189 20.9102 25.3189C23.8845 25.3189 26.2987 22.9048 26.2987 19.9321C26.2987 19.9037 26.287 19.8304 26.2654 19.7137C27.4974 19.8287 28.7262 19.3285 29.5265 18.3449C30.4985 17.1528 30.6469 15.4906 29.9016 14.1484C28.9246 12.3828 27.9243 10.5789 27.1356 9.15684C26.0736 7.23951 24.1679 5.93738 21.9955 5.64394L21.0718 5.52057C19.7164 4.52191 18.0424 3.94336 16.242 3.94336H16.1553C14.373 3.95003 12.709 4.53019 11.3536 5.52052ZM18.921 24.9406C17.7556 24.4755 16.7886 23.6168 16.1884 22.5281C15.5815 23.6301 14.5978 24.4988 13.4124 24.9573C13.9076 25.9743 14.9546 26.6762 16.1617 26.6762C17.3772 26.6762 18.4275 25.9676 18.921 24.9406ZM16.8986 20.5141C17.182 22.4765 18.871 23.9853 20.91 23.9853C23.1474 23.9853 24.9647 22.168 24.9647 19.9322C24.9647 19.6671 23.896 15.0554 22.9774 10.9926C22.9757 10.9826 22.9724 10.9709 22.9707 10.9609C22.3989 7.66475 19.5845 5.27745 16.2416 5.27745H16.1599C12.8354 5.29078 9.99752 7.6866 9.429 10.9626C9.42566 10.976 9.424 10.9893 9.42066 11.001C8.48368 15.0574 7.41497 19.6674 7.41497 19.9325C7.41497 22.1683 9.23226 23.9856 11.468 23.9856C13.5071 23.9856 15.1977 22.4767 15.4811 20.5144C14.1506 20.1959 13.1619 18.9988 13.1619 17.5717C13.1619 15.9011 14.5191 14.544 16.188 14.544C17.8602 14.544 19.2157 15.9011 19.2157 17.5717C19.2157 18.9989 18.227 20.1959 16.8982 20.5144L16.8986 20.5141ZM16.1884 15.8776C17.1237 15.8776 17.8823 16.6362 17.8823 17.5716C17.8823 18.5052 17.1237 19.2655 16.1884 19.2655C15.2547 19.2655 14.4961 18.5053 14.4961 17.5716C14.4961 16.6362 15.2547 15.8776 16.1884 15.8776ZM9.66107 7.18126C8.31225 7.61473 7.16519 8.5434 6.46828 9.80216L3.70231 14.7938C3.22214 15.6624 3.31718 16.7344 3.94406 17.5031C4.53759 18.2316 5.4946 18.5484 6.39825 18.3267C6.78838 16.5244 7.47527 13.4998 8.11549 10.7289C8.34557 9.40181 8.88913 8.19661 9.66107 7.18126ZM22.7472 7.17459C23.5108 8.18495 24.0493 9.38869 24.2828 10.7158C24.908 13.4868 25.5882 16.5077 25.9784 18.3119C26.8987 18.5619 27.8857 18.2485 28.4926 17.5033C29.1195 16.7346 29.2145 15.6626 28.7343 14.794L25.9683 9.80236C25.2665 8.53523 24.1077 7.60141 22.7472 7.17459Z" fill="black"/>
</svg>
