<svg width="81" height="81" viewBox="0 0 81 81" fill="none" xmlns="http://www.w3.org/2000/svg">
<path d="M54.3645 41.0942L35.6498 30.2893C37.185 27.4448 35.8251 25.7524 34.085 24.7478C31.6908 23.3655 29.5548 25.4836 28.8251 26.349C27.3921 25.5676 24.538 23.9841 24.5857 23.9014C24.6454 23.798 20.569 21.3067 17.4051 26.7868C14.8739 31.1709 16.8395 34.1343 18.1387 35.0681L22.378 37.5157C21.6544 38.8525 20.6437 41.2146 23.6693 42.8514C26.6949 44.4882 28.5366 42.4504 29.2028 41.4559C31.288 42.6598 34.3616 44.4344 37.4524 46.2188M54.3645 41.0942C55.0684 41.5465 56.5237 43.0853 56.7138 45.6214L58.5749 46.696C60.5959 48.049 60.9605 49.7277 60.0054 51.3821C59.6978 51.9147 59.3223 52.2801 58.9119 52.5185C57.7308 53.3163 56.2571 52.838 55.2916 52.3829L53.4304 51.3084C52.7991 52.3223 50.8126 53.9323 47.9174 52.2608C46.222 51.282 41.8201 48.7405 37.4524 46.2188M54.3645 41.0942L37.4524 46.2188" stroke="#944446" stroke-width="2"/>
<line x1="21.2373" y1="72.8688" x2="36.935" y2="44.8902" stroke="#944446" stroke-width="2"/>
<line x1="43.2261" y1="33.9964" x2="57.9488" y2="7.33183" stroke="#944446" stroke-width="2"/>
<circle cx="40.5578" cy="40.6162" r="36.8173" transform="rotate(-60 40.5578 40.6162)" stroke="#944446" stroke-width="2"/>
<path d="M59.8994 53.3406C60.7246 54.3023 61.6255 55.4189 62.3828 56.5681C63.4127 58.131 64.0584 59.5814 64.0586 60.7C64.0586 63.0122 62.1843 64.8875 59.8721 64.8875C57.5599 64.8874 55.6855 63.0121 55.6855 60.7C55.6857 59.5878 56.3183 58.21 57.3457 56.6794C58.1232 55.5213 59.0406 54.3927 59.8994 53.3406Z" stroke="#944446" stroke-width="2"/>
</svg>
