<svg width="25" height="25" viewBox="0 0 25 25" fill="none" xmlns="http://www.w3.org/2000/svg">
<path d="M17.068 5.03673L18.058 4.04674C18.8782 3.22661 20.2079 3.22661 21.028 4.04674C21.8481 4.86688 21.8481 6.19657 21.028 7.01671L20.038 8.0067M17.068 5.03673L10.4086 11.696C9.90114 12.2036 9.54111 12.8394 9.36704 13.5357L8.64307 16.4316L11.539 15.7076C12.2353 15.5336 12.8711 15.1735 13.3787 14.666L20.038 8.0067M17.068 5.03673L20.038 8.0067" stroke="#944446" stroke-width="1.5" stroke-linejoin="round"/>
<path d="M19.642 13.9316C19.642 17.2191 19.642 18.8628 18.7341 19.9692C18.5679 20.1717 18.3822 20.3574 18.1796 20.5236C17.0733 21.4316 15.4295 21.4316 12.142 21.4316H11.6421C7.87085 21.4316 5.98525 21.4316 4.81368 20.26C3.64212 19.0885 3.64209 17.2028 3.64209 13.4316V12.9316C3.64209 9.64416 3.64209 8.00043 4.55003 6.89408C4.71626 6.69154 4.90199 6.50581 5.10453 6.33958C6.21088 5.43164 7.85461 5.43164 11.1421 5.43164" stroke="#944446" stroke-width="1.5" stroke-linecap="round" stroke-linejoin="round"/>
</svg>
