<svg width="33" height="33" viewBox="0 0 33 33" fill="none" xmlns="http://www.w3.org/2000/svg">
<path d="M15.589 8.93197C17.0618 8.93197 18.2557 7.73806 18.2557 6.2653C18.2557 4.79254 17.0618 3.59863 15.589 3.59863C14.1163 3.59863 12.9224 4.79254 12.9224 6.2653C12.9224 7.73806 14.1163 8.93197 15.589 8.93197Z" stroke="#944446" stroke-width="1.5" stroke-linecap="round" stroke-linejoin="round"/>
<path d="M24.9223 14.265C26.395 14.265 27.5889 13.0711 27.5889 11.5983C27.5889 10.1255 26.395 8.93164 24.9223 8.93164C23.4495 8.93164 22.2556 10.1255 22.2556 11.5983C22.2556 13.0711 23.4495 14.265 24.9223 14.265Z" stroke="#944446" stroke-width="1.5" stroke-linecap="round" stroke-linejoin="round"/>
<path d="M27.589 24.932C29.0618 24.932 30.2557 23.7381 30.2557 22.2653C30.2557 20.7925 29.0618 19.5986 27.589 19.5986C26.1163 19.5986 24.9224 20.7925 24.9224 22.2653C24.9224 23.7381 26.1163 24.932 27.589 24.932Z" stroke="#944446" stroke-width="1.5" stroke-linecap="round" stroke-linejoin="round"/>
<path d="M12.9224 14.2646C13.7978 14.2646 14.6647 14.4371 15.4736 14.7721C16.2824 15.1071 17.0173 15.5982 17.6364 16.2173C18.2555 16.8363 18.7465 17.5713 19.0816 18.3801C19.4166 19.1889 19.589 20.0558 19.589 20.9313V25.598C19.5887 26.7133 19.1889 27.7915 18.4621 28.6375C17.7353 29.4835 16.7296 30.0412 15.6271 30.2096C14.5247 30.378 13.3983 30.1461 12.4521 29.5557C11.5059 28.9653 10.8024 28.0556 10.469 26.9913C9.90013 25.1558 8.70013 23.9535 6.86902 23.3846C5.80527 23.0515 4.89591 22.3485 4.3055 21.403C3.71509 20.4575 3.48264 19.3319 3.6502 18.2298C3.81777 17.1278 4.37428 16.1221 5.21903 15.3948C6.06378 14.6675 7.14098 14.2666 8.25569 14.2646H12.9224Z" stroke="#944446" stroke-width="1.5" stroke-linecap="round" stroke-linejoin="round"/>
</svg>
