<svg width="121" height="122" viewBox="0 0 121 122" fill="none" xmlns="http://www.w3.org/2000/svg">
<path d="M108.298 55.9661C109.818 58.1154 110.578 59.1903 110.578 60.7809C110.578 62.3716 109.818 63.4465 108.298 65.5957C101.468 75.2535 84.0241 96.0726 60.5781 96.0726C37.132 96.0726 19.6886 75.2535 12.8583 65.5957C11.3382 63.4465 10.5781 62.3716 10.5781 60.7809C10.5781 59.1903 11.3382 58.1154 12.8583 55.9661C19.6886 46.3085 37.132 25.4893 60.5781 25.4893C84.0241 25.4893 101.468 46.3085 108.298 55.9661Z" stroke="#C98A50" stroke-width="3"/>
<path d="M75.5781 60.781C75.5781 52.4275 68.8626 45.656 60.5781 45.656C52.2936 45.656 45.5781 52.4275 45.5781 60.781C45.5781 69.1345 52.2936 75.906 60.5781 75.906C68.8626 75.906 75.5781 69.1345 75.5781 60.781Z" stroke="#C98A50" stroke-width="3"/>
<path d="M93.8452 79.0557C92.6251 77.8356 91.4763 77.2726 89.921 76.4216C89.0372 76.2371 88.0902 76.4445 87.3819 77.0438C86.7544 77.5747 86.0064 77.7586 85.2526 77.9827C84.0577 78.3379 83.0131 79.0874 81.958 79.7264C80.7284 80.4711 79.3369 80.9609 78.1857 81.8389C77.043 82.7104 76.1821 83.4111 75.6372 84.7981C75.1176 86.1207 75.6809 88.0539 75.8971 89.3753C76.1531 90.9397 76.7527 91.7854 77.9174 92.8207C78.9454 93.7345 79.695 94.8999 81.0024 95.5033C84.3041 97.0272 88.0052 95.1194 91.1207 94.1201C92.0137 93.8337 92.8861 93.4901 93.6943 93.0051C94.3802 92.5936 94.7188 91.8653 95.3039 91.3453C96.2001 90.5487 96.5344 89.6592 96.9973 88.5621C97.8681 86.498 97.6592 83.9676 96.6536 81.9563C96.0576 80.7644 94.7639 79.9744 93.8452 79.0557Z" fill="#F9FAF1"/>
<path d="M86.4839 71.6479L86.4839 100.135" stroke="#C98A50" stroke-width="3" stroke-linecap="round"/>
<path d="M100.609 85.8911L72.3579 85.8911" stroke="#C98A50" stroke-width="3" stroke-linecap="round"/>
</svg>
