<svg width="41" height="41" viewBox="0 0 41 41" fill="none" xmlns="http://www.w3.org/2000/svg">
<path d="M20.4999 4.26953C16.1956 4.26953 12.0677 5.97938 9.02413 9.02294C5.98057 12.0665 4.27072 16.1945 4.27072 20.4987C4.27072 24.8029 5.98057 28.9309 9.02413 31.9744C12.0677 35.018 16.1956 36.7279 20.4999 36.7279C24.8041 36.7279 28.9321 35.018 31.9756 31.9744C35.0192 28.9309 36.7291 24.8029 36.7291 20.4987C36.7291 16.1945 35.0192 12.0665 31.9756 9.02294C28.9321 5.97938 24.8041 4.26953 20.4999 4.26953Z" fill="#00683D"/>
<path d="M22.6965 24.801H26.8965L27.5559 20.5344H22.6957V18.2026C22.6957 16.4302 23.2748 14.8585 24.9327 14.8585H27.5969V11.1352C27.1288 11.072 26.1388 10.9336 24.2682 10.9336C20.3621 10.9336 18.0721 12.9964 18.0721 17.696V20.5344H14.0566V24.801H18.0721V36.5278C18.8673 36.6474 19.6728 36.7286 20.4996 36.7286C21.247 36.7286 21.9765 36.6602 22.6965 36.5629V24.801Z" fill="white"/>
</svg>
