<svg width="40" height="41" viewBox="0 0 40 41" fill="none" xmlns="http://www.w3.org/2000/svg">
<path d="M26.0903 27.1922L25.5159 23.4924C25.3448 22.3894 25.2591 21.8379 25.1273 21.3659C24.2156 18.1024 21.4023 15.71 18.0091 15.3133C17.5183 15.2559 16.9553 15.2559 15.8294 15.2559C14.7035 15.2559 14.1406 15.2559 13.6497 15.3133C10.2567 15.71 7.4432 18.1024 6.53161 21.3659C6.39975 21.8379 6.31415 22.3894 6.14295 23.4924L5.56863 27.1922C5.00131 30.847 4.71765 32.6745 5.37695 34.0579C5.76393 34.87 6.36446 35.5637 7.11541 36.0664C8.3948 36.9225 10.2603 36.9225 13.9913 36.9225H17.6676C21.3986 36.9225 23.2641 36.9225 24.5434 36.0664C25.2944 35.5637 25.8949 34.87 26.2819 34.0579C26.9413 32.6745 26.6576 30.847 26.0903 27.1922Z" stroke="#944446" stroke-width="2" stroke-linecap="round" stroke-linejoin="round"/>
<path d="M15.8294 22.7559V29.4225M19.1628 26.0892H12.4961" stroke="#944446" stroke-width="2" stroke-linecap="round"/>
<path d="M20.8281 16.0892V15.2559C20.8281 12.8988 20.8281 11.7203 20.096 10.9881C19.3636 10.2559 18.1851 10.2559 15.8281 10.2559C13.4711 10.2559 12.2926 10.2559 11.5604 10.9881C10.8281 11.7203 10.8281 12.8988 10.8281 15.2559V16.0892" stroke="#944446" stroke-width="2" stroke-linecap="round" stroke-linejoin="round"/>
<path d="M18.3281 10.2555V6.08887C18.3281 4.70815 17.2088 3.58887 15.8281 3.58887C14.4474 3.58887 13.3281 4.70815 13.3281 6.08887V10.2555" stroke="#944446" stroke-width="2" stroke-linecap="round" stroke-linejoin="round"/>
<path d="M18.3281 7.28728L22.857 6.08124C25.377 5.41021 26.6368 5.07469 27.805 5.35533C28.973 5.63598 29.7166 6.45288 31.204 8.08666L31.6615 8.58919" stroke="#944446" stroke-width="2" stroke-linecap="round" stroke-linejoin="round"/>
<path d="M34.9961 17.756C34.9961 19.597 33.7461 20.256 32.4961 20.256C31.2461 20.256 29.9961 19.597 29.9961 17.756C29.9961 15.9151 32.4961 13.5894 32.4961 13.5894C32.4961 13.5894 34.9961 15.9151 34.9961 17.756Z" stroke="#944446" stroke-width="2" stroke-linejoin="round"/>
</svg>
