<svg width="123" height="122" viewBox="0 0 123 122" fill="none" xmlns="http://www.w3.org/2000/svg">
<path d="M42.7193 13.1471C50.2167 8.53978 56.7605 10.3965 60.6914 13.354C62.3034 14.5666 63.1091 15.173 63.5833 15.173C64.0576 15.173 64.8633 14.5666 66.4753 13.354C70.4062 10.3965 76.95 8.53978 84.4474 13.1471C94.2872 19.1937 96.5137 39.1416 73.8176 55.9712C69.4947 59.1767 67.3333 60.779 63.5833 60.779C59.8334 60.779 57.6719 59.1767 53.3491 55.9712C30.6533 39.1416 32.8797 19.1937 42.7193 13.1471Z" stroke="#C98A50" stroke-width="3" stroke-linecap="round"/>
<path d="M20.375 70.8643H32.5487C34.0439 70.8643 35.5187 71.1985 36.856 71.8403L47.2361 76.8215C48.5735 77.4633 50.0482 77.7971 51.5435 77.7971H56.8433C61.9694 77.7971 66.125 81.7855 66.125 86.7052C66.125 86.9038 65.9878 87.0788 65.7885 87.1332L52.8722 90.6755C50.5551 91.3107 48.0741 91.0894 45.9187 90.0549L34.8224 84.7304" stroke="#C98A50" stroke-width="3" stroke-linecap="round" stroke-linejoin="round"/>
<path d="M66.125 83.4684L89.4717 76.3541C93.6106 75.075 98.0844 76.5916 100.677 80.1525C102.552 82.7268 101.788 86.4137 99.0574 87.9767L60.8531 109.839C58.4232 111.229 55.5562 111.569 52.8839 110.782L20.375 101.215" stroke="#C98A50" stroke-width="3" stroke-linecap="round" stroke-linejoin="round"/>
</svg>
