<svg width="100" height="100" viewBox="0 0 100 100" fill="none" xmlns="http://www.w3.org/2000/svg">
<path d="M49.9997 91.6668C73.0115 91.6668 91.6663 73.012 91.6663 50.0002C91.6663 26.9883 73.0115 8.3335 49.9997 8.3335C26.9878 8.3335 8.33301 26.9883 8.33301 50.0002C8.33301 73.012 26.9878 91.6668 49.9997 91.6668Z" stroke="#944446" stroke-width="3" stroke-linecap="round" stroke-linejoin="round"/>
<path d="M29.167 37.5C30.0399 39.9275 32.3952 41.6667 35.1637 41.6667C37.9323 41.6667 40.2876 39.9275 41.1605 37.5M58.8403 37.5C59.7132 39.9275 62.0682 41.6667 64.837 41.6667C67.6053 41.6667 69.9607 39.9275 70.8337 37.5" stroke="#944446" stroke-width="3" stroke-linecap="round" stroke-linejoin="round"/>
<path d="M33.333 62.5C37.1335 67.56 43.1843 70.8333 49.9997 70.8333C56.8151 70.8333 62.8659 67.56 66.6663 62.5" stroke="#944446" stroke-width="3" stroke-linecap="round" stroke-linejoin="round"/>
</svg>
