<svg width="100" height="100" viewBox="0 0 100 100" fill="none" xmlns="http://www.w3.org/2000/svg">
<path d="M87.5 29.1665V49.9998M12.5 29.1665C12.5 41.9353 12.5 69.8923 12.5 71.5053C12.5 77.2657 20.6068 80.6903 36.8205 87.5394C43.3342 90.2907 46.5908 91.6665 50 91.6665V47.3115" stroke="#944446" stroke-width="3" stroke-linecap="round" stroke-linejoin="round"/>
<path d="M62.5 79.1667C62.5 79.1667 66.1458 79.1667 69.7917 87.5C69.7917 87.5 81.3725 66.6667 91.6667 62.5" stroke="#944446" stroke-width="3" stroke-linecap="round" stroke-linejoin="round"/>
<path d="M34.6913 40.3809L22.5197 34.4912C15.8399 31.2589 12.5 29.6428 12.5 27.0835C12.5 24.5242 15.8399 22.9081 22.5197 19.6758L34.6913 13.7861C42.2033 10.151 45.9596 8.3335 50 8.3335C54.0404 8.3335 57.7967 10.151 65.3087 13.7861L77.4804 19.6758C84.16 22.9081 87.5 24.5242 87.5 27.0835C87.5 29.6428 84.16 31.2589 77.4804 34.4912L65.3087 40.3809C57.7967 44.016 54.0404 45.8335 50 45.8335C45.9596 45.8335 42.2033 44.016 34.6913 40.3809Z" stroke="#944446" stroke-width="3" stroke-linecap="round" stroke-linejoin="round"/>
<path d="M25 50L33.3333 54.1667" stroke="#944446" stroke-width="3" stroke-linecap="round" stroke-linejoin="round"/>
<path d="M70.8337 16.6665L29.167 37.4998" stroke="#944446" stroke-width="3" stroke-linecap="round" stroke-linejoin="round"/>
</svg>
