<svg width="100" height="100" viewBox="0 0 100 100" fill="none" xmlns="http://www.w3.org/2000/svg">
<path d="M29.3805 66.6668C17.1926 62.9202 8.33301 51.5727 8.33301 38.1562C8.33301 21.6855 21.6851 8.3335 38.1557 8.3335C51.5722 8.3335 62.9197 17.193 66.6663 29.381" stroke="#944446" stroke-width="3" stroke-linecap="round"/>
<path d="M26.8518 41.6667C25.6835 39.9551 25 37.8838 25 35.6522C25 29.7691 29.7503 25 35.6101 25C37.8616 25 39.9493 25.7041 41.6667 26.9049" stroke="#944446" stroke-width="3" stroke-linecap="round"/>
<path d="M38.7894 39.0763C44.9987 32.3894 91.705 48.77 91.6667 54.7508C91.6229 61.5325 73.4267 63.6188 68.3829 65.0338C65.35 65.885 64.5375 66.7571 63.8383 69.9375C60.6708 84.3412 59.0808 91.5054 55.4567 91.6654C49.6796 91.9208 32.7295 45.6021 38.7894 39.0763Z" stroke="#944446" stroke-width="3"/>
</svg>
