<svg width="81" height="81" viewBox="0 0 81 81" fill="none" xmlns="http://www.w3.org/2000/svg">
<path d="M6.68928 73.7677C10.8559 70.4777 14.2559 67.1844 19.6893 66.4344C24.393 66.4333 28.9212 68.2207 32.3559 71.4344C34.1384 72.683 36.1994 73.4764 38.3591 73.7452C40.5187 74.014 42.7114 73.75 44.7455 72.9764C46.7797 72.2028 48.5936 70.943 50.0288 69.307C51.4641 67.671 52.477 65.7086 52.9793 63.591C55.142 63.9766 57.3696 63.7437 59.4058 62.9192C61.442 62.0946 63.204 60.712 64.4891 58.9303C65.7742 57.1485 66.5301 55.0402 66.6699 52.8478C66.8097 50.6555 66.3277 48.4682 65.2793 46.5377C67.1901 45.9204 68.9093 44.8203 70.2704 43.3438C71.6315 41.8674 72.5885 40.0646 73.0488 38.11C73.509 36.1554 73.457 34.115 72.8976 32.1864C72.3383 30.2577 71.2906 28.5061 69.856 27.101C70.9394 26.0176 71.7988 24.7314 72.3851 23.3159C72.9714 21.9004 73.2732 20.3832 73.2732 18.851C73.2732 17.3189 72.9714 15.8017 72.3851 14.3862C71.7988 12.9706 70.9394 11.6844 69.856 10.601C68.7725 9.51764 67.4864 8.65823 66.0708 8.0719C64.6553 7.48556 63.1381 7.18378 61.606 7.18378C58.5116 7.18378 55.544 8.41301 53.3559 10.601C51.9509 9.1664 50.1993 8.11872 48.2706 7.55938C46.342 7.00004 44.3016 6.94797 42.347 7.40822C40.3923 7.86848 38.5896 8.82546 37.1132 10.1866C35.6367 11.5477 34.5366 13.2669 33.9193 15.1777C31.9888 14.1293 29.8015 13.6473 27.6092 13.7871C25.4168 13.9268 23.3085 14.6828 21.5267 15.9679C19.745 17.253 18.3623 19.015 17.5378 21.0512C16.7133 23.0874 16.4804 25.315 16.8659 27.4777C14.7668 27.9889 12.8233 29.0026 11.2028 30.4314C9.58228 31.8603 8.33323 33.6615 7.56318 35.6801C6.79313 37.6987 6.52514 39.8742 6.78227 42.0193C7.03941 44.1644 7.81397 46.215 9.03928 47.9944C11.6859 51.8344 14.7193 56.141 14.0226 60.7677C13.1093 66.2444 10.0693 69.541 6.68928 73.7677Z" stroke="#944446" stroke-width="2" stroke-linecap="round" stroke-linejoin="round"/>
<path d="M6.69141 73.7676L56.6914 23.7676" stroke="#944446" stroke-width="2" stroke-linecap="round" stroke-linejoin="round"/>
<path d="M58.274 44.0796C62.2429 44.405 62.8243 49.0915 66.4576 50.7946C67.9085 51.4747 70.6506 50.0866 70.3609 50.7946C69.7952 52.1775 69.8465 53.8147 69.3377 55.2392C68.7187 56.9723 68.7888 58.9306 68.1226 60.7071C67.1333 63.3452 66.394 65.9752 64.8611 68.3814C62.7598 71.6795 58.6399 74.5319 54.8366 75.0643C50.2788 75.7024 44.6538 67.5423 43.3881 61.7008C42.4332 57.2937 42.1397 60.6663 42.6697 56.1985L42.6748 56.1559C43.0103 53.3277 43.3774 50.2329 45.2918 47.9807C46.7655 46.2469 49.3944 44.1511 51.7829 44.0317C53.9112 43.9253 56.15 43.9055 58.274 44.0796Z" fill="#F9FAF1"/>
<path d="M55.2276 42.7046L54.107 45.7325C52.6378 49.7029 51.9034 51.6882 50.455 53.1363C49.0071 54.5845 47.0219 55.3191 43.0516 56.7883L40.0234 57.9087L43.0516 59.0292C47.0219 60.4983 49.0071 61.233 50.455 62.6811C51.9034 64.1293 52.6378 66.1145 54.107 70.0849L55.2276 73.1129L56.3481 70.0849C57.8173 66.1145 58.5517 64.1293 60.0001 62.6811C61.4481 61.233 63.4332 60.4983 67.4035 59.0292L70.4317 57.9087L67.4035 56.7883C63.4332 55.3191 61.4481 54.5845 60.0001 53.1363C58.5517 51.6882 57.8173 49.7029 56.3481 45.7325L55.2276 42.7046Z" stroke="#944446" stroke-width="2" stroke-linejoin="round"/>
<path d="M70.8286 63.6377L70.2924 65.0867C69.5893 66.9867 69.2379 67.9368 68.5447 68.6298C67.8518 69.3228 66.9018 69.6743 65.0019 70.3774L63.5527 70.9136L65.0019 71.4498C66.9018 72.1529 67.8518 72.5044 68.5447 73.1974C69.2379 73.8904 69.5893 74.8405 70.2924 76.7405L70.8286 78.1895L71.3649 76.7405C72.068 74.8405 72.4194 73.8904 73.1126 73.1974C73.8055 72.5044 74.7555 72.1529 76.6554 71.4498L78.1046 70.9136L76.6554 70.3774C74.7555 69.6743 73.8055 69.3228 73.1126 68.6298C72.4194 67.9368 72.068 66.9867 71.3649 65.0867L70.8286 63.6377Z" stroke="#944446" stroke-width="2" stroke-linejoin="round"/>
</svg>
