<svg width="41" height="41" viewBox="0 0 41 41" fill="none" xmlns="http://www.w3.org/2000/svg">
<path d="M14.4091 5C9.24432 5 5 9.23864 5 14.4091V27.5909C5 32.7557 9.23864 37 14.4091 37H27.5909C32.7557 37 37 32.7614 37 27.5909V14.4091C37 9.24432 32.7614 5 27.5909 5H14.4091ZM14.4091 7.90909H27.5909C31.1875 7.90909 34.0909 10.8125 34.0909 14.4091V27.5909C34.0909 31.1875 31.1875 34.0909 27.5909 34.0909H14.4091C10.8125 34.0909 7.90909 31.1875 7.90909 27.5909V14.4091C7.90909 10.8125 10.8125 7.90909 14.4091 7.90909ZM29.5909 11.0909C28.858 11.0909 28.2727 11.6761 28.2727 12.4091C28.2727 13.142 28.858 13.7273 29.5909 13.7273C30.3239 13.7273 30.9091 13.142 30.9091 12.4091C30.9091 11.6761 30.3239 11.0909 29.5909 11.0909ZM21 12.2727C16.1989 12.2727 12.2727 16.1989 12.2727 21C12.2727 25.8011 16.1989 29.7273 21 29.7273C25.8011 29.7273 29.7273 25.8011 29.7273 21C29.7273 16.1989 25.8011 12.2727 21 12.2727ZM21 15.1818C24.233 15.1818 26.8182 17.767 26.8182 21C26.8182 24.233 24.233 26.8182 21 26.8182C17.767 26.8182 15.1818 24.233 15.1818 21C15.1818 17.767 17.767 15.1818 21 15.1818Z" fill="#00683D"/>
</svg>
