<svg width="47" height="46" viewBox="0 0 47 46" fill="none" xmlns="http://www.w3.org/2000/svg">
<circle cx="23.5561" cy="23.2975" r="22.5678" fill="#F0F0F0"/>
<path d="M23.5597 21.0372C22.6845 21.0372 21.8451 21.3848 21.2262 22.0037C20.6074 22.6226 20.2597 23.4619 20.2597 24.3372C20.2597 25.2124 20.6074 26.0517 21.2262 26.6706C21.8451 27.2895 22.6845 27.6372 23.5597 27.6372C24.4349 27.6372 25.2743 27.2895 25.8931 26.6706C26.512 26.0517 26.8597 25.2124 26.8597 24.3372C26.8597 23.4619 26.512 22.6226 25.8931 22.0037C25.2743 21.3848 24.4349 21.0372 23.5597 21.0372ZM23.5597 18.8372C25.0184 18.8372 26.4173 19.4166 27.4488 20.4481C28.4802 21.4795 29.0597 22.8785 29.0597 24.3372C29.0597 25.7958 28.4802 27.1948 27.4488 28.2262C26.4173 29.2577 25.0184 29.8372 23.5597 29.8372C22.101 29.8372 20.7021 29.2577 19.6706 28.2262C18.6392 27.1948 18.0597 25.7958 18.0597 24.3372C18.0597 22.8785 18.6392 21.4795 19.6706 20.4481C20.7021 19.4166 22.101 18.8372 23.5597 18.8372ZM30.7097 18.5622C30.7097 18.9268 30.5648 19.2766 30.307 19.5344C30.0491 19.7923 29.6994 19.9372 29.3347 19.9372C28.97 19.9372 28.6203 19.7923 28.3624 19.5344C28.1046 19.2766 27.9597 18.9268 27.9597 18.5622C27.9597 18.1975 28.1046 17.8477 28.3624 17.5899C28.6203 17.332 28.97 17.1872 29.3347 17.1872C29.6994 17.1872 30.0491 17.332 30.307 17.5899C30.5648 17.8477 30.7097 18.1975 30.7097 18.5622ZM23.5597 15.5372C20.8383 15.5372 20.3939 15.5449 19.1278 15.601C18.2654 15.6417 17.6868 15.7572 17.15 15.9662C16.701 16.1316 16.295 16.3959 15.962 16.7395C15.618 17.0723 15.3533 17.4784 15.1876 17.9275C14.9786 18.4665 14.8631 19.044 14.8235 19.9053C14.7663 21.1197 14.7586 21.5443 14.7586 24.3372C14.7586 27.0597 14.7663 27.503 14.8224 28.7691C14.8631 29.6304 14.9786 30.2101 15.1865 30.7458C15.3735 31.2243 15.5935 31.5686 15.9587 31.9338C16.3294 32.3034 16.6737 32.5245 17.1467 32.7071C17.6901 32.9172 18.2687 33.0338 19.1267 33.0734C20.3411 33.1306 20.7657 33.1372 23.5586 33.1372C26.2811 33.1372 26.7244 33.1295 27.9905 33.0734C28.8507 33.0327 29.4293 32.9172 29.9672 32.7093C30.4162 32.5439 30.8222 32.2796 31.1552 31.936C31.5259 31.5664 31.747 31.2221 31.9296 30.748C32.1386 30.2068 32.2552 29.6282 32.2948 28.768C32.352 27.5547 32.3586 27.129 32.3586 24.3372C32.3586 21.6158 32.3509 21.1714 32.2948 19.9053C32.2541 19.0451 32.1375 18.4643 31.9296 17.9275C31.7642 17.4785 31.4999 17.0725 31.1563 16.7395C30.8234 16.3955 30.4174 16.1308 29.9683 15.9651C29.4293 15.7561 28.8507 15.6406 27.9905 15.601C26.7772 15.5438 26.3526 15.5372 23.5586 15.5372M23.5586 13.3372C26.5473 13.3372 26.9202 13.3482 28.0939 13.4032C29.2643 13.4582 30.0629 13.6419 30.7636 13.9147C31.4896 14.1941 32.1012 14.5725 32.7128 15.183C33.2724 15.7327 33.7052 16.3979 33.9811 17.1322C34.2528 17.8329 34.4376 18.6315 34.4926 19.803C34.5443 20.9756 34.5586 21.3485 34.5586 24.3372C34.5586 27.3259 34.5476 27.6988 34.4926 28.8714C34.4376 30.044 34.2528 30.8404 33.9811 31.5422C33.7052 32.2764 33.2724 32.9417 32.7128 33.4914C32.1631 34.0509 31.4979 34.4838 30.7636 34.7597C30.0629 35.0314 29.2643 35.2162 28.0939 35.2712C26.9202 35.3229 26.5473 35.3372 23.5586 35.3372C20.5699 35.3372 20.197 35.3262 19.0233 35.2712C17.8529 35.2162 17.0554 35.0314 16.3536 34.7597C15.6193 34.4838 14.9541 34.0509 14.4044 33.4914C13.8448 32.9417 13.412 32.2764 13.1361 31.5422C12.8633 30.8415 12.6796 30.0429 12.6246 28.8714C12.5718 27.6988 12.5586 27.3259 12.5586 24.3372C12.5586 21.3485 12.5696 20.9756 12.6246 19.803C12.6796 18.6304 12.8633 17.834 13.1361 17.1322C13.412 16.3979 13.8448 15.7327 14.4044 15.183C14.9541 14.6234 15.6193 14.1906 16.3536 13.9147C17.0543 13.6419 17.8518 13.4582 19.0233 13.4032C20.1981 13.3515 20.571 13.3372 23.5597 13.3372" fill="#00683D"/>
</svg>
