<svg width="81" height="81" viewBox="0 0 81 81" fill="none" xmlns="http://www.w3.org/2000/svg">
<path d="M26.0879 52.5732C28.6936 44.5995 29.6123 38.8241 37.4223 34.5218L41.5786 32.2322L42.4433 28.5004C42.7586 27.14 43.2566 25.8285 43.9238 24.6018C44.3315 23.7998 45.0086 23.167 45.8362 22.8142C46.5486 22.5297 47.3332 22.4804 48.0756 22.6733C48.8181 22.8662 49.4794 23.2912 49.9633 23.8865L50.4244 24.4548L55.3352 25.3949V26.2069C54.9998 26.9067 54.5218 27.5288 53.9319 28.033C53.342 28.5373 52.6532 28.9126 51.9096 29.135L49.6979 29.7964C49.2455 31.1242 49.0145 32.5172 49.0142 33.9199" stroke="#944446" stroke-width="1.8" stroke-miterlimit="10" stroke-linecap="round"/>
<path d="M47.6517 25.459C47.6493 25.5684 47.6476 28.8323 47.647 28.9353C47.6536 29.2227 47.5626 29.5039 47.3888 29.733C47.215 29.962 46.9687 30.1254 46.69 30.1964C46.3966 30.2603 46.0898 30.2135 45.8287 30.065C45.5676 29.9165 45.3706 29.6768 45.2755 29.3919L44.7598 27.9589" stroke="#944446" stroke-width="1.8" stroke-miterlimit="10" stroke-linecap="round"/>
<path d="M35.0629 58.2694H27.4125C27.1704 58.2944 26.9257 58.2672 26.6949 58.1898C26.4641 58.1123 26.2525 57.9864 26.0745 57.8205C25.8964 57.6545 25.7558 57.4524 25.6623 57.2276C25.5688 57.0028 25.5245 56.7607 25.5323 56.5174L25.4896 55.3081C25.4896 55.3081 21.0376 52.1031 23.858 38.3857" stroke="#944446" stroke-width="1.8" stroke-miterlimit="10" stroke-linecap="round"/>
<path d="M58.3564 38.166C58.3564 41.8041 55.4255 41.6585 55.0965 41.6964V42.25C57.2036 45.9375 54.3618 49.2192 53.4958 50.266L53.5307 55.7163C53.9082 55.7163 54.2702 55.8663 54.5372 56.1332C54.8041 56.4001 54.954 56.7621 54.954 57.1396V58.2694H52.4551" stroke="#944446" stroke-width="1.8" stroke-linecap="round" stroke-linejoin="round"/>
<path d="M39.0195 46.855C39.8673 42.1418 44.2576 41.3682 47.242 41.2727C47.8161 41.2613 48.3669 41.044 48.7943 40.6606C49.2217 40.2771 49.4971 39.753 49.5705 39.1835C49.6008 38.9314 49.6469 38.6815 49.7085 38.4351C50.0524 37.0992 50.7502 35.8807 51.7284 34.9081L52.3179 33.9116C52.6527 33.3458 53.1616 32.9035 53.7685 32.6509L54.5177 34.844L56.7182 36.2365L57.3747 37.5775L58.3556 38.166" stroke="#944446" stroke-width="1.8" stroke-linecap="round" stroke-linejoin="round"/>
<path d="M39.0615 46.5312C38.8131 47.9808 38.4785 49.4142 38.0593 50.8238C37.6273 52.3019 37.3371 54.1966 38.4087 54.8284" stroke="#944446" stroke-width="1.8" stroke-linecap="round" stroke-linejoin="round"/>
<path d="M46.17 55.7165H48.4527C48.6578 55.7165 48.8608 55.7569 49.0503 55.8354C49.2398 55.9138 49.4119 56.0288 49.5569 56.1739C49.7019 56.3189 49.8169 56.491 49.8954 56.6805C49.9739 56.8699 50.0143 57.073 50.0143 57.278V58.2696H41.1043C39.6692 58.2816 38.2569 57.9102 37.0133 57.1939C35.5265 56.317 34.3311 54.4173 35.4233 50.0534C36.9999 43.7538 34.5321 43.1897 32.8398 43.3307" stroke="#944446" stroke-width="1.8" stroke-linecap="round" stroke-linejoin="round"/>
<path d="M44.0977 48.5684C50.0227 50.7449 46.1696 55.7166 46.1696 55.7166" stroke="#944446" stroke-width="1.8" stroke-linecap="round" stroke-linejoin="round"/>
<circle cx="40.5244" cy="40.4131" r="31.3525" stroke="#944446" stroke-width="2"/>
<path d="M40.1541 68.4595H49.2521C50.2042 70.3969 50.2042 72.6663 49.2521 74.6037H40.1541C39.0442 72.706 39.0442 70.3572 40.1541 68.4595Z" fill="#F9FAF1"/>
<path d="M46.3804 72.4586C46.771 72.068 46.771 71.4349 46.3804 71.0444L40.0165 64.6804C39.6259 64.2899 38.9928 64.2899 38.6023 64.6804C38.2117 65.0709 38.2117 65.7041 38.6023 66.0946L44.2591 71.7515L38.6023 77.4083C38.2117 77.7988 38.2117 78.432 38.6023 78.8225C38.9928 79.2131 39.6259 79.2131 40.0165 78.8225L46.3804 72.4586ZM44.7598 72.7515L45.6733 72.7515L45.6733 70.7515L44.7598 70.7515L44.7598 72.7515Z" fill="#944446"/>
<path d="M33.0857 6.00586H42.1837C43.1358 7.94328 43.1358 10.2127 42.1837 12.1501H33.0857C31.9759 10.2524 31.9759 7.90359 33.0857 6.00586Z" fill="#F9FAF1"/>
<path d="M35.0453 8.37053C34.6548 8.76105 34.6548 9.39422 35.0453 9.78474L41.4093 16.1487C41.7998 16.5392 42.433 16.5392 42.8235 16.1487C43.214 15.7582 43.214 15.125 42.8235 14.7345L37.1667 9.07764L42.8235 3.42078C43.214 3.03026 43.214 2.39709 42.8235 2.00657C42.433 1.61604 41.7998 1.61604 41.4093 2.00657L35.0453 8.37053ZM36.5859 8.07764H35.7525V10.0776H36.5859V8.07764Z" fill="#944446"/>
</svg>
