<svg width="42" height="41" viewBox="0 0 42 41" fill="none" xmlns="http://www.w3.org/2000/svg">
<path d="M33.1905 5H8.80952C6.70667 5 5 6.65333 5 8.69048V32.3095C5 34.3467 6.70667 36 8.80952 36H33.1905C35.2933 36 37 34.3467 37 32.3095V8.69048C37 6.65333 35.2933 5 33.1905 5ZM14.9048 16.8095V30.8333H10.3333V16.8095H14.9048ZM10.3333 12.7279C10.3333 11.6945 11.2476 10.9048 12.619 10.9048C13.9905 10.9048 14.8514 11.6945 14.9048 12.7279C14.9048 13.7612 14.0514 14.5952 12.619 14.5952C11.2476 14.5952 10.3333 13.7612 10.3333 12.7279ZM31.6667 30.8333H27.0952C27.0952 30.8333 27.0952 23.9986 27.0952 23.4524C27.0952 21.9762 26.3333 20.5 24.4286 20.4705H24.3676C22.5238 20.4705 21.7619 21.991 21.7619 23.4524C21.7619 24.124 21.7619 30.8333 21.7619 30.8333H17.1905V16.8095H21.7619V18.699C21.7619 18.699 23.2324 16.8095 26.1886 16.8095C29.2133 16.8095 31.6667 18.8245 31.6667 22.9062V30.8333Z" fill="#00683D"/>
</svg>
