<svg width="47" height="46" viewBox="0 0 47 46" fill="none" xmlns="http://www.w3.org/2000/svg">
<circle cx="23.5561" cy="23.2975" r="22.5678" fill="#F0F0F0"/>
<path d="M18.9961 15.3382C18.9958 15.8686 18.7849 16.3772 18.4096 16.7521C18.0343 17.127 17.5255 17.3374 16.9951 17.3372C16.4647 17.3369 15.9561 17.1259 15.5812 16.7507C15.2063 16.3754 14.9958 15.8666 14.9961 15.3362C14.9964 14.8057 15.2073 14.2971 15.5826 13.9222C15.9578 13.5474 16.4667 13.3369 16.9971 13.3372C17.5275 13.3374 18.0361 13.5484 18.411 13.9237C18.7859 14.2989 18.9964 14.8077 18.9961 15.3382ZM19.0561 18.8182H15.0561V31.3382H19.0561V18.8182ZM25.3761 18.8182H21.3961V31.3382H25.3361V24.7682C25.3361 21.1082 30.1061 20.7682 30.1061 24.7682V31.3382H34.0561V23.4082C34.0561 17.2382 26.9961 17.4682 25.3361 20.4982L25.3761 18.8182Z" fill="#00683D"/>
</svg>
