<svg width="221" height="87" viewBox="0 0 221 87" fill="none" xmlns="http://www.w3.org/2000/svg">
<path fill-rule="evenodd" clip-rule="evenodd" d="M101.801 5.34361C99.7772 2.98683 96.0649 1.98601 93.1676 3.02557V3.01266C91.3244 3.67772 89.8692 4.90454 88.7051 6.77059C87.1853 9.21777 86.5579 11.9878 86.7972 15.2356C86.9783 17.7151 87.5668 19.6651 88.6339 21.3568C89.9986 23.5263 91.8288 24.7919 94.2282 25.231C96.9768 25.7346 99.2921 25.005 101.297 22.9969C102.312 21.9831 103.088 20.7692 103.664 19.2841C103.839 18.8192 104.156 18.6255 104.647 18.6707C104.767 18.6803 104.898 18.6792 105.04 18.678L105.124 18.6774L105.19 18.6772H105.514H106.096L105.902 19.226C105.145 21.3439 104.091 23.0421 102.681 24.4303C101.181 25.9089 99.5961 26.7806 97.837 27.1035C97.0544 27.2455 96.2978 27.3165 95.5669 27.3165C92.6825 27.3165 90.1796 26.206 88.1036 23.9912C86.5385 22.3189 85.5361 20.2268 85.0575 17.5924C84.4625 14.3704 84.6242 11.5035 85.5361 8.83035C86.4932 6.02804 87.9872 3.94891 90.102 2.46382C92.9865 0.442799 96.2201 0.119953 99.7125 1.50819C102.526 2.62524 104.492 4.75603 105.714 8.01678C105.772 8.1782 105.831 8.34608 105.889 8.52042L106.167 9.34045H105.591H105.255L105.133 9.34072C104.891 9.34151 104.653 9.34228 104.414 9.31462C104.084 9.27588 103.845 8.94012 103.768 8.72704C103.283 7.42274 102.636 6.31215 101.801 5.34361ZM125.22 1.12724C128.136 1.8827 130.387 3.68418 131.9 6.48003C132.845 8.21695 133.388 10.2315 133.575 12.6399C133.854 16.2235 133.058 19.4455 131.208 22.222C129.527 24.7467 127.496 26.2834 125 26.9162C123.894 27.1939 122.833 27.3359 121.805 27.3359C119.043 27.3359 116.56 26.3222 114.393 24.3012C112.621 22.6482 111.502 20.5109 110.979 17.7603C110.81 16.8757 110.713 15.9782 110.642 15.2615C110.626 15.1246 110.612 14.9941 110.598 14.8705L110.597 14.8612V14.8611C110.584 14.7375 110.571 14.621 110.558 14.5125V14.4866V14.4608C110.642 9.91512 111.929 6.5446 114.607 3.85206C117.485 0.959356 121.055 0.0424716 125.22 1.12724ZM126.073 24.4045C128.195 23.1906 129.714 21.3568 130.717 18.7869V18.7934C131.687 16.3075 131.855 13.6279 131.228 10.6125C130.749 8.28797 129.818 6.49295 128.376 5.11116C126.145 2.97392 123.396 2.20554 120.207 2.83187C118.131 3.23865 116.405 4.45255 114.93 6.52523C113.307 8.80453 112.55 11.3679 112.615 14.3446C112.673 16.3914 112.983 18.0315 113.604 19.5101C115.079 23.0291 117.569 24.9404 121.21 25.3472C122.988 25.5409 124.625 25.2245 126.073 24.4045ZM155.351 23.4101V1.07559H155.358H157.453V26.9614C157.453 26.9614 155.985 26.9679 155.791 26.9485C155.565 26.9291 155.345 26.7742 155.151 26.4836C152.868 23.1518 140.101 4.45257 140.101 4.45257V26.9614L138.129 26.9421V1.04331C138.129 1.04331 139.448 1.03039 139.739 1.06268C140.037 1.10142 140.295 1.33387 140.438 1.54695C141.919 3.70356 155.351 23.4101 155.351 23.4101ZM181.777 10.7997C180.665 5.3565 176.124 1.57274 170.2 1.15303C168.711 1.04903 167.193 1.04937 165.723 1.04969L165.479 1.04972H162.789V26.9549H165.285H166.365C167.297 26.9549 168.241 26.942 169.172 26.871C173.667 26.5288 177.237 24.5465 179.785 20.9952C181.887 18.0573 182.559 14.6286 181.777 10.7932V10.7997ZM164.774 25.063V2.94806H166.462L166.512 2.94761C168.637 2.92834 170.831 2.90844 172.904 3.62604C176.584 4.8916 178.899 7.37752 179.772 11.0257C180.354 13.4535 180.173 15.8038 179.229 18.0185C177.47 22.1445 173.052 24.9791 168.247 25.0695C167.426 25.0824 164.774 25.0695 164.774 25.0695V25.063ZM53.3805 2.87714C50.4767 2.16688 47.8768 2.64469 45.6715 4.29121L45.6909 4.31058C44.4685 5.22746 43.8541 6.54468 44.0093 7.92646C44.171 9.37927 45.1411 10.5996 46.6674 11.2841C48.1873 11.962 49.8429 12.3882 51.4468 12.795L51.8219 12.8918C53.4905 13.318 55.2108 13.7635 56.7694 14.59C58.7808 15.6619 59.9255 17.2567 60.1648 19.3423C60.4817 22.0994 59.24 24.3142 56.4719 25.9219C54.8228 26.8776 52.8502 27.3554 50.8777 27.3554C48.6658 27.3554 46.4605 26.7549 44.7078 25.5733C42.9034 24.3529 41.791 22.6676 41.3189 20.4206L41.2155 19.9234H42.5283C42.8388 19.9234 43.1298 20.1042 43.2656 20.3819L43.2658 20.3822C43.3563 20.5758 43.4467 20.7694 43.5372 20.9565C43.7959 21.5118 44.0417 22.0349 44.3651 22.4998C45.458 24.0817 47.1266 25.005 49.4549 25.3279C51.8284 25.6507 53.9561 25.2375 55.7735 24.0817C57.1122 23.2358 57.9077 22.1834 58.1341 20.963C58.4962 18.9678 57.6619 17.3148 55.7799 16.3076C54.5749 15.6583 53.2693 15.3039 51.888 14.929L51.8284 14.9129L51.408 14.8031L51.008 14.693L51.0078 14.693C49.6327 14.3149 48.2207 13.9267 46.8356 13.4794C45.4968 13.0468 44.3845 12.3817 43.5372 11.4971C41.5065 9.37927 41.4353 6.08624 43.3755 3.84568C44.876 2.10231 47.0296 1.0692 49.7782 0.765725C51.6473 0.559103 53.484 0.785095 55.0815 1.41787C57.9077 2.53492 59.6215 4.62697 60.1713 7.61653L60.2553 8.06851L59.6992 8.10725C59.6345 8.11371 59.5957 8.11371 59.5504 8.11371C58.4639 8.13308 58.3087 8.02331 58.0047 7.06769C57.2998 4.85942 55.7411 3.45181 53.3805 2.87714ZM80.6857 25.0567H67.4794V14.7837L78.5838 14.7062V13.757C78.5838 13.234 78.157 12.8079 77.6266 12.8079L67.4794 12.8724V2.94167H80.6857C81.2096 2.94167 81.6364 2.51551 81.6364 1.9925V1.07561H65.4874V26.9485H81.6364V26.0058C81.6364 25.4828 81.2096 25.0567 80.6857 25.0567ZM12.1836 18.8838C12.0931 18.7805 11.8538 18.5416 11.5045 18.4964C10.3422 18.3425 10.0917 19.4937 9.99325 19.9461L9.99117 19.9556C9.85536 20.5949 10.03 21.1824 10.4956 21.6473C10.5603 21.7119 10.6314 21.7636 10.722 21.8088C10.8901 21.8992 11.1036 21.9508 11.2846 21.9444C11.5563 21.9315 11.802 21.8475 12.0025 21.6796C12.4488 21.318 12.7204 20.7498 12.7139 20.1687C12.7139 19.8782 12.6363 19.594 12.4617 19.2712C12.3984 19.1552 12.3178 19.0565 12.234 18.9539L12.234 18.9538L12.234 18.9538L12.234 18.9538L12.2339 18.9538L12.2339 18.9538L12.2339 18.9538L12.2339 18.9538L12.2339 18.9538L12.2339 18.9538L12.2338 18.9537L12.2338 18.9536C12.215 18.9306 12.1961 18.9074 12.1771 18.8838H12.1836ZM22.887 18.9032C22.984 19.0839 23.0616 19.2712 23.1198 19.4843L23.1133 19.4907C23.1263 19.5036 23.1392 19.5488 23.1392 19.5811C23.191 19.7813 23.2233 19.9879 23.2233 20.1881C23.2233 20.3882 23.1974 20.6078 23.1457 20.8402C23.0948 21.0625 23.0002 21.2659 22.9171 21.4446L22.9129 21.4536C22.8029 21.628 22.6671 21.7507 22.4989 21.8346C22.3308 21.9185 22.1497 21.9637 21.9622 21.9637C21.7617 21.9637 21.5741 21.9185 21.406 21.8281C20.7334 21.4795 20.4876 20.427 20.4617 20.3108C20.4423 20.2268 20.4359 20.1429 20.4359 20.0525C20.4294 19.5101 20.7269 18.8128 21.3219 18.5222C21.7035 18.3285 22.1368 18.3543 22.5636 18.5932C22.7059 18.6707 22.8094 18.774 22.887 18.9032ZM6.73779 14.1961L9.7063 7.03535C9.91973 6.52525 10.6311 6.51879 10.8575 7.01598L13.0823 11.962L6.73779 14.1961ZM28.0599 13.9538L28.061 13.9572H28.0674L28.0599 13.9538ZM25.7392 6.56401L28.0599 13.9538L21.9429 11.1743L24.5945 6.44779C24.8596 5.96352 25.5775 6.041 25.7392 6.56401ZM16.5386 28.9987L18.6183 25.3989C18.7282 25.2117 18.5924 24.9728 18.3725 24.9728H14.1946C13.9747 24.9728 13.8389 25.2117 13.9489 25.4054L16.0378 29.0148L16.0414 29.0207C15.4657 29.0133 14.8916 28.8918 14.3628 28.6531C14.2011 28.5821 14.0136 28.6079 13.9165 28.7694C13.8325 28.9114 13.8713 29.1439 14.033 29.2149C15.4687 29.867 17.1502 29.8154 18.5278 29.0406C18.8964 28.8339 18.5666 28.2722 18.1979 28.4788C17.6861 28.7655 17.1179 28.9399 16.5386 28.9987ZM46.4539 62.9652C46.6415 61.4543 47.1265 58.426 47.8961 56.3275C58.0887 28.6337 34.3276 24.9856 25.5644 32.1269C20.5328 36.2271 12.0411 36.8986 6.41452 30.093L5.70311 30.3513C5.70311 30.3513 9.07907 35.1294 9.07907 43.7042V58.4196C9.07907 66.3229 5.72898 68.7507 0.665039 68.7507V69.8031L16.3678 69.7773C19.3363 69.7773 21.7486 67.3882 21.7745 64.431C21.8262 58.0128 21.9038 47.6107 21.9038 43.6138C21.9038 33.5216 36.6882 31.1971 38.0463 43.4911C38.3368 46.1381 37.2193 49.1373 35.8782 52.7365C35.3676 54.1067 34.8247 55.5639 34.3147 57.1217C30.4407 68.9702 32.2387 76.118 36.4683 81.148C42.6446 88.4895 59.311 89.2062 63.2044 75.5627C57.125 77.3255 44.9406 74.9816 46.4474 62.9652H46.4539ZM73.8174 62.707H73.9532H73.9661C73.7591 67.4464 76.4754 70.0872 81.0867 70.0872C85.6979 70.0872 89.2226 67.5174 90.7166 63.1138L90.1733 62.8426C89.4942 64.3987 88.4789 65.3479 87.3923 65.3479C86.3058 65.3479 85.7626 64.5343 85.7626 63.1138L86.0989 48.7536C86.2994 40.0819 81.617 35.6137 72.3945 35.6137C64.1875 35.6137 57.6748 39.0036 54.8939 44.5565L64.2521 49.0958L64.6596 49.0312C65.2675 41.5799 67.4405 37.4475 70.9006 37.4475C73.1383 37.4475 74.1537 39.2038 74.089 41.6445L73.9532 47.5397C59.434 51.0587 52.7208 55.5979 52.7208 61.9644C52.7208 66.7748 56.5172 70.0227 61.9433 70.0227C66.8973 70.0227 71.6443 67.1752 73.8174 62.707ZM73.8885 49.0893L73.6169 60.4019H73.6104C72.5239 62.029 70.7648 63.0427 69.2708 63.0427C67.1042 63.0427 65.8819 61.1444 65.8819 58.0322C65.8819 53.4929 68.5271 50.5809 73.8885 49.0893ZM94.6485 60.5375V38.868H91.6606V37.7187C101.801 37.1828 106.128 32.5338 106.516 26.6128H107.26V36.5693H114.859L114.523 38.8745H107.402L107.202 58.4454C107.202 62.4423 108.696 64.2696 111.477 64.2696C112.899 64.2696 114.258 63.7982 115.816 62.1711L116.152 62.5779C114.387 65.6901 110.591 70.0937 104.143 70.0937C99.0528 70.0937 94.6485 67.1816 94.6485 60.5439V60.5375ZM142.19 63.7271L142.255 63.7917V70.3455L158.061 67.498V67.0266C155.144 65.6061 154.672 64.6569 154.672 60.5955V35.5362C149.518 37.0277 144.092 38.0479 138.53 38.3837V38.926C141.511 41.0956 141.919 42.3095 141.919 48.0691V61.6803C140.425 63.3074 138.659 64.2566 136.965 64.2566C134.255 64.2566 132.625 62.0871 132.625 58.4324C132.625 54.7918 132.659 50.9513 132.692 47.0931V47.0925V47.0918L132.693 47.088C132.727 43.195 132.761 39.2842 132.761 35.5426C127.542 37.0342 122.18 38.0544 116.618 38.3901V38.9325C119.464 41.102 120.007 42.387 120.007 48.0755V59.5237C120.007 65.8902 124.082 70.2938 130.252 70.2938C134.727 70.2938 139.202 67.8596 142.19 63.7271ZM159.756 68.8733C162.536 67.1816 163.144 66.368 163.144 61.493V47.1328C163.144 42.458 162.672 41.173 159.756 38.8034V38.332C165.046 38.0608 170.472 37.0471 175.698 35.5555L175.562 42.0576L175.762 42.1222C177.049 38.332 180.645 35.6911 185.664 35.6911H188.244L186.55 48.6954H186.007C182.954 44.9052 180.173 42.6646 178.272 42.6646C177.256 42.6646 176.37 43.3426 175.898 44.2917V61.493C175.898 66.368 176.778 67.1816 180.509 68.8733V69.4157H159.749V68.8733H159.756ZM205.467 35.6848C194.679 35.6848 187.895 42.3225 187.895 52.6859L187.901 52.6729C187.901 63.1073 194.886 70.0808 204.859 70.0808C213.066 70.0808 218.764 65.3414 220.665 57.0766L220.257 56.8764C218.427 59.9951 214.902 61.8224 210.492 61.8224C203.908 61.8224 199.433 57.4898 199.433 50.3097C199.433 50.0385 199.433 49.7673 199.497 49.4316H220.594L220.529 48.689C220.051 40.902 214.961 35.6848 205.467 35.6848ZM204.309 37.6477C207.161 37.6477 208.927 40.9665 209.263 47.4687H209.257L199.491 47.6043C199.834 40.8309 201.457 37.6477 204.309 37.6477Z" fill="#2BB673"/>
</svg>
