<svg width="240" height="94" viewBox="0 0 240 94" fill="none" xmlns="http://www.w3.org/2000/svg">
<path fill-rule="evenodd" clip-rule="evenodd" d="M110.331 5.10657C108.123 2.53553 104.073 1.44372 100.912 2.57779V2.56371C98.9013 3.28923 97.3138 4.62758 96.0439 6.66328C94.3859 9.33293 93.7015 12.3548 93.9625 15.8979C94.1601 18.6027 94.8021 20.73 95.9663 22.5755C97.4549 24.9423 99.4516 26.3229 102.069 26.8019C105.068 27.3513 107.593 26.5553 109.781 24.3647C110.888 23.2588 111.735 21.9345 112.363 20.3144C112.553 19.8073 112.899 19.5959 113.435 19.6452C113.566 19.6557 113.709 19.6545 113.864 19.6532C113.917 19.6528 113.972 19.6523 114.028 19.6523H114.381H115.016L114.804 20.251C113.978 22.5614 112.828 24.414 111.29 25.9284C109.654 27.5415 107.925 28.4924 106.006 28.8446C105.152 28.9996 104.327 29.0771 103.53 29.0771C100.383 29.0771 97.6525 27.8655 95.3877 25.4494C93.6803 23.6251 92.5868 21.3428 92.0647 18.4689C91.4156 14.954 91.592 11.8265 92.5868 8.91029C93.6309 5.85322 95.2607 3.58508 97.5678 1.96497C100.714 -0.239781 104.242 -0.591977 108.052 0.922469C111.121 2.14107 113.266 4.46557 114.599 8.02275C114.663 8.19885 114.726 8.382 114.79 8.57218L115.093 9.46676H114.465H114.098L113.965 9.46705C113.701 9.46791 113.441 9.46876 113.181 9.43859C112.821 9.39632 112.56 9.03004 112.476 8.79759C111.947 7.37471 111.241 6.16316 110.331 5.10657ZM135.878 0.50694C139.06 1.33108 141.515 3.29634 143.166 6.34636C144.196 8.24118 144.789 10.4389 144.994 13.0663C145.297 16.9757 144.429 20.4906 142.411 23.5195C140.577 26.2737 138.362 27.9501 135.638 28.6404C134.432 28.9433 133.275 29.0983 132.153 29.0983C129.14 29.0983 126.431 27.9924 124.068 25.7876C122.134 23.9844 120.914 21.6528 120.342 18.6521C120.159 17.6871 120.053 16.708 119.976 15.9261C119.958 15.7729 119.942 15.6268 119.926 15.4889C119.912 15.3543 119.898 15.2273 119.884 15.109V15.0808V15.0527C119.976 10.0937 121.38 6.4168 124.3 3.47948C127.44 0.323797 131.335 -0.676441 135.878 0.50694ZM136.809 25.9003C139.124 24.5761 140.782 22.5756 141.875 19.7721V19.7791C142.933 17.0672 143.117 14.144 142.433 10.8545C141.91 8.31866 140.894 6.36045 139.321 4.85305C136.887 2.5215 133.889 1.68328 130.41 2.36654C128.146 2.81031 126.262 4.13457 124.653 6.39567C122.882 8.88218 122.057 11.6786 122.127 14.9259C122.191 17.1588 122.53 18.948 123.207 20.561C124.815 24.4 127.532 26.485 131.504 26.9287C133.444 27.1401 135.229 26.7949 136.809 25.9003ZM168.748 24.8151V0.450112H168.755H171.041V28.6892C171.041 28.6892 169.44 28.6963 169.228 28.6752C168.981 28.654 168.741 28.485 168.53 28.168C166.039 24.5333 152.112 4.13409 152.112 4.13409V28.6892L149.96 28.6681V0.414892C149.96 0.414892 151.399 0.400804 151.717 0.436024C152.041 0.478288 152.323 0.731869 152.479 0.964319C154.094 3.31699 168.748 24.8151 168.748 24.8151ZM197.577 11.0583C196.363 5.12026 191.411 0.992512 184.948 0.534656C183.324 0.4212 181.667 0.421563 180.064 0.421914L179.798 0.421953H176.863V28.6822H179.586H180.764C181.78 28.6822 182.81 28.6681 183.826 28.5906C188.73 28.2173 192.624 26.0548 195.404 22.1807C197.697 18.9757 198.431 15.2353 197.577 11.0512V11.0583ZM179.028 26.6183V2.49287H180.87L180.924 2.49238C183.242 2.47135 185.636 2.44964 187.897 3.23248C191.911 4.61309 194.437 7.32501 195.39 11.3048C196.025 13.9534 195.827 16.5173 194.797 18.9334C192.878 23.4345 188.059 26.5268 182.817 26.6254C181.921 26.6395 179.028 26.6254 179.028 26.6254V26.6183ZM57.5083 2.41575C54.3405 1.64091 51.5043 2.16217 49.0984 3.95837L49.1196 3.9795C47.7861 4.97974 47.1159 6.4167 47.2852 7.9241C47.4616 9.50899 48.5199 10.8403 50.1849 11.5869C51.8429 12.3266 53.6491 12.7915 55.3988 13.2352L55.808 13.3409C57.6283 13.8058 59.505 14.2918 61.2053 15.1934C63.3995 16.3627 64.6483 18.1026 64.9093 20.3778C65.2551 23.3855 63.9004 25.8016 60.8808 27.5555C59.0817 28.5981 56.9298 29.1193 54.7779 29.1193C52.365 29.1193 49.9592 28.4642 48.0472 27.1752C46.0787 25.8439 44.8652 24.0054 44.3502 21.5541L44.2373 21.0117H45.6695C46.0082 21.0117 46.3257 21.209 46.4738 21.5119C46.5726 21.7232 46.6714 21.9345 46.7702 22.1388C47.0524 22.7445 47.3205 23.3151 47.6732 23.8223C48.8656 25.548 50.6859 26.5553 53.2258 26.9075C55.8151 27.2597 58.1363 26.8089 60.1188 25.548C61.5792 24.6253 62.447 23.4771 62.694 22.1458C63.0891 19.9692 62.1789 18.166 60.1259 17.0671C58.8113 16.3588 57.387 15.9723 55.8801 15.5633L55.8151 15.5456L55.3565 15.4259L54.9201 15.3058C53.4198 14.8933 51.8794 14.4698 50.3684 13.9819C48.9079 13.5099 47.6944 12.7844 46.7702 11.8194C44.5548 9.50899 44.4772 5.91658 46.5938 3.47234C48.2306 1.57047 50.58 0.443445 53.5785 0.11238C55.6175 -0.113026 57.6212 0.133512 59.3639 0.823818C62.447 2.04242 64.3167 4.32465 64.9164 7.58599L65.0081 8.07907L64.4014 8.12133C64.3308 8.12838 64.2885 8.12838 64.2391 8.12838C63.0538 8.14951 62.8845 8.02976 62.5529 6.98726C61.7839 4.57823 60.0835 3.04266 57.5083 2.41575ZM87.2958 26.6104H72.8888V15.4035L85.0028 15.319V14.2835C85.0028 13.7129 84.5372 13.248 83.9586 13.248L72.8888 13.3185V2.48492H87.2958C87.8673 2.48492 88.3329 2.02002 88.3329 1.44946V0.449219H70.7158V28.6743H88.3329V27.6458C88.3329 27.0753 87.8673 26.6104 87.2958 26.6104ZM12.5656 19.8794C12.4668 19.7667 12.2058 19.506 11.8248 19.4567C10.5568 19.2889 10.2835 20.5447 10.1761 21.0383L10.1738 21.0487C10.0257 21.746 10.2162 22.387 10.7242 22.8942C10.7947 22.9646 10.8723 23.021 10.9711 23.0703C11.1545 23.1689 11.3874 23.2252 11.5849 23.2182C11.8812 23.2041 12.1493 23.1125 12.368 22.9294C12.8549 22.5349 13.1512 21.9151 13.1441 21.2811C13.1441 20.9641 13.0595 20.6542 12.869 20.302C12.7998 20.1754 12.7119 20.0677 12.6204 19.9557C12.5999 19.9305 12.5792 19.9052 12.5585 19.8794H12.5656ZM24.2422 19.8998C24.3481 20.097 24.4327 20.3013 24.4962 20.5337L24.4892 20.5408C24.5033 20.5549 24.5174 20.6042 24.5174 20.6394C24.5738 20.8578 24.6091 21.0832 24.6091 21.3015C24.6091 21.5199 24.5809 21.7594 24.5245 22.013C24.4689 22.2554 24.3657 22.4774 24.2751 22.6723L24.2705 22.6821C24.1505 22.8723 24.0024 23.0062 23.8189 23.0977C23.6355 23.1893 23.4379 23.2386 23.2333 23.2386C23.0146 23.2386 22.81 23.1893 22.6266 23.0907C21.8928 22.7103 21.6247 21.5622 21.5965 21.4354C21.5753 21.3438 21.5683 21.2522 21.5683 21.1536C21.5612 20.5619 21.8858 19.8012 22.5349 19.4842C22.9511 19.2729 23.4238 19.3011 23.8895 19.5617C24.0447 19.6462 24.1576 19.7589 24.2422 19.8998ZM6.625 14.7637L9.86338 6.952C10.0962 6.39553 10.8723 6.38849 11.1192 6.93087L13.5463 12.3265L6.625 14.7637ZM29.8851 14.4998L29.8862 14.5036H29.8933L29.8851 14.4998ZM27.3534 6.43825L29.8851 14.4998L23.2119 11.4676L26.1046 6.31146C26.3939 5.78316 27.177 5.86769 27.3534 6.43825ZM17.3172 30.913L19.5856 26.9864C19.7056 26.7821 19.5574 26.5215 19.3175 26.5215H14.7598C14.5199 26.5215 14.3718 26.7821 14.4917 26.9934L16.7706 30.931L16.7742 30.937C16.1462 30.9289 15.5199 30.7964 14.9431 30.5361C14.7667 30.4586 14.5621 30.4867 14.4562 30.6628C14.3645 30.8178 14.4069 31.0714 14.5832 31.1489C16.1495 31.8603 17.9839 31.804 19.4867 30.9587C19.8888 30.7333 19.529 30.1205 19.1269 30.3459C18.5686 30.6586 17.949 30.8488 17.3172 30.913ZM49.9516 67.9675C50.1562 66.3192 50.6853 63.0156 51.5249 60.7263C62.6441 30.5149 36.7229 26.535 27.1629 34.3256C21.6739 38.7985 12.4103 39.5311 6.27217 32.1068L5.49608 32.3885C5.49608 32.3885 9.17895 37.6011 9.17895 46.9554V63.0085C9.17895 71.6303 5.5243 74.2788 0 74.2788V75.427L17.1303 75.3988C20.3687 75.3988 23.0003 72.7926 23.0285 69.5664C23.085 62.5648 23.1696 51.217 23.1696 46.8568C23.1696 35.8471 39.298 33.3113 40.7797 46.723C41.0965 49.6105 39.8774 52.8824 38.4144 56.8088C37.8574 58.3036 37.2651 59.8933 36.7088 61.5927C32.4826 74.5183 34.444 82.316 39.0582 87.8032C45.796 95.8121 63.9775 96.594 68.2248 81.7102C61.5928 83.6332 48.3006 81.0762 49.9445 67.9675H49.9516ZM79.8027 67.6852H79.9509H79.965C79.7392 72.8555 82.7024 75.7365 87.7329 75.7365C92.7633 75.7365 96.6084 72.933 98.2382 68.129L97.6456 67.8332C96.9047 69.5308 95.7971 70.5662 94.6118 70.5662C93.4265 70.5662 92.8338 69.6787 92.8338 68.129L93.2007 52.4633C93.4194 43.0033 88.3114 38.1289 78.2505 38.1289C69.2973 38.1289 62.1926 41.827 59.1589 47.8848L69.3679 52.8366L69.8124 52.7662C70.4756 44.6375 72.8462 40.1294 76.6208 40.1294C79.0619 40.1294 80.1696 42.0453 80.099 44.7079L79.9509 51.1391C64.1117 54.978 56.7883 59.9299 56.7883 66.8752C56.7883 72.1229 60.9297 75.666 66.8492 75.666C72.2535 75.666 77.4321 72.5597 79.8027 67.6852ZM79.8803 52.8296L79.584 65.1706H79.5769C78.3916 66.9456 76.4726 68.0515 74.8428 68.0515C72.4793 68.0515 71.1458 65.9806 71.1458 62.5854C71.1458 57.6336 74.0315 54.4567 79.8803 52.8296ZM102.528 65.3174V41.678H99.2686V40.4242C110.331 39.8395 115.051 34.7679 115.475 28.3086H116.286V39.1703H124.576L124.209 41.685H116.441L116.222 63.0352C116.222 67.3954 117.852 69.3888 120.886 69.3888C122.438 69.3888 123.92 68.8746 125.62 67.0995L125.987 67.5433C124.061 70.9385 119.919 75.7424 112.885 75.7424C107.333 75.7424 102.528 72.5656 102.528 65.3245V65.3174ZM154.392 68.7968L154.462 68.8672V76.0168L171.706 72.9104V72.3962C168.524 70.8466 168.009 69.8111 168.009 65.3805V38.043C162.385 39.6701 156.466 40.7831 150.398 41.1493V41.741C153.651 44.1078 154.095 45.4321 154.095 51.7152V66.5639C152.466 68.3389 150.54 69.3744 148.691 69.3744C145.735 69.3744 143.957 67.0076 143.957 63.0208C143.957 59.0488 143.994 54.8588 144.031 50.6496V50.6493V50.6491C144.068 46.4009 144.105 42.133 144.105 38.05C138.412 39.6772 132.563 40.7901 126.495 41.1564V41.7481C129.599 44.1148 130.192 45.5166 130.192 51.7223V64.2112C130.192 71.1565 134.637 75.9605 141.368 75.9605C146.25 75.9605 151.132 73.3049 154.392 68.7968ZM173.553 74.4112C176.587 72.5656 177.25 71.6781 177.25 66.3599V50.6942C177.25 45.5944 176.735 44.1927 173.553 41.6076V41.0933C179.324 40.7975 185.244 39.6916 190.944 38.0645L190.796 45.1577L191.015 45.2281C192.419 41.0933 196.342 38.2124 201.816 38.2124H204.632L202.783 52.3989H202.19C198.86 48.2641 195.827 45.8198 193.752 45.8198C192.645 45.8198 191.678 46.5594 191.163 47.5949V66.3599C191.163 71.6781 192.123 72.5656 196.193 74.4112V75.0028H173.546V74.4112H173.553ZM223.42 38.2051C211.652 38.2051 204.251 45.4462 204.251 56.7518L204.258 56.7377C204.258 68.1207 211.878 75.7281 222.757 75.7281C231.71 75.7281 237.926 70.5579 240 61.5416L239.556 61.3233C237.559 64.7255 233.714 66.7189 228.902 66.7189C221.72 66.7189 216.838 61.9924 216.838 54.1596C216.838 53.8637 216.838 53.5679 216.908 53.2016H239.923L239.852 52.3916C239.33 43.8966 233.777 38.2051 223.42 38.2051ZM222.157 40.3464C225.269 40.3464 227.195 43.967 227.562 51.0603H227.555L216.901 51.2082C217.275 43.8191 219.046 40.3464 222.157 40.3464Z" fill="#00683D"/>
</svg>
