<svg width="33" height="33" viewBox="0 0 33 33" fill="none" xmlns="http://www.w3.org/2000/svg">
<path d="M20.9224 24.4316C20.8242 26.9008 18.7665 28.9975 16.0098 28.93C15.3685 28.9143 14.5758 28.6908 12.9905 28.2436C9.17518 27.1674 5.8631 25.3587 5.06844 21.307C4.92236 20.5623 4.92236 19.7242 4.92236 18.048V15.8152C4.92236 14.1391 4.92236 13.301 5.06844 12.5563C5.8631 8.5045 9.17518 6.69585 12.9905 5.61968C14.5758 5.17249 15.3685 4.9489 16.0098 4.93322C18.7665 4.86578 20.8242 6.9624 20.9224 9.43165" stroke="#944446" stroke-width="1.5" stroke-linecap="round"/>
<path d="M28.9223 16.932H14.2556M28.9223 16.932C28.9223 15.9984 26.2632 14.254 25.5889 13.5986M28.9223 16.932C28.9223 17.8656 26.2632 19.61 25.5889 20.2653" stroke="#944446" stroke-width="1.5" stroke-linecap="round" stroke-linejoin="round"/>
</svg>
