<svg width="61" height="61" viewBox="0 0 61 61" fill="none" xmlns="http://www.w3.org/2000/svg">
<path d="M55.6396 26.7842V24.8279C55.6396 19.9789 55.6396 17.5544 54.1751 16.0479C52.7106 14.5415 50.3536 14.5415 45.6396 14.5415H40.4431C38.1496 14.5415 38.1306 14.5371 36.0684 13.505L27.7394 9.33703C24.2617 7.59678 22.5229 6.72665 20.6706 6.78713C18.8182 6.8476 17.1366 7.82938 13.7733 9.79295L10.7036 11.5851C8.23312 13.0274 6.99787 13.7486 6.31875 14.9483C5.63965 16.148 5.63965 17.609 5.63965 20.531V41.0734C5.63965 44.9127 5.63965 46.8324 6.4953 47.9009C7.06467 48.6117 7.86255 49.0897 8.74465 49.2482C10.0703 49.4862 11.6933 48.5387 14.9393 46.6434C17.1435 45.3567 19.2649 44.0202 21.9018 44.3827C24.1114 44.6862 26.1646 46.0804 28.1396 47.0687" stroke="#944446" stroke-width="2" stroke-linecap="round" stroke-linejoin="round"/>
<path d="M20.6396 6.78418V44.2842" stroke="#944446" stroke-width="2" stroke-linejoin="round"/>
<path d="M38.1396 14.2842V24.2842" stroke="#944446" stroke-width="2" stroke-linecap="round" stroke-linejoin="round"/>
<path d="M44.3896 30.5342C50.4779 30.5342 55.6396 35.5754 55.6396 41.6914C55.6396 47.9047 50.3939 52.2652 45.5484 55.2299C45.1954 55.4294 44.7959 55.5342 44.3896 55.5342C43.9834 55.5342 43.5839 55.4294 43.2309 55.2299C38.3944 52.2362 33.1396 47.9262 33.1396 41.6914C33.1396 35.5754 38.3014 30.5342 44.3896 30.5342Z" stroke="#944446" stroke-width="2"/>
<path d="M44.3896 41.7842H44.4122" stroke="#944446" stroke-width="3" stroke-linecap="round" stroke-linejoin="round"/>
</svg>
