<svg width="34" height="34" viewBox="0 0 34 34" fill="none" xmlns="http://www.w3.org/2000/svg">
<path d="M15.6135 28.8594C13.1259 28.8669 10.7263 27.9393 8.89071 26.2604C7.05508 24.5815 5.91748 22.2741 5.70352 19.7957C5.48956 17.3173 6.21487 14.8491 7.7356 12.8804C9.25634 10.9118 11.4614 9.58662 13.9135 9.16771C21.9885 7.60938 24.1135 6.87271 26.9468 3.35938C28.3635 6.19271 29.7801 9.28105 29.7801 14.6927C29.7801 22.4844 23.0085 28.8594 15.6135 28.8594Z" stroke="#944446" stroke-width="1.5" stroke-linecap="round" stroke-linejoin="round"/>
<path d="M2.86353 30.2764C2.86353 26.0264 5.48436 22.683 10.0602 21.7764C13.4885 21.0964 17.0302 18.943 18.4468 17.5264" stroke="#944446" stroke-width="1.5" stroke-linecap="round" stroke-linejoin="round"/>
</svg>
