<svg width="34" height="34" viewBox="0 0 34 34" fill="none" xmlns="http://www.w3.org/2000/svg">
<path d="M2.72168 17.457H31.055" stroke="#944446" stroke-width="1.5" stroke-linecap="round" stroke-linejoin="round"/>
<path d="M28.2218 17.457V28.7904C28.2218 29.5418 27.9233 30.2625 27.392 30.7938C26.8606 31.3252 26.14 31.6237 25.3885 31.6237H8.38851C7.63706 31.6237 6.91639 31.3252 6.38504 30.7938C5.85369 30.2625 5.55518 29.5418 5.55518 28.7904V17.457" stroke="#944446" stroke-width="1.5" stroke-linecap="round" stroke-linejoin="round"/>
<path d="M5.55518 11.7902L28.2218 6.12354" stroke="#944446" stroke-width="1.5" stroke-linecap="round" stroke-linejoin="round"/>
<path d="M12.4402 10.062L11.8027 7.4978C11.7113 7.13688 11.692 6.7615 11.7458 6.39311C11.7996 6.02472 11.9255 5.67055 12.1163 5.35084C12.3071 5.03114 12.559 4.75216 12.8576 4.52986C13.1563 4.30757 13.4958 4.14631 13.8568 4.0553L16.6052 3.3753C16.967 3.28419 17.3433 3.26546 17.7125 3.32019C18.0816 3.37491 18.4363 3.50202 18.7562 3.6942C19.076 3.88639 19.3548 4.13987 19.5764 4.44009C19.7981 4.74031 19.9582 5.08135 20.0477 5.44364L20.6852 7.99364" stroke="#944446" stroke-width="1.5" stroke-linecap="round" stroke-linejoin="round"/>
</svg>
