<svg width="34" height="34" viewBox="0 0 34 34" fill="none" xmlns="http://www.w3.org/2000/svg">
<path d="M8.38843 25.957H19.7218" stroke="#944446" stroke-width="1.5" stroke-linecap="round" stroke-linejoin="round"/>
<path d="M4.13843 31.6235H29.6384" stroke="#944446" stroke-width="1.5" stroke-linecap="round" stroke-linejoin="round"/>
<path d="M19.7218 31.6234C22.3519 31.6234 24.8742 30.5786 26.734 28.7188C28.5937 26.8591 29.6385 24.3368 29.6385 21.7067C29.6385 19.0766 28.5937 16.5543 26.734 14.6946C24.8742 12.8348 22.3519 11.79 19.7218 11.79H18.3052" stroke="#944446" stroke-width="1.5" stroke-linecap="round" stroke-linejoin="round"/>
<path d="M12.6384 20.29H15.4718" stroke="#944446" stroke-width="1.5" stroke-linecap="round" stroke-linejoin="round"/>
<path d="M12.6385 17.457C11.8871 17.457 11.1664 17.1585 10.635 16.6272C10.1037 16.0958 9.80518 15.3751 9.80518 14.6237V8.95703H18.3052V14.6237C18.3052 15.3751 18.0067 16.0958 17.4753 16.6272C16.944 17.1585 16.2233 17.457 15.4718 17.457H12.6385Z" stroke="#944446" stroke-width="1.5" stroke-linecap="round" stroke-linejoin="round"/>
<path d="M16.8883 8.95671V4.70671C16.8883 4.33098 16.7391 3.97065 16.4734 3.70497C16.2077 3.43929 15.8474 3.29004 15.4717 3.29004H12.6383C12.2626 3.29004 11.9023 3.43929 11.6366 3.70497C11.3709 3.97065 11.2217 4.33098 11.2217 4.70671V8.95671" stroke="#944446" stroke-width="1.5" stroke-linecap="round" stroke-linejoin="round"/>
</svg>
