<svg width="34" height="34" viewBox="0 0 34 34" fill="none" xmlns="http://www.w3.org/2000/svg">
<path d="M28.2218 18.8735C28.2218 25.9569 23.2635 29.4985 17.3702 31.5527C17.0616 31.6573 16.7264 31.6523 16.421 31.5385C10.5135 29.4985 5.55518 25.9569 5.55518 18.8735V8.95685C5.55518 8.58113 5.70443 8.2208 5.97011 7.95512C6.23578 7.68944 6.59612 7.54019 6.97184 7.54019C9.80518 7.54019 13.3468 5.84019 15.8118 3.68685C16.112 3.43044 16.4938 3.28955 16.8885 3.28955C17.2833 3.28955 17.665 3.43044 17.9652 3.68685C20.4443 5.85435 23.9718 7.54019 26.8052 7.54019C27.1809 7.54019 27.5412 7.68944 27.8069 7.95512C28.0726 8.2208 28.2218 8.58113 28.2218 8.95685V18.8735Z" stroke="#944446" stroke-width="1.5" stroke-linecap="round" stroke-linejoin="round"/>
<path d="M12.6384 17.4569L15.4718 20.2902L21.1384 14.6235" stroke="#944446" stroke-width="1.5" stroke-linecap="round" stroke-linejoin="round"/>
</svg>
