<svg width="34" height="34" viewBox="0 0 34 34" fill="none" xmlns="http://www.w3.org/2000/svg">
<path d="M9.94702 30.2764H24.1137" stroke="#944446" stroke-width="1.5" stroke-linecap="round" stroke-linejoin="round"/>
<path d="M17.0303 30.2764C20.4118 30.2764 23.6548 28.9331 26.0459 26.542C28.437 24.1509 29.7803 20.9079 29.7803 17.5264H4.28027C4.28027 20.9079 5.62357 24.1509 8.01466 26.542C10.4058 28.9331 13.6488 30.2764 17.0303 30.2764Z" stroke="#944446" stroke-width="1.5" stroke-linecap="round" stroke-linejoin="round"/>
<path d="M16.1519 17.5261C15.2939 17.5341 14.4646 17.2174 13.8304 16.6396C13.1961 16.0617 12.8038 15.2654 12.7321 14.4104C12.6604 13.5554 12.9146 12.7049 13.4438 12.0294C13.973 11.354 14.7379 10.9036 15.5852 10.7686C15.4496 10.1683 15.4794 9.54237 15.6716 8.95765C15.8638 8.37294 16.211 7.85135 16.6764 7.44853C17.1417 7.04571 17.7077 6.77676 18.3139 6.67038C18.9201 6.56399 19.5439 6.62416 20.1186 6.84445C20.3702 6.4483 20.7012 6.10854 21.0906 5.84655C21.4799 5.58457 21.9194 5.40604 22.3811 5.3222C22.8429 5.23836 23.317 5.25103 23.7737 5.35941C24.2303 5.4678 24.6596 5.66954 25.0344 5.95195C25.6883 5.43802 26.5079 5.18158 27.3381 5.23115C28.1683 5.28071 28.9515 5.63285 29.5396 6.22094C30.1277 6.80902 30.4798 7.59226 30.5294 8.42246C30.579 9.25266 30.3225 10.0722 29.8086 10.7261C30.1285 11.151 30.3442 11.645 30.4385 12.1685C30.5327 12.6919 30.5029 13.2302 30.3513 13.7399C30.1997 14.2497 29.9307 14.7169 29.5658 15.1038C29.2009 15.4907 28.7503 15.7867 28.2502 15.9678C28.3795 16.4777 28.394 17.0099 28.2927 17.5261" stroke="#944446" stroke-width="1.5" stroke-linecap="round" stroke-linejoin="round"/>
<path d="M18.447 17.526L24.1137 11.8594" stroke="#944446" stroke-width="1.5" stroke-linecap="round" stroke-linejoin="round"/>
<path d="M15.4718 10.797C14.6948 9.96866 13.6862 9.39359 12.5776 9.14679C11.4689 8.89998 10.3116 8.99288 9.25655 9.41339C8.20148 9.83389 7.29755 10.5625 6.66259 11.5042C6.02763 12.4459 5.69109 13.5571 5.69685 14.6929C5.69685 15.727 5.98018 16.6904 6.46185 17.5262" stroke="#944446" stroke-width="1.5" stroke-linecap="round" stroke-linejoin="round"/>
</svg>
