<svg width="34" height="34" viewBox="0 0 34 34" fill="none" xmlns="http://www.w3.org/2000/svg">
<path d="M5.55504 20.2903C5.28696 20.2912 5.02412 20.2161 4.79706 20.0735C4.57 19.931 4.38804 19.727 4.27232 19.4852C4.1566 19.2433 4.11187 18.9736 4.14333 18.7074C4.17479 18.4412 4.28115 18.1893 4.45004 17.9811L18.475 3.53114C18.5802 3.40971 18.7236 3.32765 18.8816 3.29843C19.0396 3.26922 19.2028 3.29458 19.3445 3.37036C19.4862 3.44614 19.5979 3.56783 19.6613 3.71546C19.7247 3.8631 19.736 4.0279 19.6934 4.18281L16.9734 12.7111C16.8932 12.9258 16.8662 13.1567 16.8949 13.3841C16.9235 13.6114 17.0069 13.8284 17.1378 14.0165C17.2688 14.2046 17.4434 14.358 17.6467 14.4638C17.85 14.5695 18.0759 14.6244 18.305 14.6236H28.2217C28.4898 14.6227 28.7526 14.6979 28.9797 14.8404C29.2068 14.9829 29.3887 15.187 29.5044 15.4288C29.6201 15.6706 29.6649 15.9403 29.6334 16.2065C29.602 16.4728 29.4956 16.7246 29.3267 16.9328L15.3017 31.3828C15.1965 31.5042 15.0531 31.5863 14.8952 31.6155C14.7372 31.6447 14.5739 31.6194 14.4323 31.5436C14.2906 31.4678 14.1789 31.3461 14.1155 31.1985C14.0521 31.0509 14.0408 30.8861 14.0834 30.7311L16.8034 22.2028C16.8836 21.9882 16.9105 21.7572 16.8819 21.5299C16.8532 21.3025 16.7699 21.0855 16.6389 20.8975C16.508 20.7094 16.3334 20.5559 16.1301 20.4502C15.9268 20.3444 15.7009 20.2896 15.4717 20.2903H5.55504Z" stroke="#944446" stroke-width="1.5" stroke-linecap="round" stroke-linejoin="round"/>
</svg>
