<svg width="61" height="61" viewBox="0 0 61 61" fill="none" xmlns="http://www.w3.org/2000/svg">
<path d="M13.2861 29.8894C18.0825 30.4794 22.4675 26.9179 23.0804 21.9346C23.6932 16.9514 17.9868 12.1488 20.0597 5.53418C9.80158 7.0204 6.26606 15.287 5.71121 19.7985C5.09836 24.7817 8.48973 29.2997 13.2861 29.8894Z" stroke="#944446" stroke-width="2" stroke-linejoin="round"/>
<path d="M18.1396 50.5342C13.328 38.8447 12.5644 28.5194 13.4715 20.5342" stroke="#944446" stroke-width="2" stroke-linecap="round" stroke-linejoin="round"/>
<path d="M24.4093 44.7045C27.3467 50.6847 34.4412 52.334 40.2554 48.388C46.0697 44.442 46.9842 33.5087 55.6397 29.697C46.4032 19.4654 34.8824 23.1592 29.6187 26.7315C23.8043 30.6775 21.4721 38.7242 24.4093 44.7045Z" stroke="#944446" stroke-width="2" stroke-linejoin="round"/>
<path d="M15.6396 55.5342C21.5841 45.2952 28.8006 39.1092 35.6396 35.5342" stroke="#944446" stroke-width="2" stroke-linecap="round" stroke-linejoin="round"/>
</svg>
