<svg width="25" height="25" viewBox="0 0 25 25" fill="none" xmlns="http://www.w3.org/2000/svg">
<path d="M17.12 13.3078C16.7921 14.8692 15.0476 15.9907 11.5589 18.2336C7.76427 20.6731 5.86699 21.8928 4.33021 21.4229C3.8097 21.2637 3.33032 20.9839 2.92778 20.6041C1.73926 19.4832 1.73926 17.1559 1.73926 12.5013C1.73926 7.84678 1.73926 5.51949 2.92778 4.39847C3.33032 4.01879 3.8097 3.73894 4.33021 3.57979C5.867 3.10988 7.76427 4.32959 11.5589 6.76904C15.0476 9.01198 16.7921 10.1335 17.12 11.6949C17.2315 12.2262 17.2315 12.7765 17.12 13.3078Z" stroke="#00683D" stroke-width="2" stroke-linejoin="round"/>
<path d="M22.3584 3.48047V21.5222" stroke="#00683D" stroke-width="2" stroke-linecap="round"/>
</svg>
