<svg width="105" height="105" viewBox="0 0 105 105" fill="none" xmlns="http://www.w3.org/2000/svg">
<path d="M66.3645 53.0942L47.6498 42.2893C49.185 39.4448 47.8251 37.7524 46.085 36.7478C43.6908 35.3655 41.5548 37.4836 40.8251 38.349C39.3921 37.5676 36.538 35.9841 36.5857 35.9014C36.6454 35.798 32.569 33.3067 29.4051 38.7868C26.8739 43.1709 28.8395 46.1343 30.1387 47.0681L34.378 49.5157C33.6544 50.8525 32.6437 53.2146 35.6693 54.8514C38.6949 56.4882 40.5366 54.4504 41.2028 53.4559C43.288 54.6598 46.3616 56.4344 49.4524 58.2188M66.3645 53.0942C67.0684 53.5465 68.5237 55.0853 68.7138 57.6214L70.5749 58.696C72.5959 60.049 72.9605 61.7277 72.0054 63.3821C71.6978 63.9147 71.3223 64.2801 70.9119 64.5185C69.7308 65.3163 68.2571 64.838 67.2916 64.3829L65.4304 63.3084C64.7991 64.3223 62.8126 65.9323 59.9174 64.2608C58.222 63.282 53.8201 60.7405 49.4524 58.2188M66.3645 53.0942L49.4524 58.2188" stroke="#944446" stroke-width="2"/>
<line x1="33.2373" y1="84.8688" x2="48.935" y2="56.8902" stroke="#944446" stroke-width="2"/>
<line x1="55.2261" y1="45.9964" x2="69.9488" y2="19.3318" stroke="#944446" stroke-width="2"/>
<circle cx="52.5578" cy="52.6162" r="36.8173" transform="rotate(-60 52.5578 52.6162)" stroke="#944446" stroke-width="2"/>
<path d="M76.0588 72.7003C76.0588 75.0125 74.1844 76.887 71.8722 76.887C69.56 76.887 67.6855 75.0125 67.6855 72.7003C67.6855 71.588 68.3183 70.2099 69.346 68.679C70.1235 67.5208 71.0417 66.3936 71.9004 65.3414C72.7254 66.303 73.6257 67.4194 74.3828 68.5683C75.4127 70.1313 76.0588 71.5817 76.0588 72.7003Z" stroke="#944446" stroke-width="2"/>
</svg>
