<svg width="51" height="50" viewBox="0 0 51 50" fill="none" xmlns="http://www.w3.org/2000/svg">
<path d="M17.7532 18.9073C13.3753 23.2852 1.99301 41.6718 5.49526 45.1741C8.99753 48.6764 27.3843 37.2941 31.7622 32.9162C36.1399 28.5385 38.7668 25.9118 31.7622 18.9073C24.7576 11.9028 22.1309 14.5294 17.7532 18.9073Z" stroke="#944446" stroke-width="2"/>
<path d="M30.8789 32.2915L27.7539 29.1665" stroke="#944446" stroke-width="2" stroke-linecap="round" stroke-linejoin="round"/>
<path d="M15.2539 22.9165L18.3789 26.0415" stroke="#944446" stroke-width="2" stroke-linecap="round" stroke-linejoin="round"/>
<path d="M19.4193 39.5833L17.3359 37.5" stroke="#944446" stroke-width="2" stroke-linecap="round" stroke-linejoin="round"/>
<path d="M31.9199 4.16675C33.0001 5.247 33.7022 7.56948 31.9201 10.648M46.5033 18.7501C45.423 17.6698 43.1008 16.9677 40.0224 18.7501M40.8328 9.83741L36.7822 13.8883" stroke="#944446" stroke-width="2" stroke-linecap="round" stroke-linejoin="round"/>
<path d="M32.1025 26.114C34.3178 26.2956 34.6423 28.9114 36.6703 29.8621C37.4801 30.2417 39.0107 29.4669 38.849 29.8621C38.5332 30.634 38.5618 31.5478 38.2779 32.3429C37.9324 33.3103 37.9715 34.4033 37.5996 35.3949C37.0474 36.8674 36.6348 38.3354 35.7791 39.6784C34.6063 41.5193 32.6436 42.6597 30.5207 42.9569C27.9767 43.313 23.7162 38.6554 23.0097 35.3949C22.4767 32.935 23.0968 35.3721 23.3927 32.8784L23.3955 32.8545C23.5828 31.276 23.7877 29.5485 24.8562 28.2914C25.6788 27.3237 27.1462 26.1539 28.4794 26.0872C29.6673 26.0278 30.9169 26.0168 32.1025 26.114Z" fill="white"/>
<path d="M30.8794 25.5825L30.2653 27.2419C29.4601 29.4179 29.0576 30.5059 28.2638 31.2995C27.4703 32.0932 26.3823 32.4958 24.2064 33.301L22.5469 33.915L24.2064 34.5291C26.3823 35.3343 27.4703 35.7369 28.2638 36.5305C29.0576 37.3242 29.4601 38.4122 30.2653 40.5881L30.8794 42.2476L31.4935 40.5881C32.2987 38.4122 32.7012 37.3242 33.495 36.5305C34.2885 35.7369 35.3765 35.3343 37.5524 34.5291L39.2119 33.915L37.5524 33.301C35.3765 32.4958 34.2885 32.0932 33.495 31.2995C32.7012 30.5059 32.2987 29.4179 31.4935 27.2419L30.8794 25.5825Z" stroke="#944446" stroke-width="2" stroke-linejoin="round"/>
<path d="M40.6376 38.1099L40.347 38.895C39.9661 39.9244 39.7757 40.4392 39.4001 40.8147C39.0247 41.1902 38.5099 41.3807 37.4805 41.7616L36.6953 42.0521L37.4805 42.3426C38.5099 42.7236 39.0247 42.9141 39.4001 43.2896C39.7757 43.665 39.9661 44.1798 40.347 45.2093L40.6376 45.9944L40.9281 45.2093C41.3091 44.1798 41.4995 43.665 41.875 43.2895C42.2505 42.9141 42.7652 42.7236 43.7947 42.3426L44.5798 42.0521L43.7947 41.7616C42.7652 41.3807 42.2505 41.1902 41.875 40.8147C41.4995 40.4392 41.3091 39.9244 40.9281 38.895L40.6376 38.1099Z" stroke="#944446" stroke-width="1.6" stroke-linejoin="round"/>
</svg>
