<svg width="81" height="81" viewBox="0 0 81 81" fill="none" xmlns="http://www.w3.org/2000/svg">
<path d="M23.8555 70.4131H57.1888" stroke="#944446" stroke-width="2" stroke-linecap="round" stroke-linejoin="round"/>
<path d="M40.5234 70.4131C48.4799 70.4131 56.1105 67.2524 61.7366 61.6263C67.3627 56.0002 70.5234 48.3696 70.5234 40.4131H10.5234C10.5234 48.3696 13.6841 56.0002 19.3102 61.6263C24.9363 67.2524 32.5669 70.4131 40.5234 70.4131Z" stroke="#944446" stroke-width="2" stroke-linecap="round" stroke-linejoin="round"/>
<path d="M38.4574 40.4133C36.4386 40.4321 34.4873 39.687 32.995 38.3273C31.5026 36.9676 30.5795 35.094 30.4108 33.0822C30.2421 31.0704 30.8403 29.0691 32.0854 27.4799C33.3304 25.8907 35.1303 24.831 37.1241 24.5133C36.8048 23.1007 36.8751 21.628 37.3272 20.2522C37.7794 18.8764 38.5965 17.6492 39.6915 16.7013C40.7864 15.7535 42.1181 15.1207 43.5445 14.8704C44.9709 14.6201 46.4385 14.7616 47.7907 15.28C48.3828 14.3479 49.1615 13.5484 50.0777 12.932C50.994 12.3155 52.0279 11.8955 53.1144 11.6982C54.2009 11.5009 55.3165 11.5307 56.391 11.7858C57.4654 12.0408 58.4754 12.5155 59.3574 13.18C60.8959 11.9707 62.8244 11.3673 64.7778 11.484C66.7312 11.6006 68.5741 12.4291 69.9578 13.8129C71.3415 15.1966 72.1701 17.0395 72.2867 18.9929C72.4034 20.9464 71.8 22.8748 70.5907 24.4133C71.3434 25.4131 71.851 26.5755 72.0728 27.8071C72.2946 29.0387 72.2243 30.3051 71.8677 31.5047C71.5111 32.7042 70.8781 33.8033 70.0195 34.7137C69.1609 35.6242 68.1007 36.3204 66.9241 36.7466C67.2282 37.9464 67.2624 39.1987 67.0241 40.4133" stroke="#944446" stroke-width="2" stroke-linecap="round" stroke-linejoin="round"/>
<path d="M43.8555 40.4134L57.1888 27.0801" stroke="#944446" stroke-width="2" stroke-linecap="round" stroke-linejoin="round"/>
<path d="M36.8576 24.5796C35.0292 22.6305 32.6561 21.2774 30.0475 20.6967C27.4389 20.116 24.7159 20.3346 22.2334 21.324C19.7508 22.3134 17.6239 24.0278 16.1299 26.2436C14.6359 28.4594 13.8441 31.0739 13.8576 33.7463C13.8576 36.1796 14.5243 38.4463 15.6576 40.413" stroke="#944446" stroke-width="2" stroke-linecap="round" stroke-linejoin="round"/>
</svg>
