<svg width="33" height="33" viewBox="0 0 33 33" fill="none" xmlns="http://www.w3.org/2000/svg">
<path d="M6.60079 23.4358L5.05013 14.1791C4.79791 12.6734 4.6718 11.9205 5.06015 11.4261C5.44848 10.9316 6.16589 10.9316 7.60071 10.9316H26.0253C27.4601 10.9316 28.1775 10.9316 28.5658 11.4261C28.9542 11.9205 28.8281 12.6734 28.5758 14.1791L27.0251 23.4358C26.4783 26.7002 26.205 28.3323 25.1222 29.2986C24.0395 30.265 22.4842 30.265 19.3735 30.265H14.2525C11.1418 30.265 9.58651 30.265 8.50377 29.2986C7.42103 28.3323 7.14761 26.7002 6.60079 23.4358Z" stroke="#944446" stroke-width="1.5"/>
<path d="M10.147 10.932V10.2653C10.147 6.58341 13.1317 3.59863 16.8136 3.59863C20.4955 3.59863 23.4803 6.58341 23.4803 10.2653V10.932" stroke="#944446" stroke-width="1.5"/>
<path d="M6.81299 24.2646H26.813" stroke="#944446" stroke-width="1.5"/>
</svg>
