<svg width="31" height="30" viewBox="0 0 31 30" fill="none" xmlns="http://www.w3.org/2000/svg">
<path d="M8.87598 26.25H21.376" stroke="#944446" stroke-width="2" stroke-linecap="round" stroke-linejoin="round"/>
<path d="M15.126 26.25C18.1097 26.25 20.9711 25.0647 23.0809 22.955C25.1907 20.8452 26.376 17.9837 26.376 15H3.87598C3.87598 17.9837 5.06124 20.8452 7.17103 22.955C9.28081 25.0647 12.1423 26.25 15.126 26.25Z" stroke="#944446" stroke-width="2" stroke-linecap="round" stroke-linejoin="round"/>
<path d="M14.3512 15.0003C13.5942 15.0074 12.8624 14.7279 12.3028 14.2181C11.7432 13.7082 11.397 13.0056 11.3337 12.2512C11.2705 11.4967 11.4948 10.7463 11.9617 10.1503C12.4286 9.55435 13.1036 9.15695 13.8512 9.03783C13.7315 8.50811 13.7578 7.95584 13.9274 7.43991C14.097 6.92399 14.4034 6.46377 14.814 6.10834C15.2246 5.75291 15.724 5.5156 16.2589 5.42173C16.7938 5.32786 17.3441 5.38095 17.8512 5.57533C18.0733 5.22578 18.3653 4.92599 18.7088 4.69483C19.0524 4.46366 19.4401 4.30614 19.8476 4.23216C20.255 4.15819 20.6734 4.16937 21.0763 4.265C21.4792 4.36063 21.858 4.53864 22.1887 4.78783C22.7657 4.33436 23.4888 4.10808 24.2213 4.15182C24.9539 4.19556 25.645 4.50627 26.1639 5.02517C26.6828 5.54407 26.9935 6.23516 27.0372 6.96769C27.081 7.70022 26.8547 8.42337 26.4012 9.00033C26.6835 9.37524 26.8738 9.81114 26.957 10.273C27.0402 10.7348 27.0138 11.2098 26.8801 11.6596C26.7464 12.1094 26.509 12.5216 26.187 12.863C25.865 13.2044 25.4674 13.4655 25.0262 13.6253C25.1403 14.0752 25.1531 14.5449 25.0637 15.0003" stroke="#944446" stroke-width="2" stroke-linecap="round" stroke-linejoin="round"/>
<path d="M16.376 15L21.376 10" stroke="#944446" stroke-width="2" stroke-linecap="round" stroke-linejoin="round"/>
<path d="M13.751 9.0616C13.0654 8.33069 12.1755 7.82328 11.1973 7.60551C10.219 7.38774 9.19791 7.46971 8.26696 7.84074C7.336 8.21177 6.53842 8.85465 5.97816 9.68558C5.4179 10.5165 5.12096 11.497 5.12604 12.4991C5.12604 13.4116 5.37604 14.2616 5.80104 14.9991" stroke="#944446" stroke-width="2" stroke-linecap="round" stroke-linejoin="round"/>
</svg>
