<svg width="31" height="30" viewBox="0 0 31 30" fill="none" xmlns="http://www.w3.org/2000/svg">
<path d="M15.126 26.25V8.75" stroke="#944446" stroke-width="2" stroke-linecap="round" stroke-linejoin="round"/>
<path d="M20.126 15L22.626 17.5L27.626 12.5" stroke="#944446" stroke-width="2" stroke-linecap="round" stroke-linejoin="round"/>
<path d="M27.626 7.5V5C27.626 4.66848 27.4943 4.35054 27.2599 4.11612C27.0254 3.8817 26.7075 3.75 26.376 3.75H20.126C18.7999 3.75 17.5281 4.27678 16.5904 5.21447C15.6528 6.15215 15.126 7.42392 15.126 8.75C15.126 7.42392 14.5992 6.15215 13.6615 5.21447C12.7238 4.27678 11.4521 3.75 10.126 3.75H3.87598C3.54446 3.75 3.22651 3.8817 2.99209 4.11612C2.75767 4.35054 2.62598 4.66848 2.62598 5V21.25C2.62598 21.5815 2.75767 21.8995 2.99209 22.1339C3.22651 22.3683 3.54446 22.5 3.87598 22.5H11.376C12.3705 22.5 13.3244 22.8951 14.0276 23.5983C14.7309 24.3016 15.126 25.2554 15.126 26.25C15.126 25.2554 15.5211 24.3016 16.2243 23.5983C16.9276 22.8951 17.8814 22.5 18.876 22.5H26.376C26.7075 22.5 27.0254 22.3683 27.2599 22.1339C27.4943 21.8995 27.626 21.5815 27.626 21.25V19.625" stroke="#944446" stroke-width="2" stroke-linecap="round" stroke-linejoin="round"/>
</svg>
