<svg width="31" height="30" viewBox="0 0 31 30" fill="none" xmlns="http://www.w3.org/2000/svg">
<path d="M16.376 5H20.126C20.789 5 21.4249 5.26339 21.8937 5.73223C22.3626 6.20107 22.626 6.83696 22.626 7.5V25" stroke="#944446" stroke-width="2" stroke-linecap="round" stroke-linejoin="round"/>
<path d="M2.62598 25H6.37598" stroke="#944446" stroke-width="2" stroke-linecap="round" stroke-linejoin="round"/>
<path d="M16.376 25H27.626" stroke="#944446" stroke-width="2" stroke-linecap="round" stroke-linejoin="round"/>
<path d="M12.626 15V15.0125" stroke="#944446" stroke-width="2" stroke-linecap="round" stroke-linejoin="round"/>
<path d="M16.376 5.70275V25.899C16.3759 26.0889 16.3326 26.2762 16.2493 26.4469C16.1661 26.6175 16.045 26.7669 15.8954 26.8838C15.7457 27.0007 15.5714 27.0819 15.3857 27.1214C15.2 27.1608 15.0077 27.1574 14.8235 27.1115L6.37598 25.0002V6.95275C6.37606 6.39526 6.56248 5.85379 6.90561 5.41441C7.24873 4.97503 7.72888 4.66294 8.26973 4.52775L13.2697 3.27775C13.6382 3.18565 14.0227 3.17871 14.3943 3.25744C14.7658 3.33617 15.1145 3.49851 15.4139 3.73214C15.7133 3.96576 15.9556 4.26453 16.1223 4.60576C16.289 4.947 16.3757 5.32297 16.376 5.70275Z" stroke="#944446" stroke-width="2" stroke-linecap="round" stroke-linejoin="round"/>
</svg>
