<svg width="20" height="20" viewBox="0 0 20 20" fill="none" xmlns="http://www.w3.org/2000/svg">
<g clip-path="url(#clip0_4407_909)">
<path d="M8.94415 4.22991C10.8853 3.99858 12.8488 4.40893 14.5349 5.39829C16.2209 6.38764 17.5368 7.90164 18.2817 9.70908C18.3511 9.89618 18.3511 10.102 18.2817 10.2891C17.9754 11.0316 17.5707 11.7295 17.0783 12.3641" stroke="#00683D" stroke-width="1.5" stroke-linecap="round" stroke-linejoin="round"/>
<path d="M11.7367 11.7987C11.2652 12.2541 10.6336 12.5061 9.97815 12.5004C9.32266 12.4947 8.69563 12.2317 8.23211 11.7682C7.76859 11.3047 7.50567 10.6777 7.49997 10.0222C7.49428 9.36668 7.74626 8.73518 8.20166 8.26367" stroke="#00683D" stroke-width="1.5" stroke-linecap="round" stroke-linejoin="round"/>
<path d="M14.5658 14.5822C13.4604 15.237 12.2271 15.6463 10.9495 15.7825C9.6719 15.9186 8.37997 15.7784 7.16137 15.3712C5.94277 14.9641 4.82601 14.2996 3.88686 13.4228C2.94771 12.546 2.20814 11.4775 1.71835 10.2897C1.6489 10.1026 1.6489 9.89676 1.71835 9.70966C2.45721 7.91787 3.75724 6.41403 5.42335 5.42383" stroke="#00683D" stroke-width="1.5" stroke-linecap="round" stroke-linejoin="round"/>
<path d="M1.66669 1.66699L18.3334 18.3337" stroke="#00683D" stroke-width="1.5" stroke-linecap="round" stroke-linejoin="round"/>
</g>
<defs>
<clipPath id="clip0_4407_909">
<rect width="20" height="20" fill="white"/>
</clipPath>
</defs>
</svg>
