<svg width="16" height="17" viewBox="0 0 16 17" fill="none" xmlns="http://www.w3.org/2000/svg">
<g clip-path="url(#clip0_2350_6480)">
<path d="M14.3192 7.78842C14.5245 8.0664 14.6271 8.20542 14.6271 8.41114C14.6271 8.61687 14.5245 8.75589 14.3192 9.03387C13.3967 10.283 11.0409 12.9756 7.87433 12.9756C4.70779 12.9756 2.35195 10.283 1.42948 9.03387C1.22417 8.75589 1.12152 8.61687 1.12152 8.41114C1.12152 8.20542 1.22417 8.0664 1.42948 7.78842C2.35195 6.53935 4.70779 3.84668 7.87433 3.84668C11.0409 3.84668 13.3967 6.53935 14.3192 7.78842Z" stroke="#00683D" stroke-width="1.5"/>
<path d="M9.89258 8.41113C9.89258 7.29629 8.98887 6.39258 7.87402 6.39258C6.75918 6.39258 5.85547 7.29629 5.85547 8.41113C5.85547 9.52598 6.75918 10.4297 7.87402 10.4297C8.98887 10.4297 9.89258 9.52598 9.89258 8.41113Z" stroke="#00683D" stroke-width="1.5"/>
</g>
<defs>
<clipPath id="clip0_2350_6480">
<rect width="15.7482" height="15.625" fill="white" transform="translate(0 0.598633)"/>
</clipPath>
</defs>
</svg>
