<svg width="32" height="32" viewBox="0 0 32 32" fill="none" xmlns="http://www.w3.org/2000/svg">
<path d="M11.334 14.667L12.6673 16.0003M12.6673 16.0003L14.0007 17.3337M12.6673 16.0003L14.0007 14.667M12.6673 16.0003L11.334 17.3337" stroke="#944446" stroke-width="1.5" stroke-linecap="round"/>
<path d="M4.66602 14.667L5.99935 16.0003M5.99935 16.0003L7.33268 17.3337M5.99935 16.0003L7.33268 14.667M5.99935 16.0003L4.66602 17.3337" stroke="#944446" stroke-width="1.5" stroke-linecap="round"/>
<path d="M18 14.667L19.3333 16.0003M19.3333 16.0003L20.6667 17.3337M19.3333 16.0003L20.6667 14.667M19.3333 16.0003L18 17.3337" stroke="#944446" stroke-width="1.5" stroke-linecap="round"/>
<path d="M24.666 14.667L25.9993 16.0003M25.9993 16.0003L27.3327 17.3337M25.9993 16.0003L27.3327 14.667M25.9993 16.0003L24.666 17.3337" stroke="#944446" stroke-width="1.5" stroke-linecap="round"/>
<path d="M26.1783 21.3337C23.9346 25.0714 20.1424 27.4959 17.8746 28.6929C17.0651 29.1201 16.6604 29.3337 15.9999 29.3337C15.3394 29.3337 14.9347 29.1201 14.1252 28.6929C11.8573 27.4959 8.06525 25.0714 5.82151 21.3337M27.9998 10.667C27.998 8.72706 27.9683 7.71886 27.4611 7.04738C26.9223 6.33404 25.704 5.98774 23.2675 5.29513C21.6028 4.82193 20.1354 4.25183 18.963 3.73138C17.3644 3.02179 16.5652 2.66699 15.9999 2.66699C15.4346 2.66699 14.6354 3.02179 13.0368 3.73138C11.8644 4.25183 10.397 4.82191 8.73233 5.29513C6.2958 5.98774 5.07752 6.33404 4.53871 7.04738C4.03151 7.71886 4.00175 8.72706 4 10.667" stroke="#944446" stroke-width="1.5" stroke-linecap="round"/>
</svg>
