<svg width="25" height="25" viewBox="0 0 25 25" fill="none" xmlns="http://www.w3.org/2000/svg">
<path d="M16.9249 4.74376L17.9149 3.75377C18.7351 2.93364 20.0648 2.93364 20.8849 3.75377C21.705 4.57391 21.705 5.9036 20.8849 6.72374L19.8949 7.71373M16.9249 4.74376L10.2656 11.4031C9.75807 11.9107 9.39804 12.5465 9.22397 13.2428L8.5 16.1387L11.3959 15.4147C12.0922 15.2407 12.728 14.8806 13.2356 14.3731L19.8949 7.71373M16.9249 4.74376L19.8949 7.71373" stroke="#944446" stroke-width="1.5" stroke-linejoin="round"/>
<path d="M19.4999 13.6387C19.4999 16.9262 19.4999 18.5699 18.592 19.6763C18.4258 19.8788 18.2401 20.0645 18.0375 20.2307C16.9312 21.1387 15.2874 21.1387 11.9999 21.1387H11.5C7.72876 21.1387 5.84316 21.1387 4.67159 19.9671C3.50003 18.7956 3.5 16.9099 3.5 13.1387V12.6387C3.5 9.35119 3.5 7.70746 4.40794 6.60111C4.57417 6.39857 4.7599 6.21284 4.96244 6.04661C6.06879 5.13867 7.71252 5.13867 11 5.13867" stroke="#944446" stroke-width="1.5" stroke-linecap="round" stroke-linejoin="round"/>
</svg>
