<svg width="32" height="32" viewBox="0 0 32 32" fill="none" xmlns="http://www.w3.org/2000/svg">
<path d="M29.3327 16.0003C29.3327 23.3641 23.3631 29.3337 15.9993 29.3337C8.63555 29.3337 2.66602 23.3641 2.66602 16.0003C2.66602 8.63653 8.63555 2.66699 15.9993 2.66699C23.3631 2.66699 29.3327 8.63653 29.3327 16.0003Z" stroke="#944446" stroke-width="1.5"/>
<path d="M19.6673 12.6667C19.6673 14.6917 18.0257 16.3333 16.0007 16.3333C13.9756 16.3333 12.334 14.6917 12.334 12.6667C12.334 10.6416 13.9756 9 16.0007 9C18.0257 9 19.6673 10.6416 19.6673 12.6667Z" stroke="#944446" stroke-width="1.5"/>
<path d="M7.33398 25.3337L8.08118 24.0261C9.26813 21.949 11.4771 20.667 13.8695 20.667H18.1318C20.5242 20.667 22.7331 21.949 23.9201 24.0261L24.6673 25.3337" stroke="#944446" stroke-width="1.5" stroke-linecap="round" stroke-linejoin="round"/>
</svg>
