<svg width="27" height="24" viewBox="0 0 27 24" fill="none" xmlns="http://www.w3.org/2000/svg">
<path d="M4.91154 1.05176L9.47697 4.07562L13.4494 3.77915L17.5997 4.07562L18.8448 2.77121L22.2244 1.05176V3.77915L21.4536 7.04014L22.9359 9.2339L23.4695 15.4001L21.8094 19.4319L17.5997 22.6929L12.9751 23.3451L7.40174 21.9221L3.72572 18.1275L3.13281 13.325L3.72572 9.2339L4.91154 6.74369L4.20008 1.64468L4.91154 1.05176Z" fill="#2BB673"/>
<path d="M25.8985 16.1763C26.1556 16.1763 26.3643 15.9569 26.3643 15.6866C26.3643 15.4162 26.1556 15.1968 25.8985 15.1968H23.8389C23.9008 14.7543 23.9396 14.299 23.9529 13.8297L25.9421 13.3808C26.1932 13.3246 26.3545 13.0645 26.2999 12.7992C26.2466 12.5352 25.9991 12.3644 25.7469 12.423L23.9444 12.8299C23.8425 10.6567 23.1924 8.75633 22.0898 7.22741C23.0638 1.49861 22.5932 1.00007 22.4367 0.835519C22.1796 0.565152 21.6968 0.0703083 16.839 3.62976C15.7401 3.31348 14.5441 3.14003 13.2572 3.14003C11.9497 3.14003 10.7355 3.32113 9.62079 3.64762C4.81991 0.0638115 4.33488 0.563885 4.07746 0.835519C3.92099 1.00004 3.44795 1.49998 4.36008 7.31294C3.29511 8.82675 2.66923 10.6976 2.56977 12.8299L0.767323 12.423C0.517454 12.3644 0.26879 12.5353 0.214233 12.7992C0.15965 13.0632 0.320972 13.3234 0.57204 13.3808L2.56005 13.8284C2.57461 14.2977 2.61343 14.753 2.67407 15.1956L0.618117 15.1968C0.360973 15.1968 0.152344 15.4162 0.152344 15.6866C0.152344 15.9569 0.360973 16.1763 0.618117 16.1763H2.85721C2.95425 16.5971 3.07069 17.0053 3.2126 17.3968L0.574428 17.9911C0.323348 18.0472 0.162032 18.3074 0.21662 18.5726C0.263924 18.8022 0.456786 18.9603 0.671464 18.9603C0.704214 18.9603 0.736964 18.9565 0.769714 18.9488L3.59832 18.3112C5.22732 21.6919 8.6647 23.7096 13.2582 23.7096C17.8516 23.7096 21.289 21.692 22.9192 18.3112L25.7478 18.9488C25.7806 18.9565 25.8133 18.9603 25.8461 18.9603C26.0608 18.9603 26.2536 18.8034 26.3009 18.5726C26.3555 18.3086 26.1942 18.0484 25.9431 17.9911L23.3037 17.3968C23.4457 17.0053 23.5621 16.5971 23.6591 16.1763L25.8985 16.1763ZM21.7649 1.66802C21.8207 2.3822 21.5987 4.36023 21.2991 6.27698C20.3834 5.31412 19.2553 4.54891 17.9502 4.0171C19.481 2.93053 21.1172 1.89248 21.7649 1.66802ZM4.74833 1.66929C5.3912 1.89503 7.01414 2.9446 8.52421 4.0363C7.20936 4.5796 6.07647 5.35881 5.15946 6.34081C4.88169 4.39977 4.68161 2.38756 4.74833 1.66929ZM22.3956 17.1926L20.7969 16.8329C20.5458 16.7743 20.2984 16.9452 20.2438 17.2091C20.1892 17.4731 20.3505 17.7333 20.6016 17.7907L21.9953 18.1044C20.4888 21.0351 17.4164 22.73 13.2583 22.73C9.10021 22.73 6.02797 21.0351 4.52011 18.1031L5.915 17.7894C6.16608 17.7333 6.3274 17.4731 6.27281 17.2078C6.21944 16.9438 5.97078 16.773 5.71972 16.8316L4.12106 17.1926C3.99855 16.8673 3.89667 16.5268 3.80934 16.1774H5.87135C6.12849 16.1774 6.33712 15.958 6.33712 15.6877C6.33712 15.4173 6.12849 15.1979 5.87135 15.1979H3.61526C3.55947 14.8243 3.52308 14.4391 3.50367 14.0425L5.71973 14.5424C5.75248 14.55 5.78523 14.5539 5.81798 14.5539C6.03267 14.5539 6.22553 14.397 6.27282 14.1662C6.32741 13.9022 6.16608 13.642 5.91502 13.5846L3.49396 13.0388C3.66862 7.61101 7.45552 4.12189 13.2581 4.12189C19.061 4.12061 22.849 7.61003 23.0223 13.0388L20.6012 13.5846C20.3501 13.6408 20.1888 13.9009 20.2434 14.1662C20.2907 14.3957 20.4836 14.5539 20.6983 14.5539C20.731 14.5539 20.7638 14.55 20.7965 14.5424L23.0126 14.0425C22.9932 14.4391 22.9568 14.8242 22.901 15.1979H20.6449C20.3878 15.1979 20.1791 15.4173 20.1791 15.6877C20.1791 15.958 20.3878 16.1774 20.6449 16.1774H22.7069C22.6196 16.5268 22.5177 16.8661 22.3952 17.1926L22.3956 17.1926Z" fill="black"/>
<path d="M17.9322 16.7684C17.709 16.632 17.4252 16.711 17.2954 16.9444C16.9958 17.4839 16.3251 17.8333 15.5864 17.8333C14.559 17.8333 13.7233 17.174 13.7233 16.3642C13.7233 16.3565 13.7196 16.3501 13.7196 16.3438C13.9222 16.2723 14.1151 16.1563 14.2764 15.9866L15.0539 15.1692C15.3329 14.8758 15.4154 14.4397 15.265 14.0558C15.1145 13.6732 14.7616 13.4258 14.3674 13.4258H12.1513C11.7571 13.4258 11.4042 13.6732 11.2537 14.0558C11.1033 14.4384 11.1858 14.8758 11.4648 15.1692L12.2423 15.9866C12.4036 16.1563 12.5953 16.271 12.7991 16.3438C12.7991 16.3514 12.7954 16.3578 12.7954 16.3642C12.7954 17.174 11.9597 17.8333 10.9323 17.8333C10.1936 17.8333 9.52286 17.4852 9.22327 16.9444C9.09349 16.711 8.80846 16.632 8.58647 16.7684C8.3645 16.9049 8.2893 17.2046 8.41908 17.438C8.8897 18.2861 9.85279 18.8128 10.9323 18.8128C11.9039 18.8128 12.7602 18.3753 13.2612 17.7147C13.7622 18.3753 14.6185 18.8128 15.5901 18.8128C16.6708 18.8128 17.6339 18.2861 18.1033 17.438C18.2295 17.2046 18.1542 16.9049 17.9322 16.7684ZM12.1209 14.4767L12.1488 14.4053H14.3649L14.3928 14.4767L13.6153 15.2942C13.4176 15.502 13.0949 15.5033 12.896 15.2942L12.1209 14.4767Z" fill="black"/>
<path d="M19.0818 11.4668C19.0818 12.7727 17.2188 12.7727 17.2188 11.4668C17.2188 10.1608 19.0818 10.1608 19.0818 11.4668Z" fill="black"/>
<path d="M9.30059 11.4668C9.30059 12.7727 7.4375 12.7727 7.4375 11.4668C7.4375 10.1608 9.30059 10.1608 9.30059 11.4668Z" fill="black"/>
</svg>
