<svg width="29" height="25" viewBox="0 0 29 25" fill="none" xmlns="http://www.w3.org/2000/svg">
<path d="M11.5816 1.3118L14.1817 0.767578L17.0238 1.3118L19.6844 2.58163L22.2845 3.36772L24.9451 6.45161L26.9406 9.59597L27.7871 12.5589L26.215 14.7963L23.5543 15.4614L22.8287 19.0895L20.4705 20.6617L17.8703 20.964L16.6005 22.7781L14.1817 23.6246L11.5816 22.7781L10.6746 20.6617H7.83255L5.47425 18.3639L4.50679 15.4614L1.96711 14.7963L0.697266 12.1356L2.57179 7.47957L5.47425 3.36772L8.80002 2.58163L11.5816 1.3118Z" fill="#2BB673"/>
<path fill-rule="evenodd" clip-rule="evenodd" d="M10.0484 8.23768C10.3018 7.93091 10.6836 7.73417 11.1121 7.73417C11.5406 7.73417 11.924 7.93091 12.1758 8.23768C12.4109 8.52278 12.8311 8.5628 13.1161 8.32938C13.3996 8.0943 13.4412 7.67413 13.2062 7.39073C12.7093 6.78551 11.9557 6.40039 11.1121 6.40039C10.2701 6.40039 9.51655 6.78552 9.01974 7.39073C8.78466 7.67416 8.82634 8.09429 9.10977 8.32938C9.39487 8.5628 9.81497 8.52278 10.0484 8.23768Z" fill="black"/>
<path fill-rule="evenodd" clip-rule="evenodd" d="M16.182 8.23768C16.4355 7.93091 16.8173 7.73417 17.2457 7.73417C17.6742 7.73417 18.056 7.93091 18.3095 8.23768C18.5445 8.52278 18.9647 8.5628 19.2481 8.32938C19.5332 8.0943 19.5732 7.67413 19.3398 7.39073C18.8413 6.78551 18.0894 6.40039 17.2458 6.40039C16.4021 6.40039 15.6502 6.78552 15.1517 7.39073C14.9183 7.67416 14.9583 8.09429 15.2434 8.32938C15.5269 8.5628 15.9469 8.52278 16.182 8.23768Z" fill="black"/>
<path fill-rule="evenodd" clip-rule="evenodd" d="M9.3441 1.7217L8.43213 1.84507C6.25973 2.13851 4.35404 3.44063 3.292 5.35797C2.50337 6.78012 1.50304 8.58409 0.526023 10.3496C-0.219238 11.6917 -0.0708346 13.354 0.901155 14.546C1.68812 15.5147 2.89186 16.0132 4.10227 15.9198C4.08226 16.0332 4.07226 16.1049 4.07226 16.1333C4.07226 19.1059 6.48641 21.5201 9.45909 21.5201C9.67083 21.5201 9.8809 21.5084 10.0877 21.4834C10.7446 23.0823 12.3184 24.211 14.1524 24.211C15.9897 24.211 17.5669 23.0806 18.2204 21.4767C18.4439 21.5051 18.6706 21.5201 18.9007 21.5201C21.8751 21.5201 24.2892 19.1059 24.2892 16.1333C24.2892 16.1049 24.2776 16.0316 24.2559 15.9149C25.488 16.0299 26.7167 15.5297 27.517 14.5461C28.489 13.354 28.6374 11.6917 27.8921 10.3496C26.9151 8.58401 25.9148 6.78003 25.1262 5.35801C24.0641 3.44068 22.1585 2.13855 19.986 1.84512L19.0624 1.72174C17.7069 0.723079 16.033 0.144531 14.2325 0.144531H14.1458C12.3635 0.1512 10.6996 0.731358 9.3441 1.7217ZM16.9115 21.1418C15.7461 20.6766 14.7791 19.818 14.1789 18.7293C13.572 19.8313 12.5884 20.7 11.403 21.1585C11.8982 22.1755 12.9452 22.8774 14.1523 22.8774C15.3677 22.8774 16.418 22.1688 16.9115 21.1418ZM14.8892 16.7153C15.1726 18.6776 16.8615 20.1865 18.9005 20.1865C21.138 20.1865 22.9553 18.3692 22.9553 16.1334C22.9553 15.8683 21.8866 11.2566 20.9679 7.19376C20.9663 7.18376 20.9629 7.17209 20.9613 7.16208C20.3894 3.86592 17.5751 1.47862 14.2321 1.47862H14.1504C10.8259 1.49195 7.98805 3.88777 7.41954 7.16379C7.4162 7.17713 7.41454 7.19047 7.4112 7.20214C6.47421 11.2585 5.40551 15.8686 5.40551 16.1337C5.40551 18.3694 7.2228 20.1867 9.45859 20.1867C11.4976 20.1867 13.1882 18.6779 13.4716 16.7155C12.1412 16.3971 11.1525 15.2 11.1525 13.7729C11.1525 12.1023 12.5096 10.7451 14.1785 10.7451C15.8508 10.7451 17.2063 12.1023 17.2063 13.7729C17.2063 15.2 16.2176 16.3971 14.8888 16.7155L14.8892 16.7153ZM14.1789 12.0788C15.1142 12.0788 15.8728 12.8374 15.8728 13.7727C15.8728 14.7064 15.1143 15.4667 14.1789 15.4667C13.2452 15.4667 12.4867 14.7064 12.4867 13.7727C12.4867 12.8374 13.2452 12.0788 14.1789 12.0788ZM7.65161 3.38243C6.30279 3.81591 5.15573 4.74457 4.45882 6.00333L1.69285 10.9949C1.21268 11.8636 1.30772 12.9356 1.9346 13.7042C2.52813 14.4328 3.48513 14.7496 4.38879 14.5278C4.77892 12.7255 5.46581 9.701 6.10603 6.93012C6.33611 5.60298 6.87967 4.39778 7.65161 3.38243ZM20.7378 3.37576C21.5014 4.38612 22.0399 5.58987 22.2733 6.917C22.8985 9.68797 23.5788 12.7089 23.9689 14.513C24.8892 14.7631 25.8763 14.4497 26.4831 13.7044C27.11 12.9358 27.205 11.8638 26.7249 10.9951L23.9589 6.00353C23.257 4.73641 22.0982 3.80258 20.7378 3.37576Z" fill="black"/>
</svg>
