<svg width="25" height="25" viewBox="0 0 25 25" fill="none" xmlns="http://www.w3.org/2000/svg">
<path d="M22.4194 17.4855V20.4855C22.4205 20.764 22.3634 21.0397 22.2519 21.2949C22.1403 21.5501 21.9767 21.7791 21.7714 21.9674C21.5662 22.1557 21.3239 22.299 21.0601 22.3882C20.7963 22.4775 20.5167 22.5106 20.2394 22.4855C17.1622 22.1512 14.2064 21.0997 11.6094 19.4155C9.19319 17.8802 7.1447 15.8317 5.60937 13.4155C3.91934 10.8067 2.86761 7.83652 2.53937 4.74553C2.51438 4.46899 2.54724 4.19029 2.63587 3.92715C2.72449 3.66402 2.86694 3.42222 3.05413 3.21715C3.24133 3.01208 3.46917 2.84824 3.72316 2.73605C3.97714 2.62386 4.25171 2.56579 4.52937 2.56553H7.52937C8.01467 2.56075 8.48516 2.73261 8.85313 3.04906C9.2211 3.36551 9.46144 3.80497 9.52937 4.28553C9.65599 5.24559 9.89082 6.18825 10.2294 7.09553C10.3639 7.45345 10.393 7.84244 10.3133 8.21641C10.2335 8.59037 10.0482 8.93364 9.77937 9.20553L8.50937 10.4755C9.93292 12.9791 12.0058 15.052 14.5094 16.4755L15.7794 15.2055C16.0513 14.9367 16.3945 14.7514 16.7685 14.6716C17.1425 14.5919 17.5314 14.621 17.8894 14.7555C18.7966 15.0941 19.7393 15.3289 20.6994 15.4555C21.1851 15.5241 21.6288 15.7687 21.9459 16.143C22.263 16.5173 22.4315 16.9951 22.4194 17.4855Z" stroke="#00683D" stroke-width="1.5" stroke-linecap="round" stroke-linejoin="round"/>
<path d="M14.4688 2.56543C16.507 2.7802 18.4109 3.68423 19.8656 5.12801C21.3203 6.57179 22.2386 8.46884 22.4687 10.5054" stroke="#00683D" stroke-width="1.5" stroke-linecap="round" stroke-linejoin="round"/>
<path d="M14.4688 6.56543C15.4523 6.75937 16.3548 7.24446 17.0591 7.95774C17.7635 8.67102 18.2372 9.57956 18.4187 10.5654" stroke="#00683D" stroke-width="1.5" stroke-linecap="round" stroke-linejoin="round"/>
</svg>
