<svg width="64" height="64" viewBox="0 0 64 64" fill="none" xmlns="http://www.w3.org/2000/svg">
<path fill-rule="evenodd" clip-rule="evenodd" d="M37.6746 48.8665C38.9925 48.8617 39.7778 47.5739 40.6656 46.774C41.46 46.0898 42.4414 45.6133 43.1356 44.8126C43.6425 44.229 43.8644 43.3084 44.4796 42.8346C47.458 41.1057 47.9262 42.4148 49.6422 38.5609C50.6218 36.7067 51.7791 35.1066 51.9858 32.9274C52.2675 29.9589 51.6846 26.6367 50.3416 23.9763C49.4414 22.1927 47.8879 20.5758 47.4623 18.5847C47.2212 18.5419 46.9542 18.4675 46.6846 18.3706C46.2922 18.2499 44.6967 17.5165 45.2416 17.4826C45.4907 17.599 46.0036 17.7172 46.5463 17.801C47.2609 17.8731 48.4074 18.0399 48.9722 17.6465C49.6918 16.9725 49.336 15.7754 50.1378 15.1322C50.4297 14.8985 52.5014 14.933 52.4028 14.784C52.1372 14.3819 50.5582 13.7499 50.3602 13.3645C50.2945 13.237 50.3604 13.142 50.3284 12.9744C50.244 12.5314 49.9839 12.2102 49.9354 11.7541C49.9284 11.688 49.9384 11.0839 49.8404 11.0401C49.5926 10.9303 49.1383 11.1118 48.9283 10.974C48.3733 10.611 47.9145 10.0664 47.2865 9.7546C47.1147 9.66989 46.6309 9.93612 46.4775 9.97428C46.1887 10.045 45.7935 9.58891 45.5067 9.65501C45.2809 9.70713 45.0454 10.0236 44.8371 10.1353C44.6942 10.2117 44.0918 10.3075 44.0246 10.4109C43.8029 10.7525 43.8704 11.2058 43.5811 11.513C43.0553 12.0724 42.7533 11.8341 42.5631 12.671C35.8084 17.5555 41.3304 21.8829 36.5671 24.5843C33.7103 26.0917 29.7063 25.2757 27.3899 23.0455C26.5249 22.1947 25.8586 20.8571 24.8808 19.9364C24.4583 19.539 23.8464 19.3854 23.3889 19.0298C22.7745 18.5522 22.3198 17.829 21.6015 17.5004C21.0494 17.2472 20.3982 17.3068 19.8438 17.0498C18.7054 16.523 17.8311 15.4813 16.5648 15.1974C16.2634 15.1304 15.7647 15.5279 15.4738 15.6061C14.916 15.7559 14.324 15.5214 13.7915 15.6684C13.5104 15.7466 12.6708 16.0231 12.5265 16.253C11.9773 17.1271 12.331 18.8315 12.5256 19.7317C12.5554 19.8657 11.5696 20.0835 11.564 20.3749C11.5565 20.7593 11.8367 21.087 11.8805 21.4612C11.9587 22.1184 11.8172 22.8342 11.9149 23.4681C11.9931 23.9726 12.3459 24.3655 12.4707 24.8467C12.6019 25.3568 12.5246 25.9274 12.6289 26.4515C12.7592 27.1106 12.6512 27.765 12.9026 28.4082C13.1344 29.0002 13.651 29.4145 13.8669 29.9981C14.0615 30.525 13.7608 30.9811 14.109 31.5284C14.5009 32.1456 15.9584 33.9803 16.4847 34.4988C16.8137 34.8218 17.4567 35.0536 17.7124 35.4222C17.7259 35.4418 17.2023 35.9444 17.1498 35.9994C16.8148 36.3475 16.5586 36.772 16.2981 37.1769C15.9818 37.6684 16.4569 38.872 16.5807 39.4184C17.5193 43.4432 18.7263 42.599 21.3542 44.7707C22.5555 45.9577 22.966 47.3558 24.5834 48.1675C25.8234 48.7894 27.4335 49.2036 28.9862 49.3097C29.4385 50.1633 30.0235 51.3529 30.366 52.268C30.0636 52.2654 29.7683 52.2984 29.4683 52.3694C29.3745 52.372 27.7597 52.8763 28.3644 52.9866C29.7575 52.7038 31.038 52.9673 32.2569 53.5973C32.6471 53.8114 33.0255 54.0664 33.3966 54.3931C33.476 54.4875 33.6258 54.3583 33.5406 54.2665C33.1711 53.7198 32.7604 53.2571 32.2354 52.8861C33.2708 52.8641 34.2089 53.1002 35.2058 53.5451C35.2525 53.5703 35.3109 53.5535 35.3361 53.507C35.3614 53.4595 35.344 53.4018 35.2974 53.3766C34.22 52.6999 33.1449 52.2927 31.9242 52.2456C32.2147 52.0846 32.5253 51.9645 32.8608 51.8668C32.984 51.8513 32.9574 51.6574 32.8336 51.6769C32.2077 51.6815 31.6097 51.7437 31.0827 52.0623C30.7761 51.2347 30.2758 50.1838 29.8398 49.3358C31.6118 49.3598 32.0579 48.9196 33.5885 48.348L34.0723 48.026C34.7886 47.5859 35.4568 47.0702 36.0791 46.4752C36.6803 46.2851 34.7355 48.2116 34.6285 48.2746C35.3289 48.3621 36.035 48.6358 36.7393 48.7791L38.6194 51.7607C38.3353 51.8107 38.0622 51.8988 37.8045 52.0325C37.4308 52.228 37.091 52.4988 36.7764 52.8628C36.6841 52.9449 36.8123 53.0905 36.9051 53.0061C38.2406 52.0434 39.8485 52.4299 41.2431 53.0499C41.5494 53.1905 41.8625 53.3459 42.1893 53.5367C42.2858 53.6137 42.4073 53.4592 42.3061 53.3841C41.7837 52.8714 41.2666 52.4464 40.6412 52.1218C41.7747 52.0135 42.8114 52.3121 43.9025 52.7744C43.9498 52.7986 44.0077 52.78 44.0319 52.7325C44.056 52.685 44.0372 52.6273 43.99 52.6031C42.8052 51.9091 41.6632 51.4424 40.3652 51.5047C40.6829 51.3083 41.0265 51.1612 41.3971 51.0393C41.5196 51.017 41.4828 50.8258 41.3605 50.8503C40.8223 50.8866 40.3125 50.9704 39.8424 51.1854C39.6624 51.2673 39.4942 51.3716 39.3347 51.4991L37.6746 48.8665Z" fill="#2BB673"/>
</svg>
