<svg width="64" height="64" viewBox="0 0 64 64" fill="none" xmlns="http://www.w3.org/2000/svg">
<path fill-rule="evenodd" clip-rule="evenodd" d="M49.6298 20.6961C51.1275 20.3967 53.1122 20.5193 54.0779 20.5864C54.7622 20.3892 55.4985 20.2837 56.1582 20.0141C57.7892 19.346 58.0064 17.4162 56.8449 16.194C55.3263 14.5945 52.5231 14.1929 50.5674 13.3394C49.8829 13.041 47.8186 11.515 47.0935 11.4639C46.1913 9.81463 44.4323 7.96573 42.9204 7.7409C41.2541 7.40941 39.8969 8.49842 39.4929 10.2641C37.5878 10.426 36.2341 11.6179 36.4405 14.0895C36.4445 11.8201 37.6676 10.7656 39.4118 10.7202C39.3874 10.912 39.3733 11.1101 39.3705 11.3137C39.391 11.109 39.4226 10.9109 39.4645 10.7202C41.1193 10.6973 43.0778 11.6466 44.4586 12.797C44.1672 13.0165 43.8595 13.2308 43.5021 13.4151C42.9772 13.6869 42.0205 13.7529 41.6323 14.2324C41.341 14.5926 42.0974 15.3651 42.3721 15.8617C43.349 15.9975 44.85 15.9372 45.5863 15.573C44.9408 16.1089 43.4601 16.534 42.4453 16.5906C42.2896 18.5321 41.3194 22.1252 39.5799 22.7582C38.2771 23.2325 36.5279 22.9479 35.1605 22.9756C33.0299 23.0204 30.983 23.6074 28.8341 23.3613C22.0877 22.4132 14.5955 19.0376 10.8206 27.0922C10.0841 28.4378 9.13146 29.7613 8.86089 31.3064C8.64567 32.5371 8.70637 34.614 9.0324 35.8053C9.25403 36.6141 9.70049 37.3472 9.93815 38.1559C10.5317 40.1794 10.7757 42.3575 11.5216 44.3353C12.0821 45.8228 13.1255 47.1804 13.7562 48.67C14.5948 50.652 14.898 52.6819 15.8725 54.6074C16.0435 54.9463 16.1226 55.5259 16.3504 55.7998C16.8357 55.9368 19.077 56.0861 19.6848 56.1206C19.7601 55.9745 19.3671 55.2947 19.2852 55.1487C18.7617 54.211 18.0217 53.4128 17.5063 52.4687C16.432 50.4912 15.9546 48.3524 15.6992 46.1455C15.3261 43.6978 15.0299 40.8506 17.474 39.9598C18.9795 38.7123 19.4898 36.075 18.1405 34.5402C19.589 35.7849 19.5693 38.145 18.6638 39.7083C20.0763 39.572 21.5212 40.0592 22.8932 40.3359C24.3609 40.6332 25.8804 40.7653 27.3752 40.8207C28.4312 40.8601 29.301 40.4169 30.2531 40.1323C29.1329 38.1687 29.9435 36.0487 30.9366 34.2311C30.4624 35.7167 29.9651 37.2266 30.5235 38.764C30.6376 39.0869 30.7961 39.4141 31.0133 39.7487C31.1245 39.9383 31.0714 40.1803 30.8969 40.307C30.5483 41.5445 30.459 42.8328 30.2462 44.0962C29.9594 45.831 30.0281 47.7416 29.6169 49.4241C29.339 50.5611 28.4293 51.5861 28.3712 52.7754C28.3246 53.7302 28.9563 55.2102 29.5254 55.9604C29.681 56.165 31.1723 56.1479 31.4649 56.1745C32.2242 56.2395 33.0537 56.3075 33.8067 56.3163C33.7767 54.9715 32.4542 53.9144 32.1364 52.6452C31.6618 50.7518 32.2324 48.4959 32.7086 46.6418C33.1736 44.8302 33.9462 42.7013 35.4956 41.5248C36.6916 40.6169 38.2997 40.2941 39.333 39.1762C40.6139 37.791 40.7807 35.8899 41.6721 34.2841C42.5487 32.7049 44.0395 31.5914 44.8904 30.0036C45.8847 28.1475 46.6704 26.0312 47.2083 23.9991C47.4667 22.9884 47.3493 21.7874 48.3399 21.1604C47.0219 20.6871 45.6835 19.4704 45.5863 18.1939C46.0416 19.7999 47.9881 20.6083 49.6298 20.6961ZM39.3702 39.8787C39.4244 43.5663 38.6931 47.2079 38.586 50.8766C38.6852 52.005 39.5912 52.7989 40.0373 53.7867C40.1206 53.9721 40.5162 54.6584 40.4249 54.8545C40.4082 54.8896 40.1222 54.9089 40.0768 54.9163C39.2069 55.0492 38.3268 55.1099 37.449 55.1656C37.3855 55.1698 36.9946 55.2263 36.9617 55.1741C36.5179 54.457 36.1564 53.6163 35.7489 52.8682C35.055 51.5948 35.6475 50.0092 35.6376 48.6463C35.6234 46.6792 34.7686 44.9508 34.7929 43.0211C35.8482 41.3728 37.9541 41.0881 39.3702 39.8787ZM9.28278 37.8797C10.0062 40.0127 10.2051 42.3452 10.9983 44.4564C10.4325 45.7309 10.748 47.2121 10.798 48.5803C10.8288 49.4488 10.6904 50.4163 11.1645 51.1868C11.7186 52.0883 12.6894 52.6541 13.2398 53.5567C13.4106 53.8345 13.5402 54.1664 13.6316 54.4741C13.3383 54.5455 12.9296 54.4794 12.6238 54.4805C11.8556 54.4961 11.0886 54.5426 10.3206 54.5753C9.76536 54.747 9.45194 53.6814 9.26461 53.3051C8.48025 51.9234 8.46134 50.8131 8.41336 49.274C8.29389 47.3368 7.3317 45.5881 7.16233 43.669C6.98793 41.9762 7.89454 38.8573 9.28278 37.8797ZM20.7786 40.403C20.7526 41.584 20.0563 42.4402 18.8827 42.7185C18.5837 43.3561 18.6557 44.1199 18.61 44.8102C18.604 44.9263 18.647 45.1981 18.5915 45.3067C18.1298 44.6261 17.6454 43.8386 17.2178 43.1084C17.1051 43.0445 16.7814 43.1148 16.6484 43.1084C16.4632 43.0988 16.2281 43.0572 16.0033 42.9944C16.1005 40.3185 18.4873 39.8927 20.7786 40.403ZM12.2344 24.0623C11.3097 24.0019 9.9076 24.253 9.07921 23.7778C8.38386 23.3579 7.74441 22.6375 7.72699 21.7872C6.85639 22.4444 6.32912 23.6571 6.4674 24.742C7.05631 26.2407 8.79154 26.93 10.3174 26.8988C10.842 25.9385 11.4668 24.9442 12.2344 24.0623ZM39.5903 10.2565C40.0988 8.70711 41.3357 7.79078 42.8068 8.21053C44.0697 8.50611 45.495 10.229 46.2367 11.6609C45.8259 11.8154 45.4805 12.0338 45.1492 12.2736C43.59 11.04 41.435 10.1348 39.5903 10.2565Z" fill="#2BB673"/>
</svg>
