<svg width="64" height="64" viewBox="0 0 64 64" fill="none" xmlns="http://www.w3.org/2000/svg">
<path d="M51.9359 10.4381C50.8884 11.9707 50.5466 13.9885 49.1794 15.2675C46.6114 16.4683 43.7834 17.0066 40.9538 16.8333C31.6477 16.7009 22.2093 16.5245 13.1347 14.3854C8.2391 13.1505 2.18572 15.863 1.42491 21.2217C0.432554 26.3599 1.27054 31.6414 0.212027 36.7576C-0.137251 38.6294 -0.0121551 40.5589 0.575894 42.3699C4.37993 38.1028 0.575892 32.1045 1.86596 27.0766C4.55784 31.9711 5.99368 37.4569 6.04489 43.0425C6.32054 46.5048 5.64795 50.3529 7.66574 53.4072L10.9736 53.5836C8.59194 50.408 8.76836 46.3945 9.47404 42.7007C10.5215 45.7991 11.128 49.0187 12.3078 52.084L14.9871 51.9407C12.7819 49.0959 12.9142 45.4683 12.8922 42.0943C14.3269 40.3473 15.642 38.5054 16.8285 36.5812C22.9039 39.889 30.06 40.1206 36.7639 38.7864C37.8665 43.649 37.6901 48.71 38.7045 53.5285L42.266 53.4623C41.5934 52.5692 40.9097 51.665 40.2261 50.794C40.6782 47.7176 41.1964 44.6634 41.9352 41.6532C42.3321 45.1816 42.5637 48.7431 43.126 52.2604H46.5662L44.8792 50.1985C44.8792 46.9789 44.0412 43.5828 45.0115 40.4955C48.688 37.3223 51.2854 33.0832 52.4431 28.3667C54.5285 27.4306 56.5094 26.2776 58.3532 24.9265C60.4041 24.3201 64.7374 24.4524 63.8663 21.2107C61.6059 18.3659 57.5924 17.3956 55.8061 14.0436C55.1776 12.4779 53.6009 12.3456 52.1344 12.6984C52.1344 12.1361 52.0131 10.9894 51.969 10.416L51.9359 10.4381Z" fill="#2BB673"/>
</svg>
