<svg width="41" height="41" viewBox="0 0 41 41" fill="none" xmlns="http://www.w3.org/2000/svg">
<path d="M8.82812 10.2555C8.82812 7.11283 8.82813 5.54148 9.80444 4.56518C10.7807 3.58887 12.3521 3.58887 15.4948 3.58887H25.4948C28.6375 3.58887 30.2088 3.58887 31.1851 4.56518C32.1615 5.54148 32.1615 7.11283 32.1615 10.2555V33.5889C32.1615 35.1602 32.1615 35.9459 31.6733 36.434C31.1851 36.9222 30.3995 36.9222 28.8281 36.9222H12.1615C10.5901 36.9222 9.80444 36.9222 9.31628 36.434C8.82813 35.9459 8.82812 35.1602 8.82812 33.5889V10.2555Z" stroke="#944446" stroke-width="2" stroke-linecap="round" stroke-linejoin="round"/>
<path d="M13.8281 11.9229H13.8431" stroke="#944446" stroke-width="3" stroke-linecap="round" stroke-linejoin="round"/>
<path d="M13.8281 21.9229H13.8431" stroke="#944446" stroke-width="3" stroke-linecap="round" stroke-linejoin="round"/>
<path d="M8.82812 16.9229H32.1615" stroke="#944446" stroke-width="2" stroke-linecap="round" stroke-linejoin="round"/>
</svg>
