<svg width="120" height="121" viewBox="0 0 120 121" fill="none" xmlns="http://www.w3.org/2000/svg">
<path d="M6.44036 65.4728H18.7725C21.1204 65.4728 23.0812 67.0949 23.636 69.272C37.6922 62.133 48.9963 65.0252 57.2585 77.9366H74.3118C78.4638 77.9366 81.8411 81.314 81.8411 85.4659C81.8411 86.6069 81.5861 87.6883 81.1303 88.6584L84.9269 88.2777C87.014 88.0689 88.9666 87.1251 90.4265 85.6202L104.551 71.0596C107.469 68.0521 112.159 67.7331 115.457 70.3148C119.378 73.3867 119.649 79.195 116.098 82.6255L99.5749 98.6008C92.5929 105.352 83.3381 109.025 73.7981 109.025H23.7166C23.2903 111.372 21.2411 113.161 18.7722 113.161H6.44013C3.66326 113.161 1.40482 110.902 1.40482 108.126V70.5081C1.40505 67.732 3.66349 65.4728 6.44036 65.4728ZM23.8078 105.989H73.7983C82.5543 105.989 91.054 102.617 97.4648 96.419L113.988 80.4438C116.225 78.2814 116.043 74.6291 113.585 72.7059C111.495 71.0688 108.548 71.2991 106.73 73.1732L92.6055 87.7338C90.6483 89.7522 88.0291 91.0188 85.2297 91.2998L78.0105 92.0231C76.9176 92.642 75.6548 92.9955 74.3116 92.9955H44.7832C43.9448 92.9955 43.2651 92.316 43.2651 91.4774C43.2651 90.6388 43.9446 89.9594 44.7832 89.9594H74.3118C76.7899 89.9594 78.8053 87.9433 78.8053 85.4659C78.8053 82.9886 76.7899 80.9725 74.3118 80.9725H56.4185C55.8907 80.9725 55.4011 80.6985 55.1247 80.2492C47.478 67.7889 37.2276 65.2771 23.808 72.592V105.989H23.8078ZM4.44092 108.126C4.44092 109.229 5.3381 110.126 6.44036 110.126H18.7725C19.8747 110.126 20.7719 109.229 20.7719 108.126C20.7719 100.167 20.7719 78.2631 20.7719 70.5084C20.7719 69.4054 19.8747 68.5089 18.7725 68.5089H6.44036C5.3381 68.5089 4.44092 69.4054 4.44092 70.5084V108.126Z" fill="#944446"/>
<path d="M108.225 32.4093H106.199C105.362 28.4387 101.353 25.4348 96.329 25.1195C94.9539 21.4518 90.7821 18.885 85.9378 18.885C84.8623 18.8954 83.7919 19.0344 82.7494 19.2991C80.5492 17.5735 77.8256 16.6514 75.0297 16.6855C73.2427 16.6393 71.4692 17.0067 69.8476 17.759C68.2261 18.5114 66.8004 19.6284 65.6818 21.0227C60.2051 20.911 55.5028 24.2491 54.7272 28.5595C51.7324 28.7683 48.9414 30.152 46.9622 32.4093H43.2218C43.0414 32.4092 42.8626 32.4447 42.6959 32.5138C42.5292 32.5828 42.3776 32.6841 42.25 32.8117C42.1224 32.9393 42.0212 33.0908 41.9522 33.2575C41.8831 33.4243 41.8476 33.603 41.8477 33.7835V38.5421C41.8547 43.9932 43.4807 49.3195 46.5194 53.8452C49.558 58.3709 53.8725 61.892 58.9154 63.9619V66.5031C58.9171 67.8904 59.469 69.2204 60.45 70.2013C61.431 71.1822 62.7611 71.734 64.1484 71.7355H87.2986C88.6859 71.734 90.0159 71.1823 90.9969 70.2014C91.978 69.2204 92.5299 67.8905 92.5315 66.5032V63.962C97.5744 61.892 101.889 58.3709 104.928 53.8452C107.966 49.3196 109.592 43.9933 109.599 38.5421V33.7835C109.599 33.603 109.564 33.4243 109.495 33.2575C109.426 33.0908 109.325 32.9393 109.197 32.8117C109.069 32.6841 108.918 32.5828 108.751 32.5138C108.584 32.4447 108.406 32.4092 108.225 32.4093ZM55.9346 31.2418C56.1177 31.2478 56.3001 31.2168 56.4709 31.1507C56.6418 31.0846 56.7975 30.9848 56.9289 30.8571C57.0603 30.7295 57.1646 30.5767 57.2355 30.4078C57.3065 30.2389 57.3427 30.0575 57.342 29.8743C57.2604 26.2372 61.7964 23.3753 66.3317 23.7922C66.5788 23.7984 66.8231 23.7389 67.0397 23.6199C67.2563 23.5009 67.4376 23.3266 67.565 23.1148C68.3943 21.918 69.5148 20.952 70.8208 20.308C72.1267 19.664 73.5752 19.3631 75.0296 19.4338C77.3848 19.3791 79.6732 20.2187 81.4342 21.7836C81.6206 21.9353 81.8379 22.0443 82.071 22.1029C83.3515 22.1573 84.5907 21.5086 85.9378 21.6335C90.1094 21.643 93.4096 23.9528 94.093 27.075C94.2103 27.3076 94.3911 27.5023 94.6145 27.6365C94.8379 27.7706 95.0947 27.8388 95.3552 27.8332C99.1246 27.7904 102.43 29.7624 103.35 32.4093H51.2203C52.6707 31.6354 54.2907 31.2342 55.9346 31.2418ZM89.7832 66.5032C89.7825 67.1618 89.5205 67.7933 89.0546 68.259C88.5888 68.7247 87.9573 68.9866 87.2986 68.9871H64.1484C63.4897 68.9866 62.8581 68.7247 62.3923 68.259C61.9265 67.7933 61.6644 67.1619 61.6637 66.5032V64.9158C64.1539 65.6475 66.7355 66.0211 69.331 66.0255H82.1159C84.7114 66.0211 87.293 65.6474 89.7832 64.9157V66.5032ZM106.851 38.5421C106.843 45.0999 104.235 51.387 99.598 56.0241C94.9609 60.6612 88.6738 63.2696 82.1159 63.2771H69.331C54.1211 63.2734 43.2128 50.029 44.5963 35.1576C44.6321 35.1628 47.5829 35.1477 47.6146 35.1631C47.6329 35.1454 104.939 35.1645 104.969 35.1577C104.997 35.1653 105.027 35.1653 105.055 35.1577H106.851L106.851 38.5421Z" fill="#944446"/>
</svg>
