<svg width="41" height="41" viewBox="0 0 41 41" fill="none" xmlns="http://www.w3.org/2000/svg">
<path d="M6.51007 18.2886H34.3983C37.5512 18.2886 38.7063 19.0178 37.9197 22.1876C36.5321 27.7792 32.6029 29.168 28.9726 32.8176C28.0903 33.7048 29.4632 35.0155 29.464 35.9912C29.4654 37.8281 27.7184 37.9599 26.3268 37.9599H14.5815C13.1899 37.9599 11.4429 37.8281 11.4444 35.9912C11.4451 35.0361 12.7768 33.6635 11.9356 32.8176C8.30531 29.168 4.3763 27.7792 2.98857 22.1876C2.20188 19.0178 3.357 18.2886 6.51007 18.2886Z" stroke="#944446" stroke-width="2" stroke-linejoin="round"/>
<path d="M35.2081 18.2888C35.2081 14.7655 31.4707 12.3643 28.3231 13.749M5.70117 18.2888C5.70117 15.7447 7.60643 13.6489 10.0586 13.3688C8.4572 9.74819 11.851 5.68746 15.6134 6.51977M15.6134 6.51977C16.5502 1.22909 24.359 1.22909 25.2959 6.51977C29.1464 5.66799 32.4016 9.79506 30.8647 13.337M15.6134 6.51977C16.7811 6.7781 17.7933 7.45426 18.4875 8.38467" stroke="#944446" stroke-width="2" stroke-linecap="round" stroke-linejoin="round"/>
</svg>
