<svg width="51" height="50" viewBox="0 0 51 50" fill="none" xmlns="http://www.w3.org/2000/svg">
<path d="M34.0039 35.4167L34.4412 35.854C35.2093 36.6221 35.5935 37.0063 36.0585 36.9804C36.5235 36.9548 36.8627 36.5304 37.5412 35.6821L40.2531 32.2917M27.7539 32.1965V33.0006C27.7539 35.5046 27.7539 36.7565 28.0631 37.9023C28.4447 39.3173 29.1687 40.6221 30.1739 41.7077C30.9877 42.5867 32.0618 43.271 34.2097 44.6398C35.1714 45.2525 35.6522 45.559 36.1633 45.7015C36.7945 45.8773 37.4633 45.8773 38.0945 45.7015C38.6056 45.559 39.0864 45.2525 40.0481 44.6398C42.196 43.271 43.2702 42.5867 44.0839 41.7077C45.0891 40.6221 45.8131 39.3173 46.1947 37.9023C46.5039 36.7565 46.5039 35.5046 46.5039 33.0006V32.1965C46.5039 30.6373 46.5039 29.8577 46.2085 29.1994C46.0262 28.7933 45.7652 28.4256 45.4397 28.1167C44.912 27.6156 44.1643 27.3419 42.6685 26.7944L39.5977 25.6704C38.3768 25.2235 37.7664 25 37.1289 25C36.4914 25 35.881 25.2235 34.6602 25.6704L31.5893 26.7944C30.0935 27.3419 29.3458 27.6156 28.8181 28.1167C28.4927 28.4256 28.2316 28.7933 28.0493 29.1994C27.7539 29.8577 27.7539 30.6373 27.7539 32.1965Z" stroke="#944446" stroke-width="2" stroke-linecap="round" stroke-linejoin="round"/>
<path d="M34.3593 16.4771V19.7915M34.3593 16.4771C34.3593 14.9082 35.6787 13.6362 37.3059 13.6362C38.9334 13.6362 40.2526 14.9082 40.2526 16.4771V19.7915M34.3593 16.4771V10.7953C34.3593 9.22632 33.0401 7.9544 31.4126 7.9544C29.7853 7.9544 28.4659 9.22632 28.4659 10.7953M28.4659 10.7953V19.7915M28.4659 10.7953V7.00742C28.4659 5.43842 27.1468 4.1665 25.5193 4.1665C23.892 4.1665 22.5726 5.43842 22.5726 7.00742V12.6893M22.5726 12.6893C22.5726 11.1203 21.2534 9.84834 19.626 9.84834C17.9986 9.84834 16.6794 11.1203 16.6794 12.6893V26.329C16.6794 27.1957 15.57 27.6069 14.9659 26.9642L10.1924 21.8838C9.38079 20.9253 8.00902 20.6008 6.82944 21.0882C4.72875 21.9561 4.2359 25.0213 5.60125 26.7882C7.93754 29.8119 10.3313 33.9405 12.2638 37.5807C14.8864 42.5211 20.0627 45.8332 25.8191 45.8332M22.5726 12.6893V19.7915" stroke="#944446" stroke-width="2" stroke-linecap="round" stroke-linejoin="round"/>
</svg>
