<svg width="81" height="81" viewBox="0 0 81 81" fill="none" xmlns="http://www.w3.org/2000/svg">
<path d="M43.9435 73.8527C40.2161 73.9608 31.4325 72.4914 26.1174 65.75C20.8022 59.0085 12.7633 48.2379 9.40828 43.6953C8.6665 42.2118 7.93143 38.5571 10.9254 35.8059C13.9193 33.0547 17.365 36.2105 18.7136 38.1323L26.8053 47.5388V16.588C26.7041 14.5651 26.8053 10.418 31.7615 10.418C35.4027 10.418 36.6165 12.9467 36.6165 14.7674M36.6165 14.7674C36.6165 16.2239 36.6165 30.9509 36.6165 38.1323V14.7674ZM36.6165 14.7674C36.3021 12.2093 36.7603 7.07676 41.1087 7.01185C46.5443 6.93073 46.7876 11.3116 46.7876 11.6361C46.7876 11.7358 46.7876 14.0255 46.7876 17.234M46.7876 34.5141C46.7876 29.8841 46.7876 22.3781 46.7876 17.234M46.7876 17.234C46.7336 14.962 47.6314 10.418 51.6553 10.418C56.6851 10.418 56.8474 15.2058 56.8474 17.234C56.8474 17.6859 56.8474 18.6267 56.8474 19.8301M56.8474 19.8301V24.3732M56.8474 19.8301C56.8474 21.1323 56.8474 22.7422 56.8474 24.3732M56.8474 24.3732V30.5388C56.8474 28.9599 56.8474 26.6461 56.8474 24.3732ZM56.8474 24.3732C56.6311 21.9935 57.2855 17.234 61.6339 17.234C65.9823 17.234 67.0153 20.8036 66.9883 22.5884V33.5405" stroke="#944446" stroke-width="2" stroke-linejoin="round"/>
<path d="M57.9942 41.7952L46.9277 44.7245C46.0504 44.9567 45.4395 45.7493 45.4395 46.6568V58.2869C45.4395 65.8996 53.5135 73.8583 58.5117 73.8583C63.5099 73.8583 71.2957 67.3004 71.2957 58.2869V46.649C71.2957 45.7457 70.6901 44.9545 69.8182 44.7185L59.0285 41.7981C58.6899 41.7064 58.3332 41.7054 57.9942 41.7952Z" stroke="#944446" stroke-width="2"/>
<path d="M53.0742 56.8211L57.376 61.0123L63.6626 54.5049" stroke="#944446" stroke-width="2" stroke-linecap="round"/>
</svg>
