<svg width="81" height="81" viewBox="0 0 81 81" fill="none" xmlns="http://www.w3.org/2000/svg">
<path d="M20.5234 60.4131H47.1901" stroke="#944446" stroke-width="2" stroke-linecap="round" stroke-linejoin="round"/>
<path d="M10.5234 73.7466H70.5234" stroke="#944446" stroke-width="2" stroke-linecap="round" stroke-linejoin="round"/>
<path d="M47.1888 73.7467C53.3772 73.7467 59.3121 71.2884 63.688 66.9126C68.0638 62.5367 70.5221 56.6018 70.5221 50.4134C70.5221 44.225 68.0638 38.2901 63.688 33.9143C59.3121 29.5384 53.3772 27.0801 47.1888 27.0801H43.8555" stroke="#944446" stroke-width="2" stroke-linecap="round" stroke-linejoin="round"/>
<path d="M30.5234 47.0796H37.1901" stroke="#944446" stroke-width="2" stroke-linecap="round" stroke-linejoin="round"/>
<path d="M30.5221 40.4131C28.754 40.4131 27.0583 39.7107 25.8081 38.4605C24.5578 37.2102 23.8555 35.5145 23.8555 33.7464V20.4131H43.8555V33.7464C43.8555 35.5145 43.1531 37.2102 41.9028 38.4605C40.6526 39.7107 38.9569 40.4131 37.1888 40.4131H30.5221Z" stroke="#944446" stroke-width="2" stroke-linecap="round" stroke-linejoin="round"/>
<path d="M40.5247 20.4134V10.4134C40.5247 9.52936 40.1735 8.68151 39.5484 8.05639C38.9233 7.43127 38.0755 7.08008 37.1914 7.08008H30.5247C29.6407 7.08008 28.7928 7.43127 28.1677 8.05639C27.5426 8.68151 27.1914 9.52936 27.1914 10.4134V20.4134" stroke="#944446" stroke-width="2" stroke-linecap="round" stroke-linejoin="round"/>
</svg>
