<svg width="41" height="41" viewBox="0 0 41 41" fill="none" xmlns="http://www.w3.org/2000/svg">
<path d="M17.6217 33.589L15.5384 29.4224L10.9551 30.2557" stroke="#944446" stroke-width="2" stroke-linecap="round" stroke-linejoin="round"/>
<path d="M17.6217 6.92236L15.5384 11.089L10.9551 10.2557" stroke="#944446" stroke-width="2" stroke-linecap="round" stroke-linejoin="round"/>
<path d="M24.2891 33.5895L26.3724 29.4229L30.9557 30.2562" stroke="#944446" stroke-width="2" stroke-linecap="round" stroke-linejoin="round"/>
<path d="M24.2891 6.92285L26.3724 11.0895L30.9557 10.2562" stroke="#944446" stroke-width="2" stroke-linecap="round" stroke-linejoin="round"/>
<path d="M29.2878 35.2559L24.2878 25.2559H17.6211" stroke="#944446" stroke-width="2" stroke-linecap="round" stroke-linejoin="round"/>
<path d="M29.2891 5.25586L24.2891 15.2559L26.7891 20.2559" stroke="#944446" stroke-width="2" stroke-linecap="round" stroke-linejoin="round"/>
<path d="M4.28906 20.2559H15.1224L17.6224 15.2559" stroke="#944446" stroke-width="2" stroke-linecap="round" stroke-linejoin="round"/>
<path d="M34.2891 16.9229L31.7891 20.2562L34.2891 23.5895" stroke="#944446" stroke-width="2" stroke-linecap="round" stroke-linejoin="round"/>
<path d="M37.6224 20.2559H26.7891L24.2891 25.2559" stroke="#944446" stroke-width="2" stroke-linecap="round" stroke-linejoin="round"/>
<path d="M7.62109 16.9229L10.1211 20.2562L7.62109 23.5895" stroke="#944446" stroke-width="2" stroke-linecap="round" stroke-linejoin="round"/>
<path d="M12.6211 35.2559L17.6211 25.2559L15.1211 20.2559" stroke="#944446" stroke-width="2" stroke-linecap="round" stroke-linejoin="round"/>
<path d="M12.6211 5.25586L17.6211 15.2559H24.2878" stroke="#944446" stroke-width="2" stroke-linecap="round" stroke-linejoin="round"/>
</svg>
