<svg width="100" height="100" viewBox="0 0 100 100" fill="none" xmlns="http://www.w3.org/2000/svg">
<circle cx="50" cy="50" r="49.5" fill="white" stroke="#944446"/>
<path d="M26.5546 46.854H73.4435C74.2207 46.854 74.9661 47.1628 75.5157 47.7123C76.0653 48.2619 76.374 49.0073 76.374 49.7846V51.2498C76.374 55.6457 68.9978 67.5818 64.6518 70.2984V73.229C64.6518 74.0062 64.343 74.7516 63.7935 75.3012C63.2439 75.8508 62.4985 76.1596 61.7212 76.1596H38.2768C37.4996 76.1596 36.7542 75.8508 36.2046 75.3012C35.655 74.7516 35.3462 74.0062 35.3462 73.229V70.2984C30.4024 67.2096 23.624 55.6457 23.624 51.2498V49.7846C23.624 49.0073 23.9328 48.2619 24.4824 47.7123C25.0319 47.1628 25.7773 46.854 26.5546 46.854Z" stroke="#944446" stroke-width="2" stroke-linecap="round" stroke-linejoin="round"/>
<path d="M69.0474 46.8539C70.0761 43.8736 70.2959 40.3012 70.5127 35.9699V32.2012H63.9014C55.6079 32.2012 50.3739 34.5573 47.373 38.285" stroke="#944446" stroke-width="2" stroke-linecap="round" stroke-linejoin="round"/>
<path d="M30.2326 46.8776C29.821 44.9402 29.5711 42.9719 29.4854 40.9931V38.0625H34.6285C37.5004 38.0625 39.9064 38.4259 41.8933 39.0882" stroke="#944446" stroke-width="2" stroke-linecap="round" stroke-linejoin="round"/>
<path d="M38.2764 38.0626L41.2069 26.3403L52.9291 33.6667" stroke="#944446" stroke-width="2" stroke-linecap="round" stroke-linejoin="round"/>
<path d="M52.9291 46.8542V45.3889C52.9291 43.4458 52.1573 41.5823 50.7833 40.2083C49.4093 38.8344 47.5458 38.0625 45.6028 38.0625C43.6597 38.0625 41.7962 38.8344 40.4222 40.2083C39.0483 41.5823 38.2764 43.4458 38.2764 45.3889V46.8542" stroke="#944446" stroke-width="2" stroke-linecap="round" stroke-linejoin="round"/>
</svg>
