<svg width="41" height="41" viewBox="0 0 41 41" fill="none" xmlns="http://www.w3.org/2000/svg">
<path d="M3.78906 36.9229H22.1224C30.4067 36.9229 37.1224 30.2072 37.1224 21.9229C37.1224 13.6386 30.4067 6.92285 22.1224 6.92285C14.4015 6.92285 7.95146 12.7563 7.1224 20.2562" stroke="#944446" stroke-width="2" stroke-linecap="round"/>
<path d="M31.2878 9.42253L32.9544 7.75586M9.62109 7.75586L11.2878 9.42253" stroke="#944446" stroke-width="2" stroke-linecap="round" stroke-linejoin="round"/>
<path d="M27.9557 15.2559L23.0569 20.1548M23.0569 20.1548C22.6044 19.7023 21.9794 19.4225 21.2891 19.4225C19.9084 19.4225 18.7891 20.5418 18.7891 21.9225C18.7891 23.3033 19.9084 24.4225 21.2891 24.4225C22.6697 24.4225 23.7891 23.3033 23.7891 21.9225C23.7891 21.2321 23.5092 20.6071 23.0569 20.1548Z" stroke="#944446" stroke-width="2" stroke-linecap="round"/>
<path d="M21.2891 6.08887V3.58887" stroke="#944446" stroke-width="2" stroke-linecap="round" stroke-linejoin="round"/>
<path d="M17.9551 3.58936H24.6217" stroke="#944446" stroke-width="2" stroke-linecap="round" stroke-linejoin="round"/>
<path d="M3.78906 25.2559H8.78906" stroke="#944446" stroke-width="2" stroke-linecap="round" stroke-linejoin="round"/>
<path d="M3.78906 31.9229H12.1224" stroke="#944446" stroke-width="2" stroke-linecap="round" stroke-linejoin="round"/>
</svg>
